<svg width="16" height="17" viewBox="0 0 16 17" fill="none" xmlns="http://www.w3.org/2000/svg">
<path d="M8.00256 10.2132L4.71126 6.58113C4.66339 6.5283 4.60013 6.5 4.53174 6.5C4.46335 6.5 4.40009 6.5283 4.35221 6.58113L4.07523 6.88491C4.02565 6.93774 4 7.00943 4 7.08491C4 7.16038 4.02565 7.23019 4.07352 7.28302L7.82133 11.4189C7.8692 11.4717 7.93246 11.5 8.00085 11.5C8.07096 11.5 8.13593 11.4717 8.1838 11.4189L11.9265 7.28868C11.9744 7.23585 12 7.16604 12 7.09057C12 7.01509 11.9744 6.94528 11.9265 6.89245L11.6512 6.58868C11.6033 6.53585 11.5384 6.50566 11.4717 6.50566C11.4033 6.50566 11.34 6.53396 11.2922 6.58868L8.00256 10.2132Z" fill="#E69796"/>
</svg>
