<svg width="24" height="24" viewBox="0 0 24 24" fill="none" xmlns="http://www.w3.org/2000/svg">
<path d="M4.5 6.6842C4.5 6.40806 4.72386 6.1842 5 6.1842H19.5333C19.8095 6.1842 20.0333 6.40806 20.0333 6.6842V19.0877C20.0333 21.0207 18.4663 22.5877 16.5333 22.5877H8C6.06701 22.5877 4.5 21.0207 4.5 19.0877V6.6842Z" stroke="#180000"/>
<path d="M8.10776 8.93808L8.10775 4.86098C8.10776 3.92539 8.54136 3.02813 9.31317 2.36657C10.085 1.70502 11.1318 1.33336 12.2233 1.33336C13.3148 1.33336 14.3616 1.70502 15.1334 2.36657C15.9053 3.02813 16.3389 3.92539 16.3389 4.86098L16.3389 8.93808" stroke="#180000" stroke-linecap="round" stroke-linejoin="round"/>
</svg>
