<svg width="284" height="315" viewBox="0 0 284 315" fill="none" xmlns="http://www.w3.org/2000/svg">
<path d="M238 157.175C238 91.3604 184.718 38 119 38C53.2823 38 0 91.3604 0 157.175C0 198.305 20.8101 234.578 52.4641 256C52.4641 256 92.5374 232.001 117.185 232.001C142.845 232.001 187.871 254.376 187.871 254.376C218.201 232.776 238 197.292 238 157.175Z" fill="#F7F0F0"/>
<path d="M226 147.422C226.344 147.245 226.694 147.068 227.045 146.892C228.58 146.115 230.123 145.338 231.672 144.561C232.082 144.353 232.484 144.153 232.893 143.945C232.959 143.915 233.025 143.876 233.09 143.845C233.28 143.753 233.47 143.653 233.668 143.553C242.103 139.322 250.647 134.963 258.473 129.777C258.67 129.647 258.859 129.518 259.048 129.388L258.917 125.095C258.728 125.231 258.531 125.368 258.342 125.505C250.631 130.895 241.971 135.338 233.448 139.616C233.257 139.708 233.06 139.808 232.87 139.908C232.453 140.116 232.044 140.323 231.627 140.531C230.063 141.316 228.455 142.123 226.862 142.931C224.333 139.114 221.812 135.001 219.354 130.681C218.282 128.798 217.209 126.856 216.15 124.87C216.057 124.687 215.958 124.512 215.858 124.329C214.53 121.839 213.215 119.274 211.929 116.658L231.906 105.489L232.497 105.16L239.982 100.977C245.268 98.0202 250.034 95.6276 254.825 96.2687C255.713 96.3909 256.604 96.6238 257.46 96.9608C257.661 97.0379 257.862 97.1225 258.056 97.2145L257.922 92.7952C257.721 92.7402 257.528 92.6851 257.328 92.6375C256.868 92.5287 256.394 92.4423 255.92 92.3781C249.811 91.5571 243.93 94.6663 238.548 97.6767C237.234 98.4121 235.913 99.1476 234.591 99.8905C234.416 99.99 234.241 100.09 234.065 100.182C233.547 100.473 233.029 100.764 232.503 101.055C232.306 101.162 232.109 101.277 231.911 101.384C224.719 105.406 217.52 109.428 210.328 113.449C210.145 113.549 209.97 113.649 209.788 113.748C208.817 114.292 207.853 114.828 206.882 115.372C206.801 115.418 206.721 115.464 206.641 115.51C206.725 115.678 206.803 115.846 206.887 116.014C208.174 118.668 209.513 121.321 210.896 123.972C211.073 124.323 211.257 124.666 211.441 125.01C211.487 125.105 211.541 125.2 211.595 125.302C211.687 125.484 211.787 125.66 211.879 125.842C212.263 126.565 212.654 127.296 213.046 128.019C213.391 128.646 213.736 129.282 214.081 129.91C216.771 134.772 219.608 139.557 222.604 144.176C222.726 144.373 222.855 144.563 222.985 144.759C223.419 145.422 223.854 146.085 224.295 146.741C224.432 146.945 224.569 147.148 224.706 147.352C224.828 147.534 224.958 147.724 225.079 147.906C225.379 147.737 225.693 147.576 226 147.422Z" fill="#F7E9DF"/>
<path d="M259.049 129.396L258.917 125.102C261.043 123.597 263.093 122.013 265.046 120.342C267.281 118.429 268.39 114.863 267.852 111.264C267.552 109.217 266.747 107.041 265.461 104.786C264.734 103.509 263.874 102.249 262.904 101.029C261.57 99.3578 259.882 98.0485 258.049 97.2146L257.915 92.7953C258.331 92.9124 258.747 93.0516 259.149 93.2059C259.409 93.3039 259.663 93.4095 259.916 93.5225C262.129 94.5037 264.124 95.9988 265.726 97.8192L266.439 99.104C266.395 99.1271 266.351 99.1501 266.307 99.1658C265.993 99.3124 266.26 99.7794 266.575 99.6328C266.619 99.6098 266.663 99.5941 266.707 99.5711L268.132 102.119C267.951 102.285 268.134 102.613 268.385 102.571L270.093 105.63L269.955 105.714C269.656 105.89 269.923 106.349 270.223 106.181L270.354 106.104L271.458 108.075C271.465 108.075 271.465 108.068 271.472 108.067C271.71 108.882 271.889 109.698 272.017 110.522C272.418 113.216 272.115 116.094 271.035 118.566C270.93 118.812 270.816 119.051 270.695 119.282C270.148 120.341 269.452 121.315 268.59 122.145C268.445 122.288 268.293 122.424 268.133 122.56C268.002 122.673 267.872 122.787 267.741 122.893C264.982 125.215 262.072 127.371 259.049 129.396Z" fill="#F7E9DF"/>
<path d="M270.215 106.181C269.916 106.357 269.648 105.89 269.947 105.714L270.086 105.63L268.377 102.572C268.127 102.614 267.943 102.285 268.124 102.119L266.699 99.5717C266.655 99.5947 266.611 99.6104 266.567 99.6334C266.253 99.7801 265.985 99.313 266.299 99.1664C266.343 99.1434 266.387 99.1277 266.431 99.1047L265.718 97.8198C265.884 98.0084 266.044 98.2045 266.203 98.4006C266.362 98.5967 266.513 98.7929 266.665 98.9966C266.779 99.1419 266.885 99.2874 266.991 99.4329C267.568 100.204 268.117 101.019 268.628 101.858C268.72 102.011 268.812 102.164 268.903 102.317C269.492 103.31 270.023 104.34 270.48 105.393C270.55 105.562 270.619 105.73 270.689 105.891C270.984 106.609 271.235 107.334 271.449 108.061C271.442 108.061 271.442 108.068 271.435 108.069L270.332 106.098L270.215 106.181Z" fill="#FED57B"/>
<path d="M226.868 142.931C224.339 139.114 221.819 135.002 219.36 130.681C216.849 126.266 214.353 121.555 211.935 116.658L239.98 100.978C245.267 98.0207 250.033 95.6281 254.823 96.2691C257.867 96.6799 260.811 98.414 262.91 101.029C263.88 102.242 264.747 103.509 265.467 104.786C266.754 107.041 267.551 109.218 267.858 111.264C268.389 114.863 267.287 118.429 265.052 120.342C255.376 128.622 243.3 134.677 231.626 140.531C230.062 141.316 228.454 142.124 226.868 142.931Z" fill="#FED57B"/>
<path d="M226.868 142.931C224.339 139.114 221.819 135.002 219.36 130.681C216.849 126.266 214.353 121.555 211.935 116.658L239.98 100.978C245.267 98.0207 250.033 95.6281 254.823 96.2691C257.867 96.6799 260.811 98.414 262.91 101.029C263.88 102.242 264.747 103.509 265.467 104.786C266.754 107.041 267.551 109.218 267.858 111.264C268.389 114.863 267.287 118.429 265.052 120.342C255.376 128.622 243.3 134.677 231.626 140.531C230.062 141.316 228.454 142.124 226.868 142.931Z" fill="#FAC9E2"/>
<path d="M271.45 108.075L270.346 106.105L270.086 105.637L268.377 102.579L268.124 102.126L266.699 99.5788L266.438 99.1116L265.726 97.8268C269.821 95.8834 273.867 94.0222 277.963 92.0787C278.325 92.4553 278.673 92.8469 279.006 93.2535C279.112 93.3842 279.218 93.515 279.324 93.6457C279.802 94.2561 280.25 94.8893 280.662 95.5453C280.754 95.6985 280.846 95.8443 280.937 95.9974C281.419 96.8071 281.849 97.6473 282.222 98.5183C282.291 98.6866 282.361 98.855 282.431 99.016C282.649 99.5505 282.837 100.093 283.01 100.636C279.108 103.011 275.374 105.693 271.472 108.06C271.457 108.068 271.457 108.068 271.45 108.075Z" fill="#ACB2E6"/>
<path d="M269.942 106.216C269.845 106.159 269.776 106.049 269.774 105.939C269.774 105.939 269.774 105.939 269.774 105.931C269.772 105.828 269.829 105.738 269.924 105.685L270.471 105.364L276.237 102.02C276.566 101.829 276.894 101.645 277.223 101.454C277.916 101.056 278.632 100.65 279.325 100.23C279.558 100.085 279.791 99.9404 280.025 99.7954C280.732 99.3603 281.461 98.9099 282.191 98.4891C282.191 98.4891 282.191 98.4891 282.198 98.4816L282.206 98.4814C282.374 98.382 282.538 98.4673 282.614 98.5986C282.691 98.7299 282.68 98.9147 282.512 99.0141L282.439 99.0599C281.804 99.4271 281.17 99.8239 280.55 100.198C280.221 100.397 279.901 100.595 279.572 100.794C278.901 101.199 278.215 101.596 277.543 101.979C277.208 102.171 276.872 102.362 276.536 102.561L270.223 106.225C270.135 106.264 270.032 106.266 269.942 106.216Z" fill="#54362A"/>
<path d="M268.049 102.431C268.026 102.387 268.018 102.343 268.017 102.299C268.015 102.225 268.043 102.151 268.101 102.098C268.123 102.075 268.145 102.06 268.174 102.052C268.291 101.998 268.401 101.937 268.518 101.883L268.627 101.829C272.663 99.8276 276.696 97.7082 280.617 95.5247C280.632 95.5171 280.639 95.5169 280.647 95.5094C280.808 95.4397 280.957 95.5252 281.018 95.6421C281.087 95.7514 281.091 95.9212 280.952 96.0273C280.938 96.035 280.923 96.0427 280.909 96.0577C276.988 98.2412 272.954 100.361 268.926 102.354L268.466 102.585C268.436 102.6 268.407 102.608 268.378 102.616C268.223 102.642 268.103 102.541 268.049 102.431Z" fill="#54362A"/>
<path d="M266.272 99.6467C266.182 99.5821 266.128 99.4798 266.127 99.3839C266.126 99.3765 266.126 99.3618 266.126 99.3544C266.131 99.2583 266.189 99.1833 266.284 99.1371L266.313 99.1217C266.35 99.1062 266.386 99.0907 266.416 99.0754C266.474 99.052 266.525 99.0215 266.584 98.9981L266.65 98.9673C269.415 97.6783 272.18 96.3894 274.945 95.093L278.924 93.2406C278.946 93.2327 278.968 93.2249 278.99 93.2171C279.115 93.185 279.242 93.2341 279.318 93.3433C279.394 93.4451 279.404 93.5704 279.347 93.6602C279.318 93.705 279.274 93.7428 279.223 93.766L266.714 99.6082C266.692 99.616 266.671 99.6312 266.649 99.6391L266.583 99.6699C266.48 99.7163 266.369 99.7112 266.272 99.6467Z" fill="#54362A"/>
<path d="M242.753 109.482C242.637 109.241 242.515 109.007 242.392 108.774C242.543 108.579 242.694 108.384 242.845 108.181C242.902 108.099 242.871 108.004 242.796 107.975C242.759 107.961 242.715 107.955 242.663 107.963C242.45 108.012 242.237 108.061 242.031 108.109C241.916 107.897 241.801 107.693 241.679 107.481C241.633 107.409 241.573 107.373 241.5 107.389C241.441 107.405 241.383 107.48 241.37 107.554C241.345 107.791 241.321 108.028 241.288 108.264C241.031 108.321 240.766 108.378 240.509 108.428C240.435 108.429 240.34 108.454 240.319 108.513C240.298 108.58 240.343 108.638 240.411 108.681L240.418 108.688C240.665 108.846 240.919 108.981 241.18 109.116C241.141 109.382 241.11 109.649 241.063 109.915C241.05 109.989 241.074 110.077 241.149 110.105C241.208 110.126 241.259 110.081 241.317 110.021C241.497 109.833 241.671 109.637 241.836 109.435C242.052 109.526 242.268 109.618 242.492 109.702C242.536 109.716 242.588 109.737 242.633 109.728C242.765 109.696 242.807 109.592 242.753 109.482Z" fill="white"/>
<path d="M250.65 124.493C250.534 124.252 250.411 124.018 250.288 123.784C250.439 123.589 250.591 123.394 250.741 123.192C250.799 123.109 250.767 123.014 250.693 122.986C250.656 122.972 250.611 122.966 250.56 122.974C250.347 123.023 250.134 123.071 249.928 123.12C249.813 122.908 249.698 122.704 249.575 122.492C249.53 122.419 249.47 122.383 249.396 122.4C249.337 122.416 249.28 122.491 249.267 122.565C249.242 122.801 249.217 123.038 249.185 123.275C248.928 123.332 248.663 123.389 248.406 123.438C248.332 123.44 248.236 123.464 248.215 123.524C248.195 123.59 248.24 123.649 248.307 123.691L248.315 123.699C248.562 123.856 248.816 123.991 249.077 124.126C249.038 124.393 249.006 124.659 248.96 124.926C248.947 125 248.971 125.088 249.045 125.116C249.105 125.137 249.155 125.092 249.213 125.031C249.394 124.843 249.567 124.648 249.733 124.445C249.949 124.537 250.165 124.628 250.388 124.712C250.433 124.726 250.485 124.747 250.529 124.739C250.661 124.707 250.704 124.603 250.65 124.493Z" fill="white"/>
<path d="M249.417 103.404C249.301 103.163 249.178 102.929 249.055 102.696C249.206 102.501 249.357 102.306 249.508 102.103C249.566 102.021 249.534 101.926 249.46 101.897C249.423 101.883 249.378 101.877 249.327 101.885C249.114 101.934 248.9 101.983 248.695 102.031C248.58 101.819 248.465 101.615 248.342 101.403C248.296 101.331 248.237 101.295 248.163 101.311C248.104 101.327 248.047 101.402 248.034 101.476C248.009 101.713 247.984 101.95 247.952 102.186C247.695 102.243 247.43 102.3 247.173 102.35C247.099 102.351 247.003 102.376 246.982 102.435C246.961 102.502 247.007 102.56 247.074 102.603L247.082 102.61C247.329 102.768 247.582 102.903 247.844 103.038C247.805 103.304 247.773 103.571 247.727 103.837C247.714 103.911 247.738 103.999 247.812 104.027C247.872 104.048 247.922 104.003 247.98 103.943C248.161 103.755 248.334 103.559 248.5 103.357C248.716 103.448 248.932 103.54 249.155 103.624C249.2 103.638 249.252 103.659 249.296 103.65C249.428 103.626 249.471 103.514 249.417 103.404Z" fill="white"/>
<path d="M221.871 118.949C221.755 118.708 221.632 118.474 221.509 118.241C221.66 118.046 221.812 117.851 221.962 117.648C222.02 117.566 221.988 117.471 221.914 117.443C221.877 117.429 221.832 117.422 221.781 117.431C221.568 117.479 221.355 117.528 221.149 117.576C221.034 117.364 220.919 117.16 220.796 116.948C220.751 116.876 220.691 116.84 220.617 116.856C220.558 116.872 220.501 116.947 220.488 117.021C220.463 117.258 220.438 117.495 220.406 117.732C220.149 117.788 219.884 117.845 219.627 117.895C219.553 117.896 219.457 117.921 219.436 117.98C219.416 118.047 219.461 118.105 219.528 118.148L219.536 118.155C219.783 118.313 220.037 118.448 220.298 118.583C220.259 118.849 220.227 119.116 220.181 119.382C220.168 119.456 220.192 119.545 220.266 119.573C220.326 119.594 220.376 119.548 220.434 119.488C220.615 119.3 220.788 119.104 220.954 118.902C221.17 118.993 221.386 119.085 221.609 119.169C221.654 119.183 221.706 119.204 221.75 119.195C221.882 119.163 221.925 119.059 221.871 118.949Z" fill="white"/>
<path d="M242.747 129.186C242.631 128.945 242.509 128.711 242.386 128.477C242.537 128.282 242.688 128.087 242.839 127.885C242.896 127.803 242.865 127.707 242.79 127.679C242.753 127.665 242.709 127.659 242.657 127.667C242.444 127.716 242.231 127.764 242.025 127.813C241.91 127.601 241.795 127.397 241.673 127.185C241.627 127.112 241.567 127.076 241.494 127.093C241.435 127.109 241.377 127.184 241.364 127.258C241.339 127.495 241.315 127.731 241.282 127.968C241.025 128.025 240.76 128.082 240.503 128.132C240.429 128.133 240.334 128.157 240.313 128.217C240.292 128.284 240.337 128.342 240.405 128.385L240.412 128.392C240.659 128.549 240.913 128.684 241.174 128.819C241.135 129.086 241.104 129.352 241.057 129.619C241.044 129.693 241.068 129.781 241.143 129.809C241.202 129.83 241.253 129.785 241.311 129.725C241.491 129.536 241.665 129.341 241.83 129.138C242.046 129.23 242.262 129.321 242.486 129.405C242.53 129.419 242.582 129.44 242.627 129.432C242.759 129.407 242.801 129.296 242.747 129.186Z" fill="white"/>
<path d="M256.999 104.801C256.883 104.559 256.761 104.326 256.638 104.092C256.789 103.897 256.94 103.702 257.091 103.499C257.148 103.417 257.117 103.322 257.042 103.294C257.005 103.28 256.961 103.273 256.909 103.282C256.696 103.33 256.483 103.379 256.277 103.427C256.162 103.216 256.047 103.011 255.925 102.8C255.879 102.727 255.819 102.691 255.746 102.707C255.687 102.723 255.629 102.798 255.616 102.872C255.591 103.109 255.567 103.346 255.534 103.583C255.277 103.64 255.013 103.697 254.755 103.746C254.681 103.748 254.586 103.772 254.565 103.831C254.544 103.898 254.589 103.956 254.657 103.999L254.664 104.006C254.911 104.164 255.165 104.299 255.426 104.434C255.387 104.7 255.356 104.967 255.31 105.234C255.296 105.308 255.32 105.396 255.395 105.424C255.454 105.445 255.505 105.399 255.563 105.339C255.744 105.151 255.917 104.955 256.083 104.753C256.299 104.844 256.515 104.936 256.738 105.02C256.782 105.034 256.834 105.055 256.879 105.047C257.011 105.014 257.053 104.91 256.999 104.801Z" fill="white"/>
<path d="M256.417 114.691C256.286 114.428 256.155 114.157 256.017 113.902C256.19 113.684 256.355 113.467 256.52 113.242C256.585 113.152 256.553 113.049 256.471 113.014C256.427 112.993 256.375 112.986 256.324 113.002C256.088 113.059 255.853 113.108 255.618 113.164C255.488 112.931 255.357 112.697 255.227 112.463C255.181 112.383 255.106 112.34 255.026 112.357C254.959 112.373 254.895 112.455 254.882 112.544C254.858 112.81 254.826 113.069 254.794 113.336C254.508 113.401 254.213 113.458 253.927 113.516C253.845 113.518 253.735 113.542 253.722 113.609C253.701 113.683 253.747 113.748 253.822 113.799L253.829 113.806C254.106 113.977 254.39 114.134 254.681 114.283C254.642 114.579 254.597 114.875 254.551 115.172C254.538 115.253 254.562 115.356 254.651 115.384C254.718 115.404 254.776 115.359 254.841 115.284C255.036 115.073 255.231 114.855 255.419 114.63C255.657 114.736 255.903 114.834 256.156 114.925C256.2 114.939 256.267 114.96 256.311 114.951C256.437 114.934 256.478 114.815 256.417 114.691Z" fill="white"/>
<path d="M229.495 120.242C229.364 119.978 229.233 119.708 229.095 119.452C229.268 119.235 229.433 119.017 229.598 118.793C229.663 118.703 229.631 118.6 229.549 118.565C229.505 118.543 229.453 118.537 229.402 118.553C229.166 118.609 228.931 118.658 228.696 118.715C228.566 118.481 228.435 118.248 228.305 118.014C228.259 117.934 228.184 117.891 228.104 117.907C228.037 117.924 227.973 118.006 227.96 118.095C227.936 118.361 227.904 118.62 227.872 118.887C227.586 118.952 227.292 119.009 227.005 119.067C226.923 119.068 226.813 119.093 226.8 119.159C226.779 119.234 226.825 119.299 226.9 119.349L226.907 119.357C227.184 119.528 227.468 119.685 227.759 119.834C227.72 120.13 227.675 120.426 227.629 120.722C227.616 120.804 227.64 120.907 227.729 120.934C227.796 120.955 227.854 120.91 227.919 120.835C228.114 120.624 228.309 120.406 228.497 120.181C228.735 120.287 228.981 120.385 229.234 120.476C229.278 120.49 229.345 120.51 229.389 120.502C229.507 120.485 229.556 120.366 229.495 120.242Z" fill="white"/>
<path d="M229.687 113.631C229.571 113.39 229.448 113.156 229.325 112.922C229.476 112.727 229.627 112.532 229.778 112.33C229.836 112.247 229.804 112.152 229.73 112.124C229.693 112.11 229.648 112.104 229.597 112.112C229.384 112.161 229.17 112.209 228.965 112.258C228.85 112.046 228.735 111.842 228.612 111.63C228.566 111.557 228.507 111.521 228.433 111.538C228.374 111.554 228.317 111.629 228.304 111.703C228.279 111.939 228.254 112.176 228.222 112.413C227.965 112.47 227.7 112.527 227.443 112.577C227.369 112.578 227.273 112.602 227.252 112.662C227.231 112.728 227.277 112.787 227.344 112.83L227.352 112.837C227.599 112.994 227.853 113.129 228.114 113.264C228.075 113.531 228.043 113.797 227.997 114.064C227.984 114.138 228.008 114.226 228.082 114.254C228.142 114.275 228.192 114.23 228.25 114.169C228.431 113.981 228.604 113.786 228.77 113.583C228.986 113.675 229.202 113.766 229.425 113.85C229.47 113.864 229.522 113.885 229.566 113.877C229.698 113.852 229.741 113.741 229.687 113.631Z" fill="white"/>
<path d="M249.107 115.097C248.884 114.659 248.661 114.228 248.438 113.789C248.711 113.415 248.976 113.04 249.234 112.658C249.299 112.561 249.267 112.451 249.185 112.401C249.14 112.38 249.066 112.374 249.007 112.39C248.617 112.449 248.22 112.524 247.83 112.606C247.638 112.226 247.438 111.846 247.246 111.466C247.215 111.4 247.163 111.364 247.104 111.365C247.045 111.374 246.979 111.412 246.958 111.494C246.849 111.946 246.755 112.399 246.676 112.858C246.206 112.971 245.728 113.091 245.258 113.226L245.251 113.226L245.243 113.226C245.075 113.274 245.13 113.458 245.257 113.536C245.654 113.787 246.064 114.014 246.475 114.242C246.412 114.79 246.365 115.345 246.354 115.898C246.348 115.98 246.365 116.105 246.447 116.148C246.544 116.183 246.602 116.13 246.667 116.055C247.006 115.656 247.337 115.244 247.661 114.831C248.041 115.008 248.429 115.17 248.83 115.317C248.86 115.331 248.905 115.345 248.934 115.344C249.082 115.363 249.183 115.236 249.107 115.097Z" fill="white"/>
<path d="M264.776 114.314C264.553 113.875 264.33 113.444 264.107 113.006C264.38 112.631 264.646 112.257 264.904 111.875C264.968 111.778 264.936 111.668 264.854 111.618C264.809 111.597 264.736 111.591 264.677 111.607C264.287 111.666 263.889 111.741 263.5 111.822C263.307 111.442 263.108 111.063 262.915 110.683C262.884 110.617 262.832 110.581 262.773 110.582C262.714 110.591 262.648 110.629 262.628 110.711C262.519 111.163 262.425 111.615 262.345 112.075C261.875 112.188 261.398 112.308 260.928 112.443L260.92 112.443L260.913 112.443C260.744 112.491 260.799 112.674 260.927 112.753C261.323 113.003 261.734 113.231 262.145 113.459C262.082 114.007 262.034 114.561 262.023 115.115C262.017 115.197 262.035 115.322 262.117 115.364C262.213 115.399 262.271 115.347 262.336 115.271C262.675 114.873 263.007 114.461 263.331 114.048C263.711 114.225 264.098 114.387 264.5 114.534C264.53 114.548 264.574 114.562 264.604 114.561C264.752 114.58 264.845 114.453 264.776 114.314Z" fill="white"/>
<path d="M229.296 129.297C229.073 128.859 228.85 128.428 228.627 127.989C228.9 127.615 229.165 127.24 229.423 126.858C229.488 126.761 229.456 126.651 229.374 126.601C229.329 126.58 229.255 126.574 229.196 126.59C228.806 126.65 228.409 126.724 228.019 126.806C227.827 126.426 227.627 126.046 227.435 125.666C227.404 125.6 227.352 125.564 227.293 125.565C227.234 125.574 227.168 125.612 227.148 125.694C227.039 126.146 226.944 126.599 226.865 127.058C226.395 127.171 225.917 127.291 225.447 127.426L225.44 127.426L225.433 127.427C225.264 127.474 225.319 127.658 225.446 127.736C225.843 127.987 226.253 128.215 226.664 128.443C226.601 128.99 226.554 129.545 226.543 130.099C226.537 130.18 226.554 130.305 226.636 130.348C226.733 130.383 226.791 130.33 226.856 130.255C227.195 129.857 227.526 129.444 227.85 129.031C228.23 129.208 228.618 129.37 229.019 129.517C229.049 129.531 229.094 129.545 229.123 129.544C229.271 129.563 229.365 129.436 229.296 129.297Z" fill="white"/>
<path d="M239.833 117.286C239.633 116.899 239.433 116.504 239.234 116.117C239.478 115.78 239.715 115.443 239.944 115.106C240.001 115.016 239.977 114.921 239.895 114.871C239.858 114.849 239.791 114.85 239.732 114.859C239.379 114.918 239.026 114.977 238.68 115.05C238.503 114.707 238.334 114.371 238.157 114.027C238.127 113.969 238.082 113.94 238.03 113.941C237.971 113.95 237.913 113.981 237.899 114.055C237.797 114.463 237.717 114.87 237.644 115.278C237.217 115.375 236.791 115.487 236.373 115.606L236.365 115.607L236.358 115.607C236.204 115.654 236.252 115.816 236.371 115.887C236.73 116.109 237.096 116.323 237.462 116.514C237.406 117.01 237.364 117.506 237.352 118.001C237.353 118.074 237.363 118.185 237.438 118.228C237.52 118.263 237.578 118.21 237.635 118.142C237.946 117.782 238.241 117.414 238.529 117.046C238.872 117.202 239.222 117.35 239.571 117.483C239.601 117.497 239.638 117.504 239.668 117.511C239.809 117.523 239.895 117.41 239.833 117.286Z" fill="white"/>
<path d="M201.47 195.106C201.47 195.106 176.097 190.761 160.709 181.559L169.744 158.045L171.535 158.662L172.287 156.504L170.496 155.887L171.927 151.814L172.396 150.488C172.625 149.813 172.838 149.214 173.306 148.775C173.893 148.231 174.764 148.062 175.359 148.315L209.031 159.966C209.86 160.226 210.857 160.843 211.24 161.632C211.613 162.418 211.59 163.308 211.289 164.196L210.954 165.186L209.537 169.398L207.83 168.809L207.078 170.968L208.777 171.553L201.47 195.106Z" fill="#F2DCCF"/>
<path d="M209.531 169.385L170.499 155.877L171.012 154.422L171.52 152.985L171.927 151.813C172.733 152.416 173.303 153.321 173.527 154.304C174.503 153.459 175.741 152.971 177.092 153.336C177.949 153.575 178.678 154.193 178.979 155.037C179.107 155.39 179.161 155.748 179.165 156.101C179.432 155.83 179.736 155.603 180.067 155.416C180.903 154.957 181.91 154.906 182.773 155.311C183.962 155.879 184.605 156.963 184.76 158.15C184.968 157.932 185.188 157.738 185.439 157.575C186.22 157.066 187.208 156.978 188.068 157.332C189.39 157.872 190.082 159.117 190.14 160.436C191.111 159.548 192.293 158.948 193.675 159.282C194.551 159.496 195.236 160.182 195.553 161.011C195.733 161.454 195.802 161.92 195.831 162.384C196.197 162.034 196.588 161.702 197.033 161.451C197.851 160.985 198.874 160.795 199.774 161.09C200.656 161.378 201.304 162.144 201.615 162.992C201.767 163.425 201.854 163.867 201.889 164.312C203 163.131 204.576 162.376 206.213 162.93C207.211 163.268 207.97 164.072 208.234 165.089C208.316 165.426 208.342 165.775 208.325 166.13C209.093 165.597 209.996 165.274 210.926 165.176L210.484 166.48L209.996 167.923L209.531 169.385Z" fill="white"/>
<path d="M209.819 169.235C209.763 169.402 209.592 169.54 209.379 169.468C206.503 168.525 203.614 167.557 200.8 166.614C199.32 166.113 197.837 165.621 196.348 165.117C192.797 163.914 189.23 162.696 185.698 161.468C180.688 159.731 175.602 157.946 170.575 156.14C170.454 156.1 170.371 156.01 170.35 155.889C170.323 155.756 170.383 155.611 170.482 155.532C170.572 155.449 170.689 155.437 170.809 155.478C173.633 156.485 176.503 157.509 179.333 158.498C184.326 160.251 189.4 162.011 194.413 163.708C199.413 165.412 204.524 167.123 209.617 168.796C209.728 168.833 209.787 168.905 209.823 168.979C209.845 169.069 209.847 169.152 209.819 169.235Z" fill="#54362A"/>
<path d="M208.763 171.806L208.76 171.815C208.707 171.972 208.552 172.095 208.339 172.023L208.33 172.02C205.479 170.972 202.628 169.924 199.835 168.916C194.857 167.117 189.792 165.33 184.792 163.595C179.792 161.86 174.681 160.119 169.613 158.433C169.493 158.393 169.41 158.303 169.385 158.192C169.358 158.059 169.405 157.92 169.508 157.831C169.598 157.748 169.718 157.727 169.838 157.767C172.681 158.72 175.569 159.688 178.405 160.659C183.415 162.365 188.476 164.131 193.473 165.906C198.461 167.677 203.541 169.511 208.552 171.363C208.765 171.435 208.82 171.639 208.763 171.806Z" fill="#54362A"/>
<path d="M181.287 174.432C181.609 174.18 181.304 173.53 181.258 173.422C180.499 171.948 181.126 170.16 180.803 168.586C180.607 167.643 180.086 166.838 179.292 166.291C178.445 165.715 177.437 165.467 176.447 165.286C175.28 165.077 174.065 164.923 173.117 164.158C172.757 163.913 172.431 163.689 172.198 163.888C171.925 164.116 172.096 164.586 172.19 164.948C172.463 165.937 172.532 167.012 172.527 167.97C172.512 169.171 172.791 170.266 173.49 171.245C174.159 172.193 175.202 172.918 176.328 173.186C177.568 173.482 179.159 173.35 180.241 174.202C180.644 174.534 181.017 174.619 181.287 174.432Z" fill="#C8E48B"/>
<path d="M183.373 180.903C183.366 180.499 182.672 180.326 182.555 180.307C180.926 180.002 179.912 178.401 178.473 177.687C177.617 177.263 176.648 177.172 175.735 177.461C174.764 177.771 173.949 178.413 173.195 179.086C172.311 179.869 171.43 180.736 170.256 181.008C170.256 181.008 170.256 181.008 170.246 181.005C169.829 181.142 169.448 181.261 169.469 181.567C169.482 181.922 169.954 182.082 170.305 182.232C171.254 182.625 172.141 183.235 172.897 183.832C173.829 184.58 174.871 185.036 176.078 185.094C177.236 185.146 178.451 184.784 179.356 184.06C180.354 183.274 181.228 181.94 182.57 181.601C183.059 181.467 183.359 181.218 183.373 180.903Z" fill="#C8E48B"/>
<path d="M176.633 154.749C175.702 154.423 175.201 155.872 176.135 156.189C177.057 156.511 177.555 155.071 176.633 154.749Z" fill="#FAC9E2"/>
<path d="M182.105 156.643C181.174 156.318 180.673 157.767 181.607 158.083C182.538 158.409 183.036 156.969 182.105 156.643Z" fill="#FAC9E2"/>
<path d="M187.622 158.553C186.691 158.227 186.19 159.677 187.124 159.993C188.046 160.315 188.544 158.875 187.622 158.553Z" fill="#FAC9E2"/>
<path d="M193.419 160.557C192.488 160.231 191.987 161.68 192.921 161.997C193.852 162.322 194.35 160.882 193.419 160.557Z" fill="#FAC9E2"/>
<path d="M199.223 162.564C198.292 162.238 197.791 163.688 198.725 164.004C199.656 164.33 200.154 162.89 199.223 162.564Z" fill="#FAC9E2"/>
<path d="M205.497 164.74C204.566 164.414 204.064 165.863 204.999 166.18C205.92 166.502 206.427 165.065 205.497 164.74Z" fill="#FAC9E2"/>
<path d="M210.026 167.924C209.126 167.598 209.611 166.195 210.515 166.481L210.026 167.924Z" fill="#FAC9E2"/>
<path d="M171.012 154.422L171.519 152.986C172.419 153.311 171.931 154.723 171.012 154.422Z" fill="#FAC9E2"/>
<path d="M200.963 174.321C198.858 174.237 197.002 172.897 194.853 173.004C194.602 173.013 194.376 173.132 194.264 173.341C194.202 173.403 194.156 173.48 194.118 173.56C193.409 175.259 193.427 177.183 194.108 178.888C194.129 178.947 194.172 179.002 194.218 179.049C194.273 179.191 194.386 179.312 194.581 179.378C195.9 179.773 197.233 179.338 198.321 178.562C199.514 177.718 200.317 176.443 201.319 175.401C201.67 175.035 201.534 174.339 200.963 174.321Z" fill="#C8E48B"/>
<path d="M194.586 175.069C195.266 173.608 195.281 171.953 194.057 170.239C192.551 168.141 190.086 167.626 187.838 168.267C186.174 166.301 183.698 165.122 181.059 166.002C179.117 166.654 177.867 168.335 177.707 170.209C175.384 170.948 173.568 173.055 173.551 175.782C173.532 178.395 175.095 180.358 177.187 181.211C177.052 184.166 178.82 187.012 182.059 187.738C184.896 188.369 187.416 187.109 188.779 184.971C191.081 185.236 193.439 184.302 194.808 182.177C196.261 179.895 196.052 177.133 194.586 175.069Z" fill="#FAC9E2"/>
<path d="M183.703 170.28C182.529 169.15 180.741 169.164 179.44 170.053C177.99 171.047 177.382 172.811 177.312 174.509C177.295 174.895 177.909 174.938 177.917 174.549C177.968 173.091 178.432 171.599 179.613 170.669C180.651 169.855 182.236 169.711 183.232 170.667C183.521 170.94 183.983 170.55 183.703 170.28Z" fill="#54362A"/>
<path d="M191.013 180.84C191.259 179.686 190.749 178.544 190.22 177.55C190.036 177.21 189.485 177.466 189.675 177.819C190.171 178.73 190.706 179.829 190.389 180.887C190.103 181.852 189.161 182.533 188.175 182.643C187.051 182.767 185.93 182.181 185.23 181.326C184.552 180.498 184.229 179.44 184.163 178.386C184.167 178.377 184.179 178.371 184.179 178.371C184.421 178.082 183.957 177.749 183.705 178.004C183.634 178.032 183.588 178.078 183.559 178.161C182.622 179.195 181.072 179.66 179.798 178.95C179.166 178.591 178.691 178.018 178.555 177.291C178.426 176.608 178.608 175.855 179.099 175.351C179.369 175.071 178.97 174.606 178.7 174.886C177.396 176.239 177.799 178.458 179.375 179.405C180.773 180.239 182.433 179.935 183.605 178.94C183.868 180.72 184.836 182.399 186.617 183.043C188.383 183.672 190.599 182.793 191.013 180.84Z" fill="#54362A"/>
<path d="M192.281 171.618C190.985 170.024 188.784 169.402 186.869 170.125C185.829 170.515 184.933 171.274 184.379 172.241C184.183 172.577 184.684 172.922 184.88 172.586C186.03 170.594 188.615 169.809 190.619 170.983C192.701 172.203 193.32 174.94 191.992 176.944C191.778 177.273 192.279 177.619 192.494 177.289C193.629 175.58 193.582 173.224 192.281 171.618Z" fill="#54362A"/>
<path d="M189.234 173.948C188.845 173.27 188.094 172.809 187.306 172.852C186.92 172.865 186.877 173.48 187.266 173.457C188.44 173.401 189.292 174.659 188.614 175.687C187.967 176.685 186.402 176.495 186.018 175.344C185.927 175.066 185.554 175.012 185.435 175.301C185.048 176.232 183.909 176.61 183.057 176.053C182.213 175.499 182.096 174.294 182.803 173.575C183.073 173.295 182.683 172.833 182.404 173.11C181.427 174.109 181.524 175.771 182.712 176.555C183.721 177.227 185.01 176.921 185.706 176.022C186.485 177.132 188.189 177.306 189.072 176.1C189.529 175.481 189.619 174.635 189.234 173.948Z" fill="#54362A"/>
<path d="M186.054 183.977C184.773 185.079 182.873 185.364 181.342 184.618C179.845 183.895 178.889 182.241 178.944 180.589C178.952 180.2 178.347 180.16 178.339 180.549C178.277 182.436 179.336 184.3 181.049 185.148C182.796 186.018 184.983 185.707 186.453 184.442C186.748 184.181 186.349 183.715 186.054 183.977Z" fill="#54362A"/>
<path d="M222.87 6.46678L220.27 14.3738L220.022 15.1264L219.765 15.9171L219.736 15.9838L219.594 16.4125L218.384 20.0897L214.784 31.0071L214.536 31.7787L214.003 33.3792L213.936 33.5983L213.26 35.6274L212.27 38.6473L211.879 39.8191L211.06 42.3246L210.889 42.839L210.727 43.3153L203.755 64.4832L203.498 65.2549L202.489 68.3319L202.394 68.6177L202.232 69.1131L202.203 69.1988L202.136 69.3989L201.755 69.5418L197.717 71.1041L197.613 71.1518L197.508 71.59L197.136 73.2095L197.06 73.5239L197.022 73.7144L197.003 73.8001L192.203 72.6951L192.241 72.5331L192.308 72.2283L192.355 72.0282L192.708 70.4849L192.813 70.0467L192.717 69.9514L188.917 66.4076L188.736 66.2361L188.651 66.1599L188.708 65.8074L188.736 65.6359L188.841 64.9405L188.851 64.8547L192.136 43.9631L192.527 41.4195L194.013 31.9978L194.127 31.2357L197.298 11.0109L197.308 10.9728L197.384 10.4584L198.879 0.941406L200.317 1.27483L200.813 1.38915L202.813 1.85595L203.317 1.97027L204.87 2.32275L205.374 2.43707L207.527 2.93245L208.032 3.05629L209.975 3.50404L210.479 3.61835L212.327 4.03752L212.832 4.16136L214.965 4.64722L215.47 4.77106L217.708 5.28549L218.213 5.39981L220.241 5.86661L220.746 5.98093L222.87 6.46678Z" fill="#F2DCCF"/>
<path d="M219.736 15.9834L219.594 16.4121L218.384 20.0893L215.117 29.9969L214.784 31.0067L214.536 31.7688L214.155 32.9406L214.013 33.3788L213.946 33.5884L213.279 35.627L213.194 35.8842L213.022 36.3891L212.279 38.6469L212.06 39.3138L211.889 39.8187L211.06 42.3242L210.889 42.8386L210.736 43.3149L210.07 45.3441L203.765 64.4828L203.508 65.2545L202.489 68.3315L202.394 68.6173L202.232 69.1127L202.203 69.1984L202.136 69.3985L201.755 69.5509L197.717 71.1133L197.613 71.1514L197.508 71.5896L197.136 73.2091L197.06 73.5235L197.013 73.714L196.994 73.7997L192.203 72.6947L192.241 72.5327L192.308 72.2279L192.355 72.0278L192.708 70.4845L192.813 70.0368L192.717 69.951L188.917 66.3976L188.736 66.2262L188.651 66.15L188.708 65.7975L188.736 65.6355L188.841 64.9401L188.851 64.8544L192.127 43.9627L192.527 41.4191L192.613 40.8952L193.013 38.3516L193.089 37.8467L193.555 34.884L193.632 34.3695L194.003 31.9879L194.032 31.826L194.07 31.5687L194.127 31.2258L194.536 28.5965L197.298 11.001C199.908 11.7155 202.536 12.3824 205.165 13.0016C209.994 14.1543 214.851 15.145 219.736 15.9834Z" fill="#ADDEEA"/>
<path d="M220.803 5.95201L217.879 15.4499C218.679 15.6309 219.412 15.7929 220.098 15.9453C220.203 15.9644 220.279 16.031 220.308 16.1263C220.346 16.2311 220.308 16.3645 220.231 16.4502C220.174 16.5169 220.098 16.5455 220.012 16.5455C219.993 16.5455 219.965 16.5455 219.946 16.5359C218.25 16.1644 216.565 15.7834 214.917 15.4118C212.708 14.9069 210.355 14.3449 207.727 13.6971C207.65 13.7066 207.565 13.6875 207.507 13.6399C203.984 12.773 200.546 11.887 197.288 11.0201C197.184 10.9915 197.107 10.9153 197.079 10.82C197.05 10.7057 197.079 10.5819 197.165 10.4961C197.241 10.4199 197.336 10.4009 197.45 10.4295C197.669 10.4866 197.888 10.5438 198.107 10.6009C198.269 10.639 198.431 10.6867 198.584 10.7248C198.584 10.7153 198.584 10.7153 198.584 10.7057L200.269 1.32213C200.288 1.21734 200.355 1.14112 200.441 1.10302C200.546 1.06491 200.679 1.09349 200.765 1.1697C200.85 1.24591 200.888 1.34118 200.869 1.4555L199.184 10.8391C199.184 10.8582 199.174 10.8677 199.174 10.8772C199.441 10.9439 199.698 11.0106 199.965 11.0868C200.193 11.144 200.422 11.2011 200.65 11.2678L202.784 1.84608C202.822 1.65555 203.003 1.58887 203.146 1.62698C203.298 1.66508 203.422 1.79845 203.384 1.98898L201.25 11.4297L201.622 11.525C201.898 11.6012 202.165 11.6679 202.441 11.7346C202.603 11.7727 202.765 11.8108 202.917 11.8584C203.031 11.887 203.146 11.9156 203.26 11.9442L204.841 2.32241C204.869 2.13188 205.031 2.06519 205.174 2.09377C205.327 2.12235 205.479 2.25572 205.441 2.45578L203.86 12.0966C204.127 12.1633 204.384 12.23 204.641 12.2967C204.812 12.3348 204.984 12.3824 205.146 12.4205C205.146 12.4014 205.146 12.3919 205.155 12.3729L207.507 2.88447C207.555 2.69394 207.736 2.62726 207.879 2.66536C208.022 2.70347 208.146 2.83684 208.098 3.02737L205.746 12.5158C205.736 12.5348 205.736 12.5539 205.727 12.5729C206.127 12.6777 206.527 12.773 206.927 12.8682L207.479 13.0016L209.965 3.40843C210.012 3.2179 210.193 3.15121 210.346 3.18932C210.488 3.22743 210.612 3.35127 210.565 3.5418L208.079 13.1445C208.622 13.2779 209.165 13.4113 209.708 13.5446L209.984 13.6113L212.298 3.98955C212.327 3.88476 212.393 3.79902 212.498 3.77044C212.603 3.74186 212.736 3.77044 212.822 3.84665C212.898 3.92286 212.927 4.01813 212.898 4.12292L210.584 13.7447C211.022 13.8495 211.469 13.9543 211.917 14.0591C212.155 14.1162 212.403 14.1734 212.641 14.2305C212.641 14.221 212.641 14.202 212.65 14.1829C213.555 11.0201 214.327 7.77157 214.946 4.54208C214.965 4.43729 215.031 4.36108 215.127 4.32298C215.231 4.28487 215.365 4.31345 215.45 4.38966C215.536 4.46587 215.565 4.56114 215.546 4.67545C214.927 7.91446 214.146 11.1535 213.241 14.3258C213.241 14.3449 213.231 14.3544 213.222 14.3639C213.66 14.4687 214.098 14.5735 214.546 14.6688L215.06 14.7831C215.06 14.7545 215.06 14.7164 215.069 14.6878L217.717 5.07557C217.746 4.97078 217.822 4.88504 217.927 4.86598C218.041 4.8374 218.165 4.86599 218.25 4.95173C218.317 5.02794 218.346 5.1232 218.317 5.22799L215.669 14.8402C215.66 14.8688 215.65 14.9069 215.631 14.926C216.184 15.0593 216.746 15.1832 217.298 15.307L220.222 5.79958C220.26 5.68527 220.336 5.60905 220.45 5.59C220.565 5.56142 220.688 5.59952 220.765 5.67574C220.822 5.75195 220.841 5.84722 220.803 5.95201Z" fill="#020203"/>
<path d="M202.374 69.7803C202.317 69.8565 202.231 69.8946 202.136 69.8946C202.117 69.8946 202.089 69.8946 202.07 69.8851C197.536 69.0467 192.993 67.9702 188.574 66.6746C188.365 66.6079 188.298 66.4079 188.346 66.2459C188.384 66.103 188.527 65.9792 188.727 66.0363C193.146 67.332 197.679 68.418 202.203 69.2468C202.317 69.2658 202.403 69.3325 202.441 69.4373C202.479 69.5421 202.45 69.685 202.374 69.7803Z" fill="#020203"/>
<path d="M198.26 71.4946C198.231 71.6375 198.117 71.7518 197.955 71.7518C197.927 71.7518 197.908 71.7518 197.879 71.7423L192.565 70.5228C192.451 70.4943 192.365 70.418 192.327 70.3133C192.289 70.1989 192.327 70.056 192.403 69.9703C192.479 69.8846 192.593 69.856 192.708 69.8846L198.012 71.104C198.222 71.1516 198.298 71.3421 198.26 71.4946Z" fill="#020203"/>
<path d="M198.632 73.9525C198.613 74.0001 198.603 74.0573 198.584 74.1049C198.584 74.1049 198.584 74.1049 198.575 74.1049C198.06 73.9811 197.536 73.8477 197.022 73.7143L197.003 73.8001L192.203 72.695L192.241 72.5331C191.698 72.3997 191.146 72.2663 190.603 72.1329C190.575 72.1234 190.546 72.1139 190.517 72.0948C190.536 71.9805 190.556 71.8757 190.575 71.7614C191.156 71.9138 191.727 72.0758 192.298 72.2282C193.889 72.6569 195.47 73.0951 197.051 73.5238C197.584 73.6667 198.108 73.8096 198.632 73.9525Z" fill="#FAC9E2"/>
<path d="M198.946 73.9243C198.917 74.0577 198.803 74.1815 198.641 74.1815C198.622 74.1815 198.593 74.1815 198.565 74.172H198.555L192.203 72.6001C191.66 72.4667 191.127 72.3334 190.584 72.2C190.546 72.1905 190.508 72.1714 190.479 72.1524C190.327 72.0571 190.308 71.8666 190.365 71.7332C190.431 71.5808 190.574 71.5141 190.736 71.5522L192.365 71.9523H192.431V71.9714C194.012 72.362 195.584 72.7525 197.155 73.1431L198.708 73.5337C198.908 73.5813 198.984 73.7719 198.946 73.9243Z" fill="#020203"/>
<path d="M203.651 25.2916C204.451 25.6727 205.327 25.9109 206.184 26.1204C206.584 26.2157 206.993 26.3014 207.403 26.3777C209.527 25.6155 210.336 22.9005 209.184 21.0619C209.146 21.0428 209.098 21.0333 209.06 21.0142C207.508 20.4331 205.927 19.8711 204.289 19.6424C202.336 20.5284 201.631 23.1291 202.774 24.8915C203.07 25.0058 203.355 25.1487 203.651 25.2916Z" fill="white"/>
<path d="M206.422 20.9569C203.85 20.3663 202.926 24.3579 205.498 24.9485C208.069 25.5487 208.993 21.5571 206.422 20.9569Z" fill="#101820"/>
<path d="M214.908 21.9095C214.784 21.7857 214.593 21.7952 214.451 21.919C213.841 22.4335 213.174 22.9098 212.47 23.3385C211.946 22.7288 211.355 22.1763 210.717 21.6809C210.717 21.6809 210.717 21.6714 210.727 21.6714L212.803 19.385C212.946 19.223 212.898 19.0325 212.774 18.9182C212.651 18.8134 212.46 18.7848 212.317 18.9373L210.241 21.2236C210.222 21.2427 210.203 21.2712 210.193 21.2998C209.536 20.8521 208.851 20.4805 208.146 20.1852C208.165 20.1566 208.174 20.1281 208.184 20.0995L209.165 17.1939C209.193 17.1177 209.184 17.0415 209.136 16.9653C209.089 16.8795 209.003 16.8128 208.917 16.7938C208.746 16.7557 208.584 16.8509 208.527 17.032L207.536 19.9375C207.536 19.9471 207.536 19.9471 207.536 19.9471C206.803 19.6898 206.041 19.4993 205.289 19.3945L205.841 16.4223C205.879 16.2127 205.727 16.0602 205.565 16.0317C205.412 16.0031 205.232 16.0698 205.193 16.2794L204.632 19.3183C203.955 19.2612 203.279 19.2707 202.632 19.3278L202.146 16.5461C202.136 16.4699 202.089 16.4032 202.012 16.3556C201.927 16.3079 201.822 16.2889 201.727 16.3175C201.555 16.3651 201.47 16.527 201.508 16.7176L201.974 19.3945C201.412 19.4803 200.851 19.6136 200.298 19.7851L199.365 17.7179C199.289 17.5369 199.117 17.4606 198.955 17.5083C198.87 17.5369 198.784 17.6131 198.746 17.6988C198.708 17.775 198.708 17.8608 198.746 17.9274L199.679 19.9947C199.346 20.1185 199.031 20.2519 198.736 20.3948C198.708 20.4043 198.679 20.4234 198.651 20.452C198.555 20.4805 198.47 20.5568 198.422 20.652C198.374 20.7473 198.384 20.8521 198.431 20.9473C199.46 22.9098 201.136 24.5198 203.146 25.482C204.508 26.1298 206.012 26.4632 207.546 26.4632C208.251 26.4632 208.965 26.387 209.66 26.2441C211.041 25.9583 212.136 25.5105 213.108 24.8342C213.184 24.7865 213.232 24.6913 213.241 24.5769C213.26 24.4245 213.222 24.2721 213.136 24.1673C213.136 24.1673 213.06 24.0625 212.993 23.9672C212.965 23.9291 212.936 23.891 212.908 23.8529C212.898 23.8434 212.898 23.8434 212.889 23.8339C213.593 23.3957 214.279 22.9003 214.927 22.3573C214.984 22.3096 215.022 22.2334 215.022 22.1477V22.1382C215.012 22.0715 214.965 21.9667 214.908 21.9095ZM212.517 24.4626C211.022 25.3772 209.355 25.844 207.555 25.844C207.308 25.844 207.06 25.8344 206.812 25.8154C204.746 25.6725 202.727 24.8056 201.136 23.3861C200.355 22.6907 199.698 21.8714 199.174 20.9473C202.708 19.3088 206.993 19.728 210.117 22.0334C211.003 22.6907 211.784 23.4719 212.432 24.3578C212.46 24.3959 212.489 24.434 212.517 24.4626Z" fill="#020203"/>
<path d="M198.584 48.2494C198.213 48.1542 197.851 48.0589 197.479 47.9732L197.727 46.9729L198.298 47.1063C198.432 47.1348 198.584 47.0491 198.613 46.9157C198.641 46.7728 198.555 46.6395 198.422 46.6014L197.86 46.468L198.079 45.582L199.098 45.8202C199.232 45.8488 199.384 45.763 199.413 45.6296C199.441 45.4867 199.355 45.3534 199.222 45.3153C198.822 45.22 198.422 45.1247 198.013 45.039C197.879 44.9818 197.689 45.0104 197.641 45.201L196.917 48.097C196.889 48.1923 196.927 48.2685 196.984 48.3256C197.022 48.3733 197.07 48.4114 197.127 48.4209C197.574 48.5352 198.022 48.6495 198.47 48.7639C198.603 48.802 198.755 48.7067 198.784 48.5733C198.813 48.4209 198.727 48.2875 198.584 48.2494Z" fill="#020203"/>
<path d="M203.299 49.3356C202.927 49.2403 202.565 49.145 202.194 49.0593L202.442 48.059L203.013 48.1924C203.146 48.221 203.299 48.1352 203.327 48.0018C203.356 47.8589 203.27 47.7256 203.137 47.6875L202.575 47.5541L202.794 46.6681L203.813 46.9063C203.946 46.9349 204.099 46.8491 204.127 46.7158C204.156 46.5729 204.07 46.4395 203.937 46.4014C203.537 46.3061 203.137 46.2109 202.727 46.1251C202.594 46.068 202.404 46.0965 202.356 46.2871L201.632 49.1831C201.604 49.2784 201.642 49.3546 201.699 49.4118C201.737 49.4594 201.784 49.4975 201.842 49.507C202.289 49.6214 202.737 49.7357 203.184 49.85C203.318 49.8881 203.47 49.7928 203.499 49.6595C203.518 49.507 203.442 49.3737 203.299 49.3356Z" fill="#020203"/>
<path d="M199.698 53.4511C199.327 53.3558 198.965 53.2606 198.594 53.1748L198.841 52.1745L199.413 52.3079C199.546 52.3365 199.698 52.2508 199.727 52.1174C199.756 51.9745 199.67 51.8411 199.536 51.803L198.975 51.6696L199.194 50.7837L200.213 51.0218C200.346 51.0504 200.498 50.9647 200.527 50.8313C200.556 50.6884 200.47 50.555 200.336 50.5169C199.936 50.4217 199.536 50.3264 199.127 50.2407C198.994 50.1835 198.803 50.2121 198.756 50.4026L198.032 53.2987C198.003 53.3939 198.041 53.4702 198.098 53.5273C198.136 53.5749 198.184 53.613 198.241 53.6226C198.689 53.7369 199.136 53.8512 199.584 53.9655C199.717 54.0036 199.87 53.9084 199.898 53.775C199.917 53.6226 199.841 53.4892 199.698 53.4511Z" fill="#020203"/>
<path d="M201.841 45.9153C201.727 45.82 201.584 45.8295 201.479 45.9248C201.279 46.1153 201.089 46.3058 200.889 46.4964C200.794 46.5916 200.698 46.6774 200.603 46.7726C200.594 46.7822 200.584 46.7917 200.575 46.8012V46.7917C200.546 46.6679 200.518 46.5535 200.489 46.4297L200.327 45.7152C200.298 45.5818 200.127 45.4961 200.003 45.5437C199.86 45.5914 199.803 45.7247 199.832 45.8676C199.898 46.1629 199.965 46.4487 200.032 46.7441L200.127 47.1442C200.146 47.2109 200.156 47.268 200.184 47.3347C200.07 47.8206 199.946 48.3064 199.832 48.7827C199.803 48.9161 199.889 49.0685 200.022 49.0971C200.165 49.1257 200.298 49.04 200.337 48.9066C200.46 48.4112 200.575 47.9063 200.698 47.4109C200.775 47.3538 200.841 47.2775 200.898 47.2109C201.003 47.1061 201.108 47.0108 201.213 46.906C201.432 46.6964 201.641 46.4868 201.86 46.2868C201.946 46.182 201.937 46.001 201.841 45.9153Z" fill="#020203"/>
<path d="M195.375 51.8318C195.308 51.7175 195.127 51.6698 195.022 51.746C194.727 51.9556 194.375 52.1176 194.003 52.0414C193.622 51.9651 193.403 51.6793 193.337 51.3173C193.213 50.7076 193.537 49.936 194.203 49.8217C194.518 49.7645 194.889 49.8503 195.089 50.117C195.175 50.2313 195.318 50.2789 195.451 50.2027C195.565 50.1361 195.613 49.955 195.537 49.8503C195.251 49.4692 194.813 49.2787 194.346 49.2977C193.879 49.3168 193.451 49.5454 193.175 49.9265C192.613 50.6886 192.651 52.0795 193.641 52.4796C194.213 52.7082 194.822 52.5558 195.308 52.2033C195.403 52.0985 195.451 51.9556 195.375 51.8318Z" fill="#020203"/>
<path d="M197.508 53.1459C197.317 52.641 197.127 52.1361 196.937 51.6312C196.984 51.6312 197.032 51.6312 197.079 51.6217C197.375 51.5741 197.613 51.4312 197.784 51.1835C197.946 50.9548 197.984 50.6595 197.937 50.3928C197.889 50.1165 197.717 49.8974 197.489 49.745C197.232 49.583 196.898 49.5354 196.613 49.6307C196.527 49.6592 196.46 49.745 196.441 49.8307C196.422 49.8593 196.403 49.8879 196.394 49.9355L195.66 52.9554C195.584 53.2793 196.089 53.3936 196.165 53.0697C196.27 52.6506 196.365 52.2409 196.47 51.8218C196.66 52.3076 196.841 52.803 197.022 53.2888C197.07 53.4127 197.213 53.508 197.346 53.4603C197.46 53.4317 197.556 53.2888 197.508 53.1459ZM196.87 50.107C196.879 50.107 196.889 50.107 196.908 50.107C196.917 50.107 196.937 50.107 196.946 50.107C196.946 50.107 196.946 50.107 196.956 50.107C196.975 50.1165 197.003 50.1165 197.013 50.1165C197.032 50.1165 197.06 50.126 197.079 50.1356C197.089 50.1356 197.127 50.1546 197.127 50.1546C197.137 50.1641 197.156 50.1641 197.165 50.1737C197.184 50.1832 197.203 50.1927 197.222 50.2022C197.222 50.2022 197.232 50.2118 197.241 50.2118C197.26 50.2213 197.346 50.2975 197.346 50.307C197.346 50.307 197.317 50.2689 197.337 50.2975C197.346 50.307 197.346 50.3166 197.356 50.3166C197.365 50.3356 197.384 50.3547 197.394 50.3737C197.394 50.3833 197.403 50.3833 197.403 50.3928C197.403 50.3928 197.403 50.3928 197.403 50.4023C197.413 50.4309 197.422 50.4499 197.422 50.4785C197.422 50.488 197.432 50.5452 197.432 50.5261C197.432 50.5357 197.432 50.5643 197.432 50.5643C197.432 50.5833 197.432 50.6119 197.432 50.6309C197.432 50.6405 197.432 50.65 197.432 50.6595C197.422 50.7072 197.413 50.7453 197.403 50.7929C197.403 50.8024 197.403 50.8024 197.403 50.8119C197.394 50.831 197.384 50.8596 197.375 50.8786C197.375 50.8786 197.356 50.9167 197.337 50.9358C197.337 50.9453 197.327 50.9453 197.327 50.9548C197.308 50.9739 197.289 50.9929 197.27 51.012C197.26 51.0215 197.26 51.0215 197.251 51.0311C197.232 51.0406 197.213 51.0596 197.194 51.0692C197.184 51.0692 197.175 51.0787 197.175 51.0787C197.137 51.0977 197.089 51.1073 197.051 51.1168C197.051 51.1168 197.022 51.1263 197.013 51.1263C196.984 51.1263 196.965 51.1263 196.937 51.1358C196.927 51.1358 196.908 51.1358 196.889 51.1358C196.889 51.1358 196.889 51.1358 196.879 51.1358C196.86 51.1358 196.851 51.1358 196.832 51.1263C196.803 51.1263 196.784 51.1168 196.756 51.1073C196.756 51.1073 196.746 51.1073 196.737 51.0977C196.708 51.0787 196.679 51.0596 196.641 51.0406L196.87 50.107Z" fill="#020203"/>
<path d="M202.432 54.2792C202.489 53.2503 202.498 52.2215 202.451 51.1926C202.441 51.0497 202.346 50.9735 202.241 50.964C202.146 50.9259 202.013 50.9354 201.946 51.0211C201.308 51.8785 200.756 52.7931 200.289 53.7648C200.146 54.0696 200.603 54.3173 200.746 54.0125C200.813 53.8791 200.879 53.7457 200.946 53.6028C201.27 53.6695 201.603 53.7362 201.927 53.8029C201.917 53.9743 201.918 54.1363 201.908 54.3078C201.898 54.4507 202.051 54.565 202.175 54.5555C202.337 54.5364 202.422 54.4126 202.432 54.2792ZM201.203 53.117C201.432 52.6978 201.689 52.2882 201.956 51.888C201.965 52.3453 201.965 52.8121 201.956 53.2694C201.708 53.2122 201.46 53.1646 201.203 53.117Z" fill="#020203"/>
<path d="M205.775 51.8981C205.794 51.7457 205.699 51.6409 205.575 51.6028C205.47 51.5457 205.337 51.5552 205.261 51.6409C204.965 52.0029 204.67 52.3745 204.375 52.7365C204.28 52.3173 204.184 51.8981 204.089 51.479C204.08 51.4313 204.042 51.3932 204.003 51.3551C203.908 51.1741 203.575 51.1456 203.527 51.4123L202.851 54.5179C202.784 54.8418 203.289 54.9657 203.356 54.6322L203.813 52.5459C203.88 52.8317 203.946 53.108 204.003 53.3938C204.042 53.5748 204.318 53.6415 204.442 53.4986C204.67 53.2128 204.908 52.9175 205.146 52.6317C205.013 53.4319 204.842 54.2226 204.632 55.0038C204.546 55.3277 205.051 55.442 205.137 55.1181C205.413 54.0511 205.622 52.9842 205.775 51.8981Z" fill="#020203"/>
<path d="M203.107 58.7192C203.05 58.7763 202.983 58.8049 202.907 58.8049C202.888 58.8049 202.869 58.8049 202.84 58.7954L192.955 56.5185C192.859 56.4995 192.783 56.4328 192.755 56.328C192.717 56.2042 192.755 56.0517 192.84 55.947C192.907 55.8707 193.002 55.8422 193.098 55.8612L202.983 58.138C203.079 58.1571 203.155 58.2238 203.183 58.3286C203.231 58.4619 203.193 58.6239 203.107 58.7192Z" fill="#020203"/>
<path d="M202.679 60.9293C202.621 60.9865 202.555 61.015 202.479 61.015C202.459 61.015 202.431 61.015 202.412 61.0055L192.526 58.7287C192.431 58.7096 192.355 58.6429 192.326 58.5382C192.288 58.4143 192.326 58.2619 192.412 58.1666C192.478 58.0904 192.574 58.0618 192.669 58.0809L202.555 60.3577C202.65 60.3768 202.726 60.4435 202.755 60.5482C202.802 60.6816 202.764 60.834 202.679 60.9293Z" fill="#020203"/>
<path d="M198.773 74.2084C197.239 79.3337 194.954 84.7066 192.154 89.327C192.001 89.5747 191.849 89.8319 191.687 90.0796C191.63 90.1748 191.563 90.2701 191.506 90.3654L189.354 89.9938C189.354 89.9462 189.354 89.889 189.344 89.8414C189.335 89.5842 189.325 89.327 189.316 89.0698C189.135 83.5158 189.687 77.6475 190.696 72.1983C190.716 72.2174 190.744 72.2269 190.782 72.2364C191.325 72.3698 191.868 72.5032 192.42 72.6366L192.382 72.7985L197.182 73.9036L197.201 73.8178C197.725 73.9512 198.249 74.0751 198.773 74.2084C198.773 74.2084 198.763 74.2084 198.773 74.2084Z" fill="#ACB2E6"/>
<path d="M156.524 112.608C156.267 113.503 155.94 114.374 155.551 115.217C155.319 115.721 154.983 116.202 154.814 116.724C154.679 117.154 154.54 117.487 154.268 117.859C154.106 118.076 153.95 118.288 153.793 118.5C153.209 119.272 152.596 120.016 151.955 120.742C151.504 121.245 151.042 121.737 150.562 122.223C149.933 122.857 149.28 123.468 148.605 124.056C148.576 124.085 148.542 124.108 148.507 124.142C147.78 124.759 147.001 125.3 146.189 125.807C145.514 126.223 144.8 126.564 144.063 126.836C142.941 127.249 141.756 127.495 140.554 127.598C139.203 127.723 137.836 127.681 136.521 127.507C134.466 127.243 132.383 126.663 130.758 125.379C130.655 125.298 130.558 125.211 130.46 125.124C128.813 123.667 127.887 121.565 127.583 119.34C127.417 118.121 127.435 116.868 127.619 115.669C127.631 115.6 127.643 115.531 127.654 115.462C127.85 114.297 128.178 113.161 128.591 112.054C129.395 109.898 130.532 107.847 131.646 105.831C132.463 104.359 133.436 102.835 134.547 101.439C135.68 100.009 136.957 98.7119 138.37 97.7255C138.721 97.4804 139.09 97.2411 139.471 97.0248C140.623 96.3531 141.878 95.8427 143.161 95.5337C144.749 95.1516 146.399 95.0744 148.006 95.4049C148.063 95.4167 148.126 95.4342 148.184 95.446C149.108 95.6522 149.996 95.996 150.821 96.4486C151.807 96.9826 152.7 97.6654 153.494 98.4684C154.009 98.9883 154.471 99.5481 154.893 100.148C155.264 100.673 155.589 101.232 155.873 101.808C156.117 102.309 156.333 102.828 156.509 103.363C157.023 104.911 157.239 106.527 157.214 108.153C157.189 109.641 156.945 111.151 156.524 112.608Z" fill="#FFDD92"/>
<path d="M140.222 101.78C139.726 102.191 139.342 101.954 138.901 101.67C138.494 101.409 137.972 101.216 137.488 101.467C137.247 101.592 137.096 101.832 136.854 101.957C135.984 102.395 135.066 102.114 134.558 101.428C135.692 99.9974 136.968 98.7001 138.381 97.7138C138.733 97.4686 139.102 97.2293 139.482 97.013C139.865 97.3541 140.191 97.7868 140.379 98.1268C140.726 98.755 140.878 99.2557 140.8 99.985C140.734 100.553 140.689 101.398 140.222 101.78Z" fill="#ADDEEA"/>
<path d="M138.223 103.815C137.989 103.578 137.696 103.502 137.397 103.523C136.713 103.491 136.246 103.977 135.887 104.492C135.655 104.835 135.584 105.249 135.841 105.601C136.103 105.958 136.511 105.966 136.913 105.98C137.218 105.987 137.58 105.972 137.891 105.755C138.185 105.556 138.497 105.236 138.591 104.88C138.702 104.484 138.503 104.098 138.223 103.815Z" fill="#ADDEEA"/>
<path d="M135.464 110.718C135.537 109.982 135.304 109.458 134.72 109.03C134.074 108.561 133.923 107.762 133.091 107.556C133.073 107.55 133.056 107.556 133.039 107.55C132.873 107.486 132.689 107.473 132.487 107.547C131.946 107.739 131.77 108.451 131.572 108.921C131.253 109.66 131.323 110.391 131.907 110.957C132.701 111.725 135.312 112.377 135.464 110.718Z" fill="#ADDEEA"/>
<path d="M141.554 109.734C141.09 109.473 140.653 109.551 140.147 109.56C139.854 109.564 139.555 109.539 139.257 109.515C139.079 109.485 138.906 109.461 138.74 109.455C138.7 109.449 138.659 109.443 138.608 109.448C137.625 109.46 137.105 110.043 136.957 110.945C136.862 111.519 136.737 112.271 137.223 112.704C137.933 113.34 138.581 112.482 139.259 112.302C140.036 112.093 141.162 112.18 141.78 111.603C142.42 111.014 142.281 110.146 141.554 109.734Z" fill="#ADDEEA"/>
<path d="M146.997 103.742C147.007 103.024 146.895 102.415 147.088 101.674C147.253 101.055 147.716 100.402 147.679 99.7299C147.642 99.0459 146.956 98.3527 146.446 98.1259C146.102 97.9746 145.82 98.0363 145.612 98.219C144.691 98.6737 143.566 99.4432 143.148 100.372C142.642 101.489 142.528 102.552 143.287 103.55C143.823 104.265 144.747 105.638 145.804 105.552C146.638 105.481 146.988 104.449 146.997 103.742Z" fill="#ADDEEA"/>
<path d="M129.985 114.664C129.638 115.179 129.005 115.222 128.459 115.386C128.182 115.465 127.912 115.492 127.654 115.462C127.849 114.296 128.177 113.161 128.591 112.054C129.28 112.115 129.911 112.291 130.183 113.074C130.358 113.563 130.28 114.235 129.985 114.664Z" fill="#ADDEEA"/>
<path d="M135.874 117.069C135.688 116.315 135.544 115.234 134.88 114.713C134.835 114.61 134.761 114.512 134.641 114.425C134.446 114.286 134.199 114.256 133.963 114.272C133.63 114.304 133.308 114.395 133.077 114.6C132.91 114.731 132.892 114.772 132.76 114.846C132.685 114.885 132.621 114.948 132.581 115.023C132.575 115.028 132.563 115.04 132.557 115.046C132.217 115.406 132.185 115.928 132.068 116.387C131.904 117.03 131.584 117.758 132.046 118.341C132.52 118.935 133.387 119.118 133.936 119.638C134.496 120.181 135.133 120.42 135.602 119.601C136.048 118.839 136.076 117.897 135.874 117.069Z" fill="#ADDEEA"/>
<path d="M144.056 118.188C142.995 117.671 141.657 117.508 140.756 118.4C139.977 119.171 138.724 120.308 139.39 121.512C139.447 121.616 139.516 121.685 139.596 121.732C139.722 121.859 139.899 121.946 140.078 121.918C140.193 121.896 140.308 121.873 140.417 121.845C140.744 121.887 141.084 121.803 141.458 121.638C142.138 121.343 142.742 121.099 143.456 120.908C144.543 120.609 145.328 118.804 144.056 118.188Z" fill="#ADDEEA"/>
<path d="M150.06 111.55C150.142 110.177 148.606 109.502 147.58 109.008C147.574 109.002 147.568 109.008 147.562 109.002C147.293 108.869 146.989 108.815 146.678 108.825C145.719 108.883 145.28 109.364 145.126 110.144C145.109 110.184 145.097 110.219 145.08 110.259C144.962 110.706 144.862 111.148 144.711 111.584C144.518 112.14 144.183 112.575 143.922 113.097C143.916 113.102 143.916 113.114 143.91 113.12C143.441 113.858 143.287 114.685 144.313 115.202C145.534 115.812 146.526 115.024 147.5 114.357C148.538 113.627 149.978 113.015 150.06 111.55Z" fill="#ADDEEA"/>
<path d="M148.189 95.4403C148.005 95.5427 147.878 95.6225 147.693 95.8628C147.531 96.0688 147.38 96.2978 147.19 96.4748C146.826 96.8119 146.313 97.0791 145.819 97.0994C144.635 97.162 144.008 96.1588 143.167 95.528C144.755 95.1459 146.404 95.0686 148.011 95.3991C148.069 95.4109 148.132 95.4285 148.189 95.4403Z" fill="#ADDEEA"/>
<path d="M153.506 98.4564C153.061 99.0114 152.541 99.5027 151.942 99.9016C151.394 100.272 150.546 100.836 149.905 100.396C149.258 99.9617 149.482 98.9172 149.686 98.3036C149.925 97.5981 150.468 97.0725 150.833 96.4367C151.807 96.9706 152.712 97.6535 153.506 98.4564Z" fill="#ADDEEA"/>
<path d="M155.879 101.802C155.694 102.065 155.451 102.305 155.191 102.551C154.62 103.094 153.889 103.176 153.242 102.73C152.63 102.307 152.341 101.415 153.091 100.971C153.206 100.903 153.321 100.857 153.442 100.818C153.54 100.767 153.644 100.71 153.73 100.659C154.11 100.442 154.485 100.289 154.893 100.136C155.27 100.667 155.6 101.22 155.879 101.802Z" fill="#ADDEEA"/>
<path d="M151.454 105.254C151.427 105.019 151.348 104.708 151.217 104.449C151.172 104.23 151.144 104.052 150.961 103.89C150.836 103.774 150.686 103.728 150.549 103.727C150.089 103.632 149.773 103.774 149.449 104.14C149.177 104.455 148.917 104.861 148.828 105.28C148.604 106.359 149.995 107.545 150.941 106.791C151.396 106.432 151.52 105.806 151.454 105.254Z" fill="#ADDEEA"/>
<path d="M155.479 104.724C155.382 104.465 155.205 104.298 154.982 104.153C154.913 104.107 154.838 104.089 154.764 104.083C154.712 104.065 154.655 104.042 154.597 104.03C154.494 104.007 154.385 103.989 154.287 103.994C153.931 104.015 153.683 104.249 153.578 104.582C153.502 104.829 153.558 105.059 153.626 105.289C153.699 105.548 153.813 105.755 154.059 105.889C154.18 105.953 154.289 105.982 154.421 105.988C154.53 105.995 154.576 105.995 154.702 105.961C154.708 105.956 154.731 105.956 154.743 105.944C154.754 105.944 154.771 105.939 154.789 105.933C154.829 105.927 154.875 105.916 154.91 105.905C155.002 105.871 155.077 105.82 155.146 105.763C155.146 105.763 155.152 105.757 155.163 105.745C155.221 105.7 155.279 105.654 155.325 105.597C155.533 105.357 155.581 105.024 155.479 104.724Z" fill="#ADDEEA"/>
<path d="M156.524 112.608C155.247 112.957 153.562 112.063 152.676 111.317C152.138 110.866 151.641 110.306 151.898 109.56C152.119 108.895 152.666 108.812 153.275 108.654C153.92 108.485 154.536 108.265 155.209 108.136C155.916 107.996 156.525 108.057 157.22 108.136C157.189 109.641 156.946 111.151 156.524 112.608Z" fill="#ADDEEA"/>
<path d="M152.656 115.039C152.721 114.77 152.647 114.522 152.505 114.286C152.362 114.049 152.151 113.813 151.893 113.668C151.454 113.062 150.447 113.304 150.311 114.056C150.258 114.348 150.354 114.619 150.433 114.895C150.523 115.217 150.614 115.551 150.865 115.794C151.111 116.031 151.495 116.153 151.829 116.052C152.146 115.956 152.4 115.636 152.539 115.349C152.563 115.303 152.58 115.252 152.592 115.206C152.621 115.154 152.638 115.102 152.656 115.039Z" fill="#ADDEEA"/>
<path d="M153.799 118.505C153.215 119.277 152.602 120.021 151.961 120.747C151.51 121.25 151.048 121.742 150.568 122.228C149.615 122.107 148.803 121.391 148.365 120.452C148.042 119.755 147.954 118.904 148.205 118.164C148.392 117.625 148.763 116.8 149.413 116.717C150.27 116.612 150.5 117.573 151.084 117.99C151.886 118.557 152.685 118.453 153.593 118.469C153.662 118.469 153.742 118.481 153.799 118.505Z" fill="#ADDEEA"/>
<path d="M147.105 121.824C147.032 121.623 146.906 121.484 146.746 121.38C146.66 121.27 146.534 121.189 146.385 121.154C145.748 121.007 145.189 121.343 145.019 121.98C144.878 122.507 145.058 123.29 145.666 123.442C146.183 123.572 146.622 123.16 146.928 122.789C147.13 122.531 147.219 122.135 147.105 121.824Z" fill="#ADDEEA"/>
<path d="M144.074 126.836C142.952 127.249 141.767 127.495 140.565 127.598C140.334 126.775 140.604 125.65 140.711 124.927C140.836 124.06 141.289 123.132 142.273 123.017C143.215 122.907 143.423 123.798 143.747 124.472C144.032 125.06 144.214 125.406 144.147 126.101C144.123 126.342 144.104 126.589 144.074 126.836Z" fill="#ADDEEA"/>
<path d="M137.184 123.741C137.054 123.298 136.647 123.163 136.251 123.052C136.062 122.999 135.884 122.935 135.706 122.859C135.632 122.83 135.517 122.795 135.42 122.755C135.134 122.5 134.853 122.275 134.433 122.381C133.881 122.528 133.689 123.084 133.772 123.596C133.765 123.808 133.81 124.027 133.924 124.235C134.277 124.88 135.015 125.453 135.768 125.428C136.584 125.41 137.438 124.61 137.184 123.741Z" fill="#ADDEEA"/>
<path d="M140.494 114.739C140.002 114.265 139.187 114.134 138.787 114.816C138.462 115.377 138.446 116.319 139.145 116.599C139.764 116.855 140.771 116.682 140.958 115.948C141.088 115.443 140.854 115.022 140.494 114.739Z" fill="#ADDEEA"/>
<path d="M131.015 124.598C131.003 124.621 130.992 124.644 130.98 124.667C130.835 124.879 130.662 125.027 130.461 125.124C128.813 123.667 127.888 121.564 127.583 119.339C127.934 119.152 128.309 119.01 128.711 118.978C129.579 118.896 129.954 119.622 130.232 120.319C130.516 121.044 130.84 121.672 131.239 122.341C131.689 123.073 131.702 124.01 131.015 124.598Z" fill="#ADDEEA"/>
<path d="M143.151 106.45C142.928 106.133 142.538 106.085 142.176 106.031C141.975 106.002 141.786 105.983 141.596 105.977C141.516 105.965 141.429 105.97 141.337 105.992C141.286 105.998 141.222 106.003 141.165 106.014C140.998 106.054 140.871 106.179 140.801 106.328C140.726 106.414 140.663 106.5 140.616 106.603C140.512 106.821 140.556 107.017 140.607 107.241C140.59 107.178 140.601 107.235 140.607 107.264C140.635 107.408 140.657 107.5 140.731 107.632C140.771 107.696 140.828 107.754 140.874 107.811C140.954 107.904 140.937 107.886 140.914 107.863C141.04 108.013 141.154 108.117 141.338 108.187C141.687 108.321 142.021 108.22 142.361 108.089C143.046 107.846 143.664 107.177 143.151 106.45Z" fill="#ADDEEA"/>
<path opacity="0.5" d="M229.76 307.834C229.76 311.424 182.302 314.334 123.76 314.334C65.2176 314.334 17.7598 311.424 17.7598 307.834C17.7598 304.244 65.2176 301.334 123.76 301.334C182.302 301.334 229.76 304.244 229.76 307.834Z" fill="#54362A"/>
<path d="M68.5672 219.56C51.5809 219.678 37.002 220.015 19.9653 220.688C16.6488 220.822 14.494 223.901 15.3525 226.981C20.4703 245.253 29.7799 274.984 39.2915 302.511C40.268 305.338 43.315 307.037 46.4295 307.037C97.8596 307.121 163.936 307.071 188.868 307.037C194.845 307.037 196.242 307.256 198.077 301.788C203.548 285.5 217.066 247.205 221.629 227.098C222.336 224.002 220.114 221.024 216.797 220.991C181.175 220.721 142.337 219.897 106.883 219.594L68.5672 219.56Z" fill="#FCF9F9"/>
<path d="M69.1227 301.333C68.8365 301.333 68.584 301.148 68.483 300.879L44.6281 229.925C44.5103 229.571 44.6955 229.184 45.049 229.066C45.4025 228.949 45.7897 229.134 45.9076 229.487L69.7624 300.441C69.8802 300.794 69.6951 301.181 69.3415 301.299C69.2742 301.316 69.2069 301.333 69.1227 301.333Z" fill="#54362A"/>
<path d="M94.6778 300.508C94.3579 300.508 94.0885 300.29 94.0212 299.97C92.3209 291.826 90.5701 283.127 88.9034 274.715C87.22 266.318 81.2494 237.644 79.5491 229.518C79.4649 229.147 79.7006 228.794 80.071 228.727C80.4414 228.643 80.7949 228.878 80.8622 229.248C82.5625 237.375 88.5331 266.049 90.2165 274.462C91.9 282.875 93.634 291.574 95.3343 299.701C95.4185 300.071 95.1828 300.424 94.8124 300.492C94.7619 300.508 94.7114 300.508 94.6778 300.508Z" fill="#54362A"/>
<path d="M118.87 301.333C118.499 301.333 118.196 301.03 118.196 300.66L117.691 234.014C117.691 233.643 117.994 233.341 118.365 233.341C118.735 233.341 119.038 233.643 119.038 234.014L119.543 300.66C119.543 301.03 119.257 301.333 118.87 301.333Z" fill="#54362A"/>
<path d="M167.707 301.333C167.64 301.333 167.556 301.316 167.489 301.299C167.135 301.181 166.95 300.794 167.068 300.441L190.923 229.487C191.04 229.134 191.428 228.949 191.781 229.066C192.135 229.184 192.32 229.571 192.202 229.925L168.347 300.879C168.246 301.165 167.977 301.333 167.707 301.333Z" fill="#54362A"/>
<path d="M142.151 300.51C142.101 300.51 142.067 300.51 142.017 300.494C141.646 300.409 141.427 300.056 141.495 299.703C143.801 288.682 146.158 276.618 148.431 264.958C150.703 253.281 153.06 241.217 155.366 230.179C155.451 229.809 155.804 229.59 156.158 229.657C156.528 229.742 156.747 230.095 156.68 230.448C154.373 241.469 152.016 253.533 149.744 265.21C147.471 276.887 145.114 288.951 142.808 299.989C142.74 300.292 142.471 300.51 142.151 300.51Z" fill="#54362A"/>
<path d="M49.7142 268.556C49.3438 268.556 49.0408 268.253 49.0408 267.883C49.0408 267.513 49.3438 267.21 49.7142 267.21L190.84 266.672C191.21 266.672 191.513 266.974 191.513 267.345C191.513 267.715 191.21 268.018 190.84 268.018L49.7142 268.556Z" fill="#54362A"/>
<path d="M90.8398 243.957C90.4694 243.957 90.1664 243.654 90.1664 243.284C90.1664 242.914 90.4694 242.611 90.8398 242.611L211.057 242.258C211.427 242.258 211.73 242.561 211.73 242.931C211.73 243.301 211.427 243.604 211.057 243.604L90.8398 243.957Z" fill="#54362A"/>
<path d="M30.2683 244.141C29.8979 244.141 29.5949 243.838 29.5949 243.468C29.5949 243.098 29.8979 242.795 30.2683 242.795L95.6116 242.548C95.982 242.548 96.285 242.851 96.285 243.221C96.285 243.592 95.982 243.894 95.6116 243.894L30.2683 244.141Z" fill="#54362A"/>
<path d="M84.0218 290.901C83.6515 290.901 83.3484 290.598 83.3484 290.228C83.3484 289.858 83.6515 289.555 84.0218 289.555L158.112 289.016C158.482 289.016 158.785 289.319 158.785 289.689C158.785 290.059 158.482 290.362 158.112 290.362L84.0218 290.901C84.0218 290.901 84.0387 290.901 84.0218 290.901Z" fill="#54362A"/>
<path d="M111.715 307.761C89.9815 307.761 67.0357 307.744 46.43 307.711C42.8105 307.711 39.6961 305.708 38.6692 302.73C29.8646 277.273 20.2352 246.903 14.7134 227.149C14.242 225.467 14.5619 223.7 15.5719 222.303C16.582 220.907 18.1813 220.082 19.949 220.015C36.9352 219.342 89.8131 219.09 106.9 218.972C107.271 218.972 107.574 219.275 107.574 219.645C107.574 220.015 107.271 220.318 106.9 220.318C89.83 220.436 36.9689 220.688 19.9995 221.361C18.6527 221.412 17.4406 222.051 16.6662 223.111C15.8918 224.171 15.6561 225.517 16.0265 226.813C21.5483 246.532 31.1609 276.869 39.9655 302.31C40.7904 304.699 43.4671 306.381 46.4637 306.398C97.574 306.482 163.112 306.432 188.902 306.398H189.593C194.912 306.398 195.855 306.398 197.471 301.603C198.347 298.978 199.424 295.832 200.67 292.181C207.252 272.915 217.185 243.807 221.006 226.981C221.309 225.669 221.006 224.339 220.198 223.313C219.39 222.287 218.195 221.715 216.831 221.715C198.683 221.58 179.391 221.294 160.738 221.008C142.826 220.739 124.291 220.469 106.9 220.318C106.53 220.318 106.227 220.015 106.227 219.645C106.227 219.275 106.53 218.972 106.9 218.972C124.291 219.107 142.826 219.393 160.738 219.662C179.391 219.948 198.667 220.234 216.814 220.368C218.565 220.385 220.165 221.159 221.225 222.488C222.286 223.835 222.69 225.584 222.303 227.301C218.464 244.194 208.515 273.353 201.933 292.635C200.687 296.286 199.609 299.432 198.734 302.057C196.815 307.778 194.997 307.778 189.576 307.761H188.886C173.482 307.727 143.92 307.761 111.715 307.761Z" fill="#54362A"/>
<path d="M118.87 230.901C117.338 230.901 115.941 229.841 115.587 228.293L98.8333 154.395C98.4124 152.577 99.5572 150.777 101.359 150.356C103.177 149.936 104.978 151.08 105.399 152.88L122.153 226.762C122.574 228.579 121.429 230.379 119.628 230.8C119.375 230.867 119.122 230.901 118.87 230.901Z" fill="#54362A"/>
<path d="M77.239 193.35C76.5214 193.487 75.8379 193.64 75.1716 193.965C74.6078 194.239 74.0952 194.632 73.6509 195.076C72.677 196.067 72.0449 197.332 71.6177 198.631C71.1393 200.049 70.8147 201.536 70.5242 203.006C70.3534 203.878 70.2167 204.749 70.1142 205.621C70.08 205.826 70.0629 206.031 70.0458 206.253C69.9775 205.04 69.9262 203.826 69.8408 202.613C69.7383 201.041 69.5674 199.451 69.1232 197.947C68.7302 196.597 68.1151 195.144 67.0387 194.187C65.8769 193.162 64.3391 192.991 62.8697 192.752C62.0154 192.615 61.1782 192.478 60.3239 192.342C59.9139 192.273 59.5038 192.222 59.0938 192.136C59.1108 192.119 59.1279 192.119 59.145 192.102C59.4355 191.983 59.7943 191.914 60.1018 191.829C60.4264 191.743 60.7511 191.641 61.0757 191.555C61.725 191.367 62.3742 191.162 63.0235 190.94C64.2879 190.496 65.518 189.915 66.5945 189.077C67.7221 188.189 68.5252 186.992 69.0719 185.676C69.7212 184.104 69.9775 182.412 70.1483 180.72C70.2508 179.78 70.3192 178.84 70.4217 177.9C70.473 177.456 70.5242 177.028 70.6096 176.584C70.7293 177.78 70.8489 178.977 71.0197 180.173C71.2589 181.797 71.6348 183.386 72.0449 184.958C72.3866 186.36 72.7283 187.83 73.5484 189.043C74.3002 190.154 75.3937 190.991 76.6068 191.572C77.837 192.154 79.1697 192.478 80.5024 192.735C80.1948 192.786 79.9044 192.854 79.5968 192.906C78.7767 193.059 78.0078 193.196 77.239 193.35Z" fill="#FED57B"/>
<path d="M43.1559 156.818C42.8399 156.878 42.539 156.946 42.2456 157.089C41.9973 157.209 41.7716 157.382 41.576 157.578C41.1472 158.014 40.8689 158.571 40.6808 159.143C40.4701 159.767 40.3272 160.422 40.1993 161.069C40.1241 161.453 40.0639 161.837 40.0188 162.221C40.0037 162.311 39.9962 162.401 39.9887 162.499C39.9586 161.965 39.936 161.431 39.8984 160.896C39.8532 160.204 39.778 159.504 39.5824 158.842C39.4094 158.247 39.1386 157.608 38.6646 157.186C38.153 156.735 37.476 156.66 36.829 156.554C36.4528 156.494 36.0842 156.434 35.708 156.374C35.5275 156.344 35.3469 156.321 35.1664 156.283C35.1739 156.276 35.1814 156.276 35.189 156.268C35.3168 156.216 35.4748 156.185 35.6102 156.148C35.7532 156.11 35.8961 156.065 36.0391 156.027C36.3249 155.945 36.6108 155.854 36.8967 155.757C37.4534 155.561 37.9951 155.305 38.469 154.936C38.9655 154.545 39.3191 154.018 39.5598 153.439C39.8457 152.746 39.9586 152.002 40.0338 151.257C40.0789 150.843 40.109 150.429 40.1542 150.015C40.1767 149.819 40.1993 149.631 40.2369 149.435C40.2896 149.962 40.3422 150.489 40.4175 151.016C40.5228 151.731 40.6883 152.43 40.8689 153.123C41.0193 153.74 41.1698 154.387 41.5309 154.921C41.8619 155.41 42.3434 155.779 42.8775 156.035C43.4192 156.291 44.006 156.434 44.5928 156.547C44.4574 156.569 44.3295 156.599 44.1941 156.622C43.8329 156.69 43.4944 156.75 43.1559 156.818Z" fill="#FED57B"/>
<path d="M240.047 177.283C239.364 177.608 238.663 177.864 237.945 178.121C237.262 178.36 236.527 178.599 235.912 179.009C235.331 179.385 234.785 179.984 234.477 180.616C234.272 181.026 234.221 181.453 234.135 181.898C233.947 182.94 233.794 183.983 233.657 185.042C233.571 185.743 233.486 186.444 233.401 187.145C233.366 187.452 233.315 187.777 233.281 188.085C233.23 187.794 233.196 187.503 233.161 187.213C233.076 186.495 233.008 185.794 232.922 185.077C232.768 183.658 232.632 182.257 232.478 180.838C232.478 180.753 232.444 180.684 232.41 180.616C232.102 179.368 230.821 178.941 229.608 178.838C229.095 178.787 228.582 178.804 228.053 178.821C228.07 178.821 228.104 178.804 228.121 178.804C229.078 178.48 230.018 178.035 230.855 177.437C230.923 177.386 230.974 177.334 231.009 177.283C232.307 176.241 232.444 174.275 232.649 172.737C232.768 171.746 232.854 170.755 232.973 169.78C233.042 169.285 233.11 168.789 233.196 168.293C233.23 168.071 233.281 167.747 233.384 167.49C233.401 167.593 233.401 167.678 233.418 167.781C233.435 168.054 233.452 168.328 233.452 168.601C233.469 169.165 233.469 169.729 233.486 170.293C233.503 171.387 233.537 172.498 233.725 173.592C234.033 175.352 235.4 176.839 237.194 177.095C237.775 177.181 238.321 177.095 238.885 177.078C239.466 177.044 240.047 177.027 240.628 176.958C240.457 177.078 240.252 177.181 240.047 177.283Z" fill="#FED57B"/>
<path d="M243.993 51.1C242.728 51.9203 241.908 53.0996 241.43 54.501C240.9 56.0392 240.593 57.6799 240.2 59.2693C239.909 60.4315 239.636 61.5936 239.345 62.7558C238.969 60.2777 238.781 57.7653 238.149 55.3385C237.791 53.9883 237.244 52.621 236.27 51.5956C235.33 50.6043 234.032 50.0916 232.716 49.8011C231.605 49.5447 230.461 49.4422 229.333 49.2029C231.315 47.9895 233.827 47.7844 235.774 46.5026C237.005 45.6993 237.842 44.5542 238.337 43.1699C238.85 41.7514 238.969 40.2303 239.14 38.7434C239.26 37.7692 239.397 36.778 239.585 35.8209C239.687 35.3423 239.772 34.8638 239.892 34.4024C239.909 34.3169 239.926 34.2485 239.96 34.1631C240.114 35.4791 240.268 36.7951 240.422 38.1281C240.524 38.9656 240.61 39.803 240.712 40.6405C240.815 41.4437 240.934 42.247 241.225 42.999C242.318 45.7506 245.24 46.9469 247.94 47.4596C248.862 47.6305 249.785 47.7673 250.707 47.9211C251.118 47.9895 251.528 48.0578 251.921 48.1604C251.938 48.1604 251.955 48.1775 251.989 48.1775C250.656 48.6047 249.323 49.032 247.991 49.4422C246.658 49.8865 245.223 50.2967 243.993 51.1Z" fill="#FED57B"/>
</svg>
