<svg width="71" height="72" viewBox="0 0 71 72" fill="none" xmlns="http://www.w3.org/2000/svg">
<path d="M0.319153 41.0628C0.319153 30.617 8.7872 22.1489 19.2331 22.1489H40.9797C51.4256 22.1489 59.8936 30.617 59.8936 41.0628V48.5116C59.8936 58.9575 51.4256 67.4255 40.9797 67.4255H19.2331C8.7872 67.4255 0.319153 58.9575 0.319153 48.5116V41.0628Z" fill="#F6F0F0"/>
<path fill-rule="evenodd" clip-rule="evenodd" d="M41.0546 22.4308L19.4242 31.1529C19.3058 31.174 19.1903 31.2173 19.0836 31.2829C18.8997 31.3646 18.7671 31.5151 18.6857 31.6961L13.6553 38.53C13.0387 39.2487 12.8331 40.2754 13.1414 41.1994C13.4498 42.1234 14.0665 42.8421 14.9915 43.2528L18.5889 44.7183V60.0904C18.5889 61.9385 19.7195 63.6838 21.4668 64.4025L38.4254 71.2813C39.556 71.7947 40.6866 72 41.9199 72C43.1533 72 44.3866 71.692 45.5172 71.2813L62.4758 64.4025C64.2231 63.6838 65.3537 62.0411 65.3537 60.0904V44.7601L69.0535 43.2528C69.9786 42.8422 70.5952 42.1235 70.9036 41.1995C71.1091 40.2754 71.0064 39.3514 70.3897 38.5301L65.2507 31.5486C65.2203 31.5183 65.1879 31.4889 65.1538 31.4608C65.053 31.3343 64.9141 31.2268 64.737 31.1384L42.5693 22.1996C42.3985 22.0715 42.1769 22 41.9196 22C41.5344 22 41.2293 22.1603 41.0546 22.4308ZM42.9474 69.9053C43.5422 69.8233 44.1293 69.6659 44.695 69.4333L61.6536 62.5545C62.6814 62.1438 63.2981 61.2198 63.2981 60.0904V45.5975L50.656 50.7476C50.5491 50.769 50.4467 50.7903 50.3487 50.8108L50.3476 50.811C49.9749 50.8887 49.6666 50.953 49.4226 50.953C48.4976 50.953 47.4698 50.5423 46.9559 49.721L42.9474 44.2867V69.9053ZM42.9474 39.6514L61.5508 32.0624L42.9474 24.5707V39.6514ZM40.8918 24.5709V39.6511L22.289 32.0624L40.8918 24.5709ZM40.8918 44.5657V69.8903C40.3324 69.8048 39.7805 69.6524 39.2476 69.4333L22.289 62.5545C21.2612 62.1438 20.6445 61.1171 20.6445 60.0904V45.5557L33.389 50.7476C33.6974 50.8503 34.1085 50.9529 34.5196 50.9529C35.5474 50.9529 36.4724 50.4396 37.0891 49.7209L40.8918 44.5657ZM19.763 42.9528C19.9756 42.9767 20.1585 43.0532 20.3017 43.1723L34.1085 48.7969C34.5196 49.0022 35.0335 48.7969 35.3418 48.4889L40.2753 41.7128L19.9249 33.3966L15.2998 39.7621C15.0943 39.9674 15.0943 40.2754 15.0943 40.5834C15.197 40.8914 15.4026 41.0968 15.7109 41.3021L19.763 42.9528ZM51.8002 38.203L63.9858 33.2893L68.5396 39.5568C68.7452 39.8648 68.848 40.1728 68.7452 40.4808C68.6424 40.7888 68.4369 41.0968 68.1285 41.1995L49.731 48.6943C49.3198 48.8996 48.8059 48.7969 48.4976 48.3863L43.5642 41.6101L51.8002 38.203Z" fill="#54362A"/>
<path d="M24.9895 19.3822C24.6735 19.4424 24.3726 19.5101 24.0792 19.6531C23.8309 19.7735 23.6052 19.9466 23.4096 20.1422C22.9808 20.5787 22.7025 21.1355 22.5144 21.7075C22.3038 22.332 22.1608 22.9867 22.0329 23.6339C21.9577 24.0177 21.8975 24.4015 21.8524 24.7852C21.8373 24.8755 21.8298 24.9658 21.8223 25.0637C21.7922 24.5294 21.7696 23.9951 21.732 23.4608C21.6869 22.7685 21.6116 22.0687 21.416 21.4064C21.243 20.812 20.9722 20.1723 20.4982 19.7509C19.9867 19.2994 19.3096 19.2242 18.6626 19.1188C18.2864 19.0586 17.9178 18.9984 17.5417 18.9382C17.3611 18.9081 17.1806 18.8855 17 18.8479C17.0075 18.8404 17.015 18.8404 17.0226 18.8328C17.1505 18.7802 17.3084 18.7501 17.4439 18.7124C17.5868 18.6748 17.7297 18.6297 17.8727 18.592C18.1586 18.5093 18.4444 18.419 18.7303 18.3211C19.287 18.1255 19.8287 17.8696 20.3026 17.5009C20.7991 17.1096 21.1527 16.5828 21.3935 16.0034C21.6793 15.3111 21.7922 14.5661 21.8674 13.8211C21.9126 13.4072 21.9427 12.9933 21.9878 12.5794C22.0104 12.3838 22.0329 12.1957 22.0705 12C22.1232 12.5268 22.1759 13.0535 22.2511 13.5803C22.3564 14.2952 22.5219 14.995 22.7025 15.6873C22.8529 16.3044 23.0034 16.9516 23.3645 17.4858C23.6955 17.975 24.177 18.3437 24.7111 18.5996C25.2528 18.8554 25.8396 18.9984 26.4264 19.1113C26.291 19.1339 26.1631 19.164 26.0277 19.1865C25.6666 19.2543 25.328 19.3145 24.9895 19.3822Z" fill="#FED57B"/>
<path d="M65.5611 12.432C65.0247 12.5334 64.514 12.6475 64.016 12.8882C63.5946 13.091 63.2115 13.3825 62.8795 13.712C62.1516 14.447 61.6792 15.3848 61.3599 16.3479C61.0024 17.3998 60.7598 18.5023 60.5427 19.5922C60.415 20.2385 60.3128 20.8848 60.2362 21.5311C60.2107 21.6832 60.1979 21.8353 60.1852 22C60.1341 21.1002 60.0958 20.2005 60.0319 19.3007C59.9553 18.1348 59.8276 16.9562 59.4956 15.841C59.2019 14.8399 58.7422 13.7627 57.9377 13.053C57.0694 12.2926 55.9202 12.1659 54.822 11.9885C54.1836 11.8871 53.5579 11.7857 52.9194 11.6843C52.6129 11.6336 52.3065 11.5956 52 11.5323C52.0128 11.5196 52.0255 11.5196 52.0383 11.5069C52.2554 11.4182 52.5235 11.3675 52.7534 11.3041C52.996 11.2408 53.2386 11.1647 53.4812 11.1014C53.9665 10.962 54.4517 10.8099 54.937 10.6452C55.8819 10.3157 56.8013 9.88479 57.6057 9.26382C58.4485 8.60484 59.0487 7.71774 59.4573 6.74193C59.9425 5.57603 60.1341 4.32142 60.2618 3.06681C60.3384 2.36981 60.3895 1.67281 60.4661 0.9758C60.5044 0.646307 60.5427 0.329493 60.6065 0C60.6959 0.887097 60.7853 1.77419 60.913 2.66129C61.0918 3.86521 61.3727 5.04378 61.6792 6.20968C61.9346 7.24885 62.1899 8.33871 62.8029 9.23848C63.3647 10.0622 64.182 10.6832 65.0886 11.1141C66.008 11.5449 67.004 11.7857 68 11.9758C67.7702 12.0138 67.5531 12.0645 67.3232 12.1025C66.7103 12.2166 66.1357 12.318 65.5611 12.432Z" fill="#FED57B"/>
</svg>
