<svg width="26" height="26" viewBox="0 0 26 26" fill="none" xmlns="http://www.w3.org/2000/svg">
<path fill-rule="evenodd" clip-rule="evenodd" d="M13.1488 3.00073C10.1408 3.00073 7.70547 5.56047 7.70547 8.6925C7.70547 9.89118 8.06193 11.0051 8.67009 11.9239C6.70888 11.8413 4.77137 12.8722 3.72667 14.7666C2.22994 17.4808 3.11876 20.9665 5.718 22.5376C6.57339 23.0546 7.50895 23.3006 8.43337 23.3006C10.3131 23.3006 12.1412 22.2829 13.1488 20.4694C14.1565 22.2831 15.9844 23.3006 17.8643 23.3006C18.7886 23.3006 19.7245 23.0545 20.5797 22.5376C23.1789 20.9665 24.0677 17.4807 22.571 14.7665C22.1727 14.0444 21.6446 13.4475 21.0344 12.9899C20.6274 12.6846 20.3156 12.5171 19.9394 12.3545C19.2111 12.0397 18.4212 11.8905 17.6276 11.9239C18.2358 11.0051 18.5922 9.89114 18.5922 8.69241C18.5922 8.50137 18.5831 8.31256 18.5654 8.12636C18.5437 7.57154 18.3791 7.04344 18.295 6.83714C17.5589 4.61084 15.5335 3.00073 13.1488 3.00073ZM9.17748 8.69245C9.17748 6.38955 10.9656 4.52765 13.1489 4.52765C15.3322 4.52765 17.1203 6.38955 17.1203 8.69245C17.1203 10.9954 15.3322 12.8573 13.1489 12.8573C10.9656 12.8573 9.17748 10.9954 9.17748 8.69245ZM15.8724 14.0015C17.7646 12.8578 20.1966 13.536 21.2934 15.5249C22.3922 17.5175 21.7351 20.0719 19.8386 21.2183C19.2149 21.5953 18.5343 21.7739 17.8624 21.7739C16.4916 21.7738 15.1537 21.0296 14.4176 19.6949C13.3187 17.7023 13.9758 15.1479 15.8724 14.0015ZM5.00433 15.5249C5.74049 14.1901 7.07826 13.446 8.44915 13.446C9.12094 13.446 9.80179 13.6247 10.4253 14.0016C12.3219 15.1479 12.979 17.7023 11.8801 19.6949C10.7833 21.6837 8.35138 22.3621 6.45913 21.2183C4.56256 20.0719 3.90548 17.5175 5.00433 15.5249ZM13.1488 14.753C13.0784 14.6257 13.0031 14.5011 12.923 14.3793C12.9979 14.3826 13.0732 14.3842 13.1488 14.3842C13.2245 14.3842 13.2998 14.3826 13.3746 14.3793C13.2946 14.5011 13.2193 14.6257 13.1488 14.753Z" fill="#54362A"/>
</svg>
