<svg width="26" height="26" viewBox="0 0 26 26" fill="none" xmlns="http://www.w3.org/2000/svg">
<path d="M22.6082 8.60063L22.1221 6.17138L20.7688 6.71314C19.5814 7.18845 18.315 7.6337 16.9961 8.03979C16.4135 6.45434 15.5333 4.87856 14.3737 3.34647L12.8786 1.37109L11.896 2.44799C10.33 4.16457 8.56272 5.83318 6.49328 7.54917C4.86 8.90349 3.70366 10.7958 3.23725 12.8775C2.75644 15.0237 3.00943 17.2069 3.96891 19.1909L6.59706 24.6255H9.47165C11.9845 24.6255 14.2073 24.2401 16.0781 23.4801C17.8519 22.7594 19.3198 21.7006 20.4411 20.3329C22.7811 17.4784 23.5507 13.3118 22.6082 8.60063ZM20.2885 8.35891C19.3921 10.1654 18.2708 11.9577 16.9407 13.705C15.5734 15.501 13.9849 17.2535 12.2193 18.914C10.3777 20.6459 8.72164 21.9177 7.70566 22.6491V18.3348C7.70566 16.4417 8.32622 14.659 9.50031 13.1797C10.64 11.7437 12.2417 10.7125 14.0104 10.2762C14.7279 10.0992 15.4331 9.91284 16.1151 9.72017L16.1163 9.72385L16.7392 9.54022C16.7451 9.5385 16.751 9.53677 16.7569 9.53504V9.535C17.9794 9.17446 19.1624 8.7799 20.2885 8.35891ZM4.56686 13.1755C4.96764 11.3865 5.96069 9.76087 7.36301 8.59809C9.42819 6.88564 11.2021 5.21625 12.7807 3.49954L13.2872 4.16879C14.3448 5.56603 15.1492 6.99492 15.6854 8.42559C15.0364 8.60822 14.3661 8.78508 13.684 8.95331C11.6241 9.46147 9.7592 10.6616 8.433 12.3327C7.06574 14.0555 6.34307 16.1309 6.34307 18.3349V20.9706L5.19555 18.5978C4.37133 16.8934 4.15395 15.0184 4.56686 13.1755ZM19.3873 19.4691C18.4119 20.6589 17.126 21.5837 15.5653 22.2177C13.858 22.9113 11.8078 23.2629 9.47165 23.2629H9.1742C10.2039 22.4892 11.5957 21.369 13.1288 19.9291C14.9533 18.2157 16.5964 16.4047 18.0126 14.5464C19.3228 12.8271 20.4402 11.063 21.3501 9.28101C22.0884 13.412 21.3969 17.0176 19.3873 19.4691Z" fill="#54362A"/>
</svg>
