<svg width="26" height="26" viewBox="0 0 26 26" fill="none" xmlns="http://www.w3.org/2000/svg">
<path d="M12.083 17.3704C12.6835 17.3704 12.9838 17.6268 12.9838 18.1394C12.9838 18.6521 12.6835 18.9085 12.083 18.9085H3.86326C3.60053 18.9085 3.38784 18.8352 3.2252 18.6887C3.07507 18.5423 3 18.3531 3 18.1211C3 17.877 3.08132 17.639 3.24397 17.407L10.394 7.53803H3.91956C3.31903 7.53803 3.01877 7.28169 3.01877 6.76901C3.01877 6.25634 3.31903 6 3.91956 6H11.8953C12.1706 6 12.3833 6.07934 12.5334 6.23803C12.696 6.38451 12.7774 6.57371 12.7774 6.80563C12.7774 7.04977 12.696 7.27559 12.5334 7.4831L5.36458 17.3704H12.083Z" fill="#54362A"/>
<path d="M19.7159 9.75352C21.9053 9.75352 23 10.9559 23 13.3606V18.1211C23 18.4019 22.9124 18.6216 22.7373 18.7803C22.5746 18.9268 22.3432 19 22.0429 19C21.7552 19 21.5237 18.9207 21.3485 18.762C21.1859 18.6033 21.1046 18.3897 21.1046 18.1211V13.4521C21.1046 12.6953 20.9482 12.1399 20.6354 11.7859C20.3352 11.4319 19.8597 11.2549 19.2092 11.2549C18.446 11.2549 17.8329 11.4869 17.37 11.9507C16.9071 12.4146 16.6757 13.0371 16.6757 13.8183V18.1211C16.6757 18.3897 16.5881 18.6033 16.4129 18.762C16.2503 18.9207 16.0251 19 15.7373 19C15.4496 19 15.2181 18.9207 15.043 18.762C14.8678 18.6033 14.7803 18.3897 14.7803 18.1211V10.669C14.7803 10.4127 14.8678 10.2052 15.043 10.0465C15.2307 9.87559 15.4621 9.79014 15.7373 9.79014C16.0126 9.79014 16.2315 9.86948 16.3942 10.0282C16.5568 10.1869 16.6381 10.3944 16.6381 10.6507V11.4014C16.9384 10.8643 17.3575 10.4554 17.8955 10.1746C18.4335 9.8939 19.0403 9.75352 19.7159 9.75352Z" fill="#54362A"/>
</svg>
