<svg width="26" height="26" viewBox="0 0 26 26" fill="none" xmlns="http://www.w3.org/2000/svg">
<path fill-rule="evenodd" clip-rule="evenodd" d="M20.6332 5.44442L22.9155 9.26523C23.0282 9.45609 23.0282 9.6898 22.9154 9.88065L22.9149 9.88163L20.4758 13.9649L20.4753 13.9658C20.3591 14.1584 20.1448 14.2785 19.9107 14.2785H15.0325C14.7984 14.2785 14.5841 14.1584 14.4679 13.9658L14.4674 13.9649L12.0283 9.88163L12.0277 9.88065C11.915 9.6898 11.915 9.45609 12.0277 9.26523L12.0283 9.26426L14.4674 5.18096L14.4679 5.18012C14.5841 4.98745 14.7984 4.86743 15.0325 4.86743H19.517L21.2298 2L22.331 2.60198L20.6332 5.44442ZM15.4098 6.11185L13.3427 9.57296L15.4098 13.034H19.5333L21.6004 9.57292L19.5333 6.11185H15.4098Z" fill="#54362A"/>
<path fill-rule="evenodd" clip-rule="evenodd" d="M6.08937 9.53406C5.85203 9.53406 5.63216 9.65823 5.51857 9.8588L3.07987 14.1359C2.97319 14.3215 2.97347 14.547 3.08015 14.7327L5.37095 18.7503L3.66884 21.5999L4.77006 22.2018L6.48312 19.334H10.9676C11.2048 19.334 11.425 19.2093 11.5386 19.0088L13.977 14.7322C14.0837 14.5465 14.0835 14.321 13.9768 14.1354L11.5384 9.85885C11.4248 9.65832 11.205 9.53406 10.9676 9.53406H6.08937ZM4.39101 14.434L6.47555 10.7785H10.5814L12.6659 14.434L10.5814 18.0896H6.47555L4.39101 14.434Z" fill="#54362A"/>
<path fill-rule="evenodd" clip-rule="evenodd" d="M14.4679 14.9017C14.5841 14.709 14.7984 14.589 15.0325 14.589H19.9107C20.1448 14.589 20.3591 14.709 20.4753 14.9017L20.4758 14.9025L22.9155 18.9868C23.0282 19.1776 23.0282 19.4113 22.9154 19.6022L22.9149 19.6032L20.4758 23.6865L20.4753 23.6873C20.3591 23.88 20.1448 24 19.9107 24H15.0325C14.7984 24 14.5841 23.88 14.4679 23.6873L14.4674 23.6865L12.0283 19.6032L12.0277 19.6022C11.915 19.4113 11.915 19.1776 12.0277 18.9868L12.0283 18.9858L14.4674 14.9025L14.4679 14.9017ZM15.4098 15.8334L13.3427 19.2945L15.4098 22.7556H19.5333L21.6004 19.2945L19.5333 15.8334H15.4098Z" fill="#54362A"/>
</svg>
