<svg width="26" height="26" viewBox="0 0 26 26" fill="none" xmlns="http://www.w3.org/2000/svg">
<path d="M14.0311 6.84332C13.8124 5.91822 13.2064 4.09476 11.6853 3.01605C9.62846 1.55738 6.78683 2.09074 6.6669 2.11411L6.06783 2.23107L6.1444 2.82716C6.15973 2.94653 6.5436 5.76732 8.60036 7.22599C9.13099 7.6023 9.71381 7.84571 10.2887 7.99984C10.1281 8.09974 9.97049 8.20557 9.81632 8.31776C8.48375 9.28771 7.52317 10.6247 7.03889 12.1825L6.84335 12.8056C5.83547 12.9501 4.91215 13.5355 4.20438 14.4907C3.42772 15.539 3 16.922 3 18.385C3 19.8481 3.42772 21.2311 4.20438 22.2793C5.0265 23.3889 6.13937 24 7.33794 24C8.53651 24 9.64934 23.3889 10.4715 22.2793C11.2482 21.2311 11.6759 19.8481 11.6759 18.385C11.6759 16.922 11.2482 15.5389 10.4715 14.4907C9.84886 13.6504 9.05945 13.0963 8.19238 12.8767L8.2914 12.5611C9.1164 9.90722 11.5661 8.12414 14.3871 8.12414H17.2314C16.7337 8.52886 16.3025 9.01869 15.9629 9.57989C15.0322 9.76878 14.1827 10.3384 13.5214 11.2309C12.7448 12.2792 12.3171 13.6622 12.3171 15.1252C12.3171 16.5883 12.7448 17.9713 13.5214 19.0195C14.3436 20.1291 15.4564 20.7402 16.655 20.7402C17.8536 20.7402 18.9664 20.1291 19.7886 19.0195C20.5652 17.9713 20.9929 16.5883 20.9929 15.1252C20.9929 13.6622 20.5652 12.2791 19.7886 11.2309C19.1731 10.4003 18.3948 9.84908 17.5395 9.62441C18.3659 8.68311 19.5774 8.12414 20.8707 8.12414H23V6.83511C23 6.83511 14.1494 6.83808 14.0311 6.84332ZM7.58253 3.30527C8.40937 3.25396 9.84589 3.30058 10.9191 4.06167C11.9925 4.82289 12.4915 6.14913 12.7032 6.93669C11.8764 6.98799 10.4399 6.94137 9.36662 6.18028C8.29323 5.41907 7.79423 4.09282 7.58253 3.30527ZM9.41262 15.25C10.0271 16.0794 10.3655 17.1927 10.3655 18.385C10.3655 19.5773 10.0271 20.6907 9.41262 21.52C8.8436 22.288 8.10678 22.711 7.3379 22.711C6.56902 22.711 5.83224 22.288 5.26322 21.52C4.6487 20.6907 4.31029 19.5773 4.31029 18.385C4.31029 17.1927 4.64874 16.0794 5.26322 15.25C5.83224 14.482 6.56906 14.0591 7.3379 14.0591C8.10673 14.0591 8.8436 14.482 9.41262 15.25ZM18.7297 11.9902C19.3442 12.8196 19.6826 13.933 19.6826 15.1252C19.6826 16.3175 19.3442 17.4309 18.7297 18.2602C18.1607 19.0282 17.4239 19.4512 16.655 19.4512C15.8861 19.4512 15.1493 19.0282 14.5803 18.2602C13.9658 17.4308 13.6273 16.3175 13.6273 15.1252C13.6273 13.933 13.9658 12.8196 14.5803 11.9902C15.1493 11.2222 15.8861 10.7993 16.655 10.7993C17.4239 10.7993 18.1607 11.2222 18.7297 11.9902Z" fill="#54362A"/>
</svg>
