<svg width="26" height="26" viewBox="0 0 26 26" fill="none" xmlns="http://www.w3.org/2000/svg">
<path d="M25.8725 8.79165L22.7769 4.55665L22.77 4.54842C22.7594 4.53519 22.748 4.52258 22.7358 4.51066C22.7249 4.49907 22.7133 4.48808 22.7012 4.47775L22.6967 4.47387C22.5928 4.38528 22.4604 4.3351 22.3226 4.33203H22.2959L11.6059 4.62249C11.5881 4.62249 11.5707 4.62249 11.5534 4.62637H11.5465C11.5229 4.62912 11.4996 4.63348 11.4767 4.63944L11.4638 4.64282C11.4465 4.64767 11.4292 4.65299 11.4144 4.65928L11.404 4.66316L11.3936 4.66751C11.3757 4.67478 11.3589 4.68301 11.3406 4.6922L11.3327 4.69656C11.3124 4.70758 11.2929 4.71987 11.2743 4.73335L11.2639 4.7411C11.25 4.75175 11.2362 4.76288 11.2228 4.77498L11.207 4.78999C11.1956 4.80113 11.1847 4.81274 11.1714 4.82775C11.1679 4.83162 11.1644 4.83501 11.1615 4.83889C11.1467 4.857 11.133 4.87591 11.1204 4.89553C11.109 4.91336 11.0986 4.93179 11.0892 4.95071L11.0823 4.96669C11.0744 4.98374 11.0674 5.00119 11.0615 5.01897L11.057 5.03156C11.0509 5.05044 11.0459 5.06968 11.0422 5.08917L10.4899 8.23009L4.00227 8.32836C3.98068 8.32693 3.95902 8.32693 3.93744 8.32836C3.93151 8.32799 3.92555 8.32799 3.91962 8.32836C3.90527 8.32836 3.89092 8.33175 3.87706 8.33417L3.85231 8.3395L3.81817 8.34773C3.80926 8.35063 3.80035 8.35305 3.79144 8.35644L3.76026 8.36758L3.73502 8.37823L3.70186 8.39468L3.68157 8.40582C3.66969 8.4126 3.65831 8.42034 3.64693 8.42809H3.64297C3.63885 8.4306 3.63488 8.43335 3.63109 8.43632C3.59845 8.4598 3.56843 8.48657 3.54151 8.5162L0.148119 13.1083C0.0736363 13.1914 0.0247955 13.2935 0.00727373 13.4027C-0.010248 13.5119 0.00426908 13.6237 0.0491375 13.7251L3.86127 21.3192C3.90787 21.4224 3.98416 21.51 4.08083 21.5715C4.1775 21.633 4.29037 21.6656 4.40567 21.6654H11.5491C11.56 21.6654 11.5709 21.6654 11.5818 21.6654C11.5927 21.6654 11.5937 21.6654 11.6031 21.6654H11.6273C11.6427 21.6629 11.658 21.6605 11.6768 21.6566L11.6907 21.6533C11.71 21.649 11.729 21.6435 11.7476 21.6368H11.753C11.7719 21.63 11.7902 21.6223 11.811 21.6126L18.1471 18.5706L22.4349 18.4089C22.5499 18.4046 22.6612 18.3676 22.7551 18.3025C22.849 18.2375 22.9216 18.1471 22.964 18.0425L25.9582 9.37402C25.9965 9.27955 26.0088 9.1769 25.9938 9.07632C25.9789 8.97574 25.9372 8.88075 25.873 8.80085L25.8725 8.79165ZM18.4742 17.3884L18.1703 15.9424C18.1664 15.9238 18.1615 15.9054 18.1555 15.8872L17.0721 9.22734L22.1751 5.68752L24.7263 9.24719L22.0014 17.2558L18.4742 17.3884ZM20.192 5.55197L16.4283 8.25333L13.3895 5.73593L20.192 5.55197ZM12.0127 6.56575L14.5065 8.32836L11.6925 8.25962L12.0127 6.56575ZM4.7917 20.5035L1.28888 13.5944L4.11115 9.65045L5.46967 10.4177C5.48155 10.4245 5.49392 10.4308 5.50629 10.4366L10.5623 13.3993L10.9186 20.5035H4.7917ZM11.1186 12.372L6.30754 9.54636L14.4813 9.49021L11.1186 12.372ZM12.0891 20.1651L11.7496 13.3562L16.0026 9.90751L17.032 16.3099C17.036 16.3287 17.0409 16.3472 17.0469 16.3655L17.3211 17.6726L12.0891 20.1651Z" fill="#54362A"/>
</svg>
