<svg width="96" height="96" viewBox="0 0 96 96" fill="none" xmlns="http://www.w3.org/2000/svg">
<path d="M44.2188 26.9827C44.2188 33.7972 50.159 39.3418 57.4604 39.3418C64.7618 39.3418 70.702 33.7972 70.702 26.9827C70.702 20.1681 64.7618 14.624 57.4604 14.624C50.159 14.624 44.2188 20.1681 44.2188 26.9827ZM68.2947 26.9827C68.2947 32.5584 63.4345 37.0945 57.4604 37.0945C51.4863 37.0945 46.6261 32.5584 46.6261 26.9827C46.6261 21.4074 51.4863 16.8712 57.4604 16.8712C63.4345 16.8712 68.2947 21.4074 68.2947 26.9827Z" fill="#919191" stroke="#919191" stroke-width="0.6"/>
<path d="M27.462 81.2871C28.0243 81.8529 28.9398 81.8591 29.5095 81.299L36.543 74.3834C37.7379 73.1908 38.1012 71.4251 37.5758 69.8902L39.0887 68.434C39.9033 67.6488 40.9757 67.216 42.1095 67.216H61.3954C64.8169 67.216 68.0508 65.9046 70.5025 63.5233C70.6034 63.4255 69.7366 64.4444 83.6596 47.8364C85.7247 45.398 85.4157 41.7365 82.9704 39.6733C80.5403 37.6292 76.8999 37.9229 74.8292 40.3193L66.2687 49.1008C65.1877 47.773 63.5393 46.9453 61.7582 46.9453H45.5808C43.2789 45.9841 40.8363 45.4976 38.3161 45.4976C31.3302 45.4976 25.2303 48.7178 21.9568 54.7554C20.5776 54.4946 19.1231 54.911 18.0767 55.9554L11.1753 62.8637C10.6118 63.4277 10.6107 64.3403 11.173 64.906L27.462 81.2871ZM38.3155 48.3931C40.5376 48.3931 42.6859 48.8395 44.7022 49.7198C44.8859 49.8001 45.0837 49.8414 45.2838 49.8414H61.7582C63.3312 49.8414 64.6599 51.1217 64.6599 52.7369C64.6599 54.334 63.3584 55.6329 61.7582 55.6329H49.9218C49.1208 55.6329 48.4712 56.2813 48.4712 57.0807C48.4712 57.8806 49.1208 58.5284 49.9218 58.5284H61.7582C64.9581 58.5284 67.5611 55.9305 67.5611 52.7369C67.5611 52.4823 67.5429 52.23 67.5101 51.9799C75.7912 43.4841 76.9589 42.2904 77.0088 42.231C78.0427 41.0129 79.8782 40.8585 81.0992 41.8859C82.3213 42.9172 82.4761 44.748 81.4393 45.9728L68.4272 61.498C66.5271 63.3185 64.0324 64.3205 61.3954 64.3205H42.1095C40.2196 64.3205 38.4306 65.0418 37.0735 66.3504L35.8406 67.5379L24.4753 56.1953C27.1315 51.2218 32.1159 48.3931 38.3155 48.3931ZM20.1298 58.0017C20.6082 57.5242 21.3429 57.4382 21.9261 57.798C22.1773 57.9508 21.4562 57.2956 34.4915 70.2874C35.0714 70.8661 35.0403 71.7883 34.4995 72.328L28.5033 78.2236L14.2487 63.8883L20.1298 58.0017Z" fill="#919191" stroke="#919191" stroke-width="0.3"/>
</svg>
