<svg width="217" height="93" viewBox="0 0 217 93" fill="none" xmlns="http://www.w3.org/2000/svg">
<path d="M60.9309 26.5888C61.9135 28.22 63.0599 30.0143 63.8787 30.8299C64.0425 30.993 64.37 31.1562 64.6976 31.4824C64.8613 31.6455 65.1889 31.8086 65.5164 31.9717L65.844 32.1349C66.499 32.6242 67.3179 33.2767 67.973 34.0923C68.1367 34.0923 68.3005 34.0923 68.4643 34.0923C67.6454 33.1136 66.6628 32.4611 66.0077 31.8086H65.844C65.6802 30.3406 65.5164 28.3831 64.5338 27.4044C63.3874 26.2625 60.2758 24.7944 60.112 24.7944L59.6207 24.6313L59.9482 25.1207C60.4396 25.61 60.7671 25.9363 60.9309 26.5888ZM64.5338 27.7306C65.3526 28.5462 65.6802 30.1774 65.6802 31.6455C65.3526 31.4824 65.1889 31.3193 65.0251 31.1561C64.6976 30.993 64.37 30.6668 64.2063 30.5037C63.3874 29.8512 62.241 27.8937 61.2584 26.2625C61.0946 25.9363 60.9309 25.6101 60.6033 25.2838C61.5859 25.9363 63.7149 26.915 64.5338 27.7306Z" fill="#180000"/>
<path d="M95.3186 10.603C95.1548 10.603 92.5345 11.908 89.4229 11.5817C88.4402 11.4186 87.7851 11.4186 87.1301 11.2555C85.4924 10.9292 84.5098 10.7661 82.0532 11.7448C80.4155 12.3973 79.1054 12.2342 77.6314 11.908C75.9937 11.5817 74.356 11.2555 72.227 12.2342C70.098 13.2129 69.2792 15.4966 68.4603 17.6172C67.8052 19.2484 67.3139 20.8796 66.0038 21.2058C65.6762 21.369 65.3487 21.369 65.0211 21.5321C62.8921 22.1846 61.4182 22.6739 56.3413 21.3689C50.7732 19.9009 40.7832 21.2058 38.818 21.5321C38.6542 21.5321 38.4904 21.6952 38.3267 21.8583C37.9991 22.1846 38.1629 22.8371 38.1629 22.8371V23.0002H38.3267C38.4904 23.0002 49.9543 21.369 54.3761 22.8371C57.979 24.142 59.9443 25.7732 60.2718 27.8938C60.4356 28.8725 59.7805 29.525 59.1254 30.3406C58.6341 30.9931 57.979 31.6456 57.8153 32.6243C57.6515 33.603 57.8153 34.4186 58.1428 35.2342C58.4703 36.0498 58.7979 37.1917 58.4704 38.6598C58.3066 39.8016 57.979 40.291 57.6515 40.9434C57.1602 41.759 56.8326 42.4115 57.1602 44.8583C57.6515 47.6314 59.1254 48.7732 60.2718 49.752C60.7631 50.0782 61.0907 50.4044 61.2544 50.5676C62.0733 51.7094 64.0385 53.6669 66.6588 54.4825C69.4429 55.4612 71.4082 56.7662 72.0632 57.908C72.7183 59.213 73.3734 60.1917 73.3734 60.1917L74.0285 61.1704L73.5372 60.0286C72.5546 57.5818 71.2444 53.3406 71.7357 52.8512C72.0632 52.525 72.227 52.1988 72.227 51.7094C73.3734 52.0357 74.8473 52.0357 76.1575 52.1988C76.6488 52.1988 77.1401 52.1988 77.4676 52.1988C79.5967 52.3619 81.3981 53.1775 81.3981 53.1775L81.8894 53.3406L81.5619 52.8512C81.5619 52.8512 80.7431 51.3832 80.088 48.7732C79.4329 46.1633 79.4329 46.1633 77.7952 43.7165L77.6314 43.5534C76.6488 42.0853 76.8126 41.7591 77.1401 41.2697C77.3039 40.9435 77.6314 40.4541 77.3039 39.6385C76.9763 38.986 77.1401 38.4966 77.3039 38.0073C77.4676 37.1917 77.6314 36.3761 76.485 34.0924C74.6836 30.1775 71.4082 28.7094 69.1154 28.3831C67.1502 28.22 66.4951 27.7307 65.1849 26.5888C65.0211 26.4257 64.6936 26.2626 64.5298 26.0995C63.0559 24.9576 60.9269 23.6526 59.9443 23.0002C60.5994 23.0002 61.7457 23.1633 62.8921 23.1633C64.0385 23.1633 65.0211 23.4895 66.4951 24.3051C67.3139 24.6314 68.2965 25.1207 69.6067 25.6101C73.5372 27.2413 76.485 25.2839 78.9416 23.3264C80.4155 22.1846 81.2344 21.8583 82.5445 21.3689C83.1996 21.2058 83.8547 20.8796 84.8373 20.3902C86.9663 19.4115 87.2938 18.5959 87.6214 17.4541C87.7851 16.8016 87.9489 16.3122 88.4402 15.4966C89.7504 13.376 94.991 10.9292 95.1548 10.7661L95.3186 10.603ZM88.604 15.4966C88.1127 16.3122 87.9489 16.9647 87.7852 17.4541C87.4576 18.5959 87.2938 19.4115 85.1648 20.2271C84.1822 20.7165 83.5271 20.8796 82.8721 21.2058C81.5619 21.6952 80.7431 22.0214 79.2691 23.1633C76.8126 24.9576 74.0285 26.9151 70.098 25.447C68.7878 24.9576 67.8052 24.4683 66.9864 24.142C65.3487 23.4895 64.5298 23.0002 63.2197 23.0002C61.4182 23.0002 59.6167 22.8371 59.6167 22.8371L58.9617 22.6739L59.6167 23.0002C59.6167 23.0002 62.8921 24.7945 64.8574 26.4257C65.1849 26.5888 65.3487 26.7519 65.5124 26.9151C66.9864 28.0569 67.4777 28.5463 69.6067 28.7094C71.7357 28.8725 74.8473 30.5037 76.6488 34.2555C77.6314 36.3761 77.4676 37.1917 77.3039 38.0073C77.1401 38.4966 77.1401 38.986 77.4676 39.8016C77.7952 40.6172 77.4676 40.7803 77.3039 41.1066C76.9763 41.5959 76.6488 42.0853 77.7952 43.7165L77.959 43.8796C79.5967 46.3264 79.5967 46.3264 80.2517 48.7732C80.743 50.7307 81.2344 51.8725 81.5619 52.525C80.9068 52.1988 79.5967 51.8725 77.959 51.7094C77.6314 51.7094 77.1401 51.7094 76.6488 51.7094C75.3386 51.7094 73.8647 51.5463 72.7183 51.3832C72.8821 50.4044 72.7183 49.0995 72.0632 47.7945C71.5719 46.9789 71.7357 45.8371 71.8995 44.5321C72.0632 43.5534 72.0632 42.4115 71.8995 41.1066C71.8995 41.2697 71.7357 41.2697 71.5719 41.4328C71.7357 42.5746 71.5719 43.7165 71.4082 44.5321C71.2444 45.8371 71.2444 46.9789 71.7357 47.9576C72.7183 49.9151 72.5546 51.8725 71.8995 52.525C71.4082 53.1775 72.3908 56.4399 73.2096 58.5605C73.0459 58.2342 72.8821 57.908 72.7183 57.5818C72.0632 56.2768 69.9342 54.9718 67.1501 53.9931C64.5298 53.1775 62.7284 51.22 61.9095 50.0782C61.582 49.752 61.2544 49.4257 60.7631 49.0995C59.6167 48.2839 58.1428 47.142 57.8153 44.5321C57.4877 42.2484 57.8153 41.5959 58.3066 40.7803C58.6341 40.291 58.9617 39.6385 59.1254 38.4966C59.2892 37.0285 58.9617 35.8867 58.7979 35.0711C58.4703 34.2555 58.3066 33.603 58.4704 32.6243C58.6341 31.8087 59.2892 31.1562 59.7805 30.5037C60.4356 29.6881 61.0907 28.8725 60.9269 27.7307C60.4356 25.447 58.4703 23.6526 54.7036 22.3477C53.2297 21.8583 51.1007 21.6952 48.8079 21.6952C44.3861 21.6952 39.6368 22.3477 38.6542 22.5108C38.6542 22.3477 38.6542 22.0214 38.818 21.8583C38.818 21.6952 38.9817 21.6952 39.1455 21.6952C41.1107 21.369 50.9369 20.064 56.5051 21.5321C61.582 22.837 63.2197 22.3477 65.3487 21.6952C65.6762 21.5321 66.0038 21.5321 66.3313 21.3689C67.6415 21.0427 68.2965 19.4115 68.9516 17.6172C69.7705 15.6597 70.5893 13.376 72.5546 12.3973C74.5198 11.4186 76.1575 11.7448 77.7952 12.0711C79.2691 12.3973 80.743 12.7236 82.3807 11.908C84.8373 10.7661 85.8199 11.0924 87.2938 11.4186C87.9489 11.5817 88.604 11.7448 89.5866 11.7448C91.0605 11.908 92.5345 11.5817 93.6809 11.4186C91.8794 12.5604 89.4229 14.0285 88.604 15.4966Z" fill="#180000"/>
<path d="M103.673 74.0571C103.509 74.0571 103.346 73.894 103.182 73.7309C102.363 73.0784 100.234 71.6103 98.5963 71.9365C98.2688 71.9365 97.9413 72.0996 97.4499 72.0996C94.9934 72.4259 91.5542 72.9153 90.4078 70.9578C90.0803 70.4684 89.9165 69.9791 89.7528 69.4897C89.0977 68.0216 88.6064 66.7167 86.9687 66.0642C86.8049 66.0642 86.6411 65.9011 86.4774 65.9011C84.1846 64.9223 81.5643 63.6174 82.7107 58.0713C83.0382 56.9294 83.202 56.1138 83.3658 55.4613C84.0208 52.8514 84.0208 52.8514 83.6933 51.8727C83.6933 51.7096 83.5295 51.5464 83.5295 51.3833C83.3657 51.0571 83.3657 50.7308 83.202 50.4046C82.5469 48.6103 81.5643 45.6741 80.2541 44.5323C78.6164 43.2273 77.47 41.2698 77.47 41.2698L77.7976 41.1067C77.7976 41.1067 78.9439 42.901 80.5816 44.206C82.0556 45.3478 82.8744 48.1209 83.6933 50.0784C83.8571 50.4046 83.8571 50.7308 84.0208 51.0571C84.0208 51.2202 84.1846 51.3833 84.1846 51.5464C84.5121 52.5252 84.5121 52.6883 84.0208 55.2982C83.8571 55.9507 83.6933 56.7663 83.3658 57.9082C82.2194 63.2911 84.8397 64.433 86.9687 65.4117C87.1325 65.4117 87.2962 65.5748 87.46 65.5748C89.2615 66.3904 89.7528 67.6954 90.4078 69.1635C90.5716 69.6528 90.8992 70.1422 91.0629 70.6316C92.0455 72.4259 95.4847 71.9365 97.7775 71.6103C98.2688 71.6103 98.5963 71.4472 98.9239 71.4472C100.234 71.2841 102.035 72.2628 103.182 72.9153C102.363 71.4472 101.217 68.511 100.889 64.9223C100.562 61.6599 99.2514 60.6812 97.7775 59.3762C96.9586 58.7237 95.976 57.9081 95.1572 56.6032C93.1919 53.8301 91.2267 53.5039 89.2615 53.3408C88.7701 53.3408 88.2788 53.1776 87.9513 53.1776C85.8223 52.8514 85.0035 50.4046 84.1846 48.284C83.6933 47.1422 83.3657 46.0003 82.8744 45.3479C81.073 42.9011 78.1251 39.8017 78.1251 39.8017L78.2889 39.6386C78.2889 39.6386 81.2367 42.7379 83.202 45.1847C83.6933 46.0003 84.1846 46.9791 84.6759 48.284C85.4947 50.4046 86.3136 52.6883 88.1151 53.0145C88.6064 53.0145 88.9339 53.1776 89.4252 53.1776C91.3905 53.3408 93.5195 53.667 95.6485 56.6032C96.4673 57.9081 97.4499 58.5606 98.2688 59.2131C99.7427 60.5181 101.053 61.4968 101.544 64.9223C102.035 69.3266 103.509 72.4259 104.165 73.4046C104.328 73.5677 104.492 73.7309 104.492 73.7309V73.894L103.673 74.0571Z" fill="#180000"/>
<path d="M101.218 63.1273C100.563 63.1273 100.071 62.9642 99.7437 62.4748L100.071 62.3117C100.726 63.2904 102.528 62.6379 104.002 62.1486C104.329 61.9855 104.657 61.8224 104.984 61.8224C105.803 61.6592 106.131 61.6592 106.622 61.8224C107.277 61.9855 108.26 62.3117 111.535 62.1486C116.121 61.8223 116.448 59.7018 116.94 57.255C117.103 56.7656 117.103 56.1131 117.267 55.4607C117.758 53.6663 119.724 52.1982 121.198 51.3826C120.051 51.5458 118.741 51.7089 117.595 51.0564C116.94 50.7302 116.284 50.2408 115.957 49.9145C114.811 49.0989 113.992 48.4464 111.535 49.0989C110.389 49.4252 109.734 49.7514 109.406 49.9145C108.424 50.4039 108.26 50.4039 105.967 49.9145C102.692 49.262 100.563 51.3826 99.2524 53.0138L99.0886 53.1769C97.6147 54.8082 95.6495 57.4181 95.6495 57.4181L95.4857 57.255C95.4857 57.255 97.451 54.645 98.9249 53.0138L99.0886 52.8507C100.563 51.2195 102.692 48.9358 106.131 49.5883C108.424 50.0777 108.587 49.9145 109.406 49.5883C109.897 49.4252 110.553 49.0989 111.535 48.7727C114.155 47.9571 114.974 48.6096 116.121 49.5883C116.612 49.9145 117.103 50.4039 117.758 50.7301C119.396 51.5457 121.525 51.0564 122.672 50.567C123.163 50.4039 123.327 50.2408 123.49 50.2408L123.654 50.567C123.654 50.567 123.327 50.7301 122.835 50.8933C121.361 51.5457 118.25 53.177 117.595 55.4607C117.431 56.1131 117.267 56.6025 117.267 57.255C116.776 59.7018 116.284 61.9855 111.535 62.4748C108.26 62.8011 107.113 62.3117 106.458 62.1486C105.967 61.9855 105.803 61.9855 104.984 62.1486C104.657 62.3117 104.329 62.3117 104.002 62.4748C103.183 62.8011 102.037 63.1273 101.218 63.1273Z" fill="#180000"/>
<path d="M111.373 68.0215C110.39 68.0215 109.407 68.0215 108.425 67.8584C103.675 67.0428 100.564 65.2485 100.564 65.2485L100.728 64.9222C100.728 64.9222 103.839 66.8797 108.589 67.5322C110.39 67.8584 112.191 67.8584 113.993 67.5322V67.8584C113.01 67.8584 112.191 68.0215 111.373 68.0215Z" fill="#180000"/>
<path d="M139.205 65.4116C139.041 65.4116 138.714 65.4116 138.386 65.4116C136.749 65.0853 135.438 64.2697 134.128 63.4541C132.654 62.4754 131.508 61.6598 129.87 62.1491C128.724 62.4754 127.577 63.1279 126.267 63.7804L126.104 63.4541C127.414 62.8016 128.56 62.1491 129.706 61.8229C131.344 61.3335 132.654 62.1492 134.128 63.291C135.275 64.1066 136.585 64.9222 138.223 65.2485C139.86 65.5747 140.515 64.9222 141.334 64.1066C142.153 63.291 143.299 62.1492 145.92 61.986C149.686 61.6598 149.85 61.1704 150.669 59.7023C150.833 59.213 151.16 58.7236 151.652 57.908C152.962 55.9506 156.728 54.1562 158.53 53.1775C157.22 53.3406 155.255 53.1775 152.962 51.8726C150.178 50.2414 150.014 50.4045 148.54 50.4045C148.049 50.4045 147.394 50.5676 146.411 50.5676C145.265 50.5676 144.118 50.2413 143.136 49.752C140.679 48.9364 138.55 48.1208 134.947 51.8726C131.999 55.135 131.508 56.9293 131.18 58.2343C130.853 59.213 130.689 59.8655 129.706 60.5179C129.379 60.8442 128.069 61.6598 125.94 62.9647L125.776 62.6385C127.905 61.4967 129.215 60.5179 129.543 60.1917C130.525 59.5392 130.689 58.8867 130.853 58.0711C131.18 56.7662 131.672 54.9718 134.62 51.7094C138.222 47.6314 140.679 48.6101 143.136 49.4258C144.118 49.752 145.265 50.2414 146.411 50.2414C147.394 50.2414 148.049 50.2413 148.54 50.0782C150.178 49.9151 150.341 49.9151 153.126 51.5463C156.728 53.6669 159.676 52.525 159.676 52.525L159.84 52.8513C159.84 52.8513 153.781 55.4612 151.979 58.0711C151.488 58.7236 151.324 59.213 150.997 59.7023C150.341 61.1704 150.014 61.8229 146.083 62.1491C143.463 62.3123 142.481 63.291 141.662 64.2697C141.17 64.7591 140.515 65.4116 139.205 65.4116Z" fill="#180000"/>
<path d="M112.508 67.0428C106.121 67.0428 100.553 64.1067 100.389 63.9435L100.553 63.6173C100.553 63.6173 106.612 66.8797 113.163 66.5535V66.8797C112.999 67.0428 112.672 67.0428 112.508 67.0428Z" fill="#180000"/>
<path d="M123.491 92.9795C123.491 92.9795 120.052 89.8802 118.25 89.8802C117.923 89.8802 117.595 89.8802 117.431 89.8802C115.957 89.8802 114.32 90.0433 112.846 88.9015C112.354 88.5752 112.191 88.249 112.027 88.0859C111.863 87.9228 111.863 87.9228 111.372 87.7596C111.044 87.5965 110.717 87.5965 110.062 87.2703C107.933 86.4547 104.33 84.3341 104.33 79.7667C104.33 75.5256 104.657 75.0362 105.804 73.405C106.786 72.1001 107.769 69.4901 106.131 68.022C105.312 67.3695 104.657 66.8802 104.002 66.554L104.166 66.2277C105.149 66.5539 106.295 67.5327 107.441 68.6745C108.915 69.9795 110.389 71.2845 111.536 71.4476C113.665 71.7738 114.156 71.9369 115.957 74.0575C116.94 75.1993 116.94 75.8518 116.94 76.1781C116.94 76.6674 116.94 76.8306 117.595 77.483C118.905 78.6249 120.543 80.093 121.034 84.8235C121.362 89.8802 123.655 92.327 123.818 92.4901L123.491 92.9795ZM118.25 89.7171C119.56 89.7171 121.362 91.022 122.672 92.0008C121.853 90.8589 120.87 88.5752 120.707 85.1497C120.379 80.4192 118.741 79.1142 117.431 77.9724C116.776 77.3199 116.612 76.9937 116.612 76.5043C116.612 76.0149 116.612 75.5256 115.63 74.5469C113.992 72.4263 113.665 72.4263 111.372 72.1C110.062 71.9369 108.588 70.4688 107.114 69.1639C107.769 70.7951 106.95 72.7525 106.131 73.8944C104.985 75.3625 104.657 76.0149 104.657 80.0929C104.657 84.4972 108.096 86.4547 110.225 87.2703C110.881 87.5965 111.372 87.5965 111.536 87.7596C112.027 87.9228 112.027 87.9228 112.191 88.0859C112.354 88.249 112.518 88.4121 113.01 88.7384C114.32 89.8802 115.794 89.7171 117.431 89.7171C117.759 89.7171 117.923 89.7171 118.25 89.7171Z" fill="#180000"/>
<path d="M136.59 50.2416L136.426 50.0784C138.392 47.9579 138.883 46.816 139.211 45.6742C139.374 45.3479 139.374 45.1848 139.538 44.8586C139.702 44.3692 140.029 43.8798 140.193 43.2274C141.34 40.7805 142.977 36.8656 142.158 35.2344C141.34 33.7663 140.193 33.277 139.047 32.7876C137.737 32.1351 136.426 31.6458 135.608 29.8515C134.625 27.894 134.461 26.7522 134.297 25.9366C134.134 25.2841 134.134 24.6316 133.642 23.9791C133.315 23.3266 132.987 23.1635 132.66 23.0004C132.168 22.8373 131.841 22.511 131.022 20.5536C130.367 18.9224 130.367 17.9436 130.531 17.128C130.695 16.3124 130.695 15.6599 130.203 14.5181C129.057 12.2344 128.566 11.7451 128.566 11.7451L128.238 11.5819H128.729C128.729 11.5819 131.513 11.4188 134.297 12.5607C135.935 13.2131 136.59 13.7025 137.082 14.1919C137.573 14.5181 137.9 14.8444 138.392 15.0075C139.702 15.3337 141.176 17.128 141.667 19.0855C141.831 19.738 142.486 20.2273 143.305 20.8798C144.779 22.0217 146.744 23.6529 145.925 26.7522C145.27 28.8727 144.779 30.1777 144.287 31.1564C143.796 32.2983 143.469 33.1139 143.469 34.0926C143.632 37.355 143.305 39.8018 142.65 41.433C141.667 43.3905 139.374 49.2628 139.374 49.2628L139.047 49.0997C139.047 49.0997 141.503 43.2274 142.322 41.2699C142.977 39.8018 143.305 37.355 143.141 34.0926C143.141 32.9507 143.469 32.1352 143.96 30.9933C144.451 30.0146 144.943 28.7096 145.598 26.5891C146.416 23.6529 144.615 22.1848 143.141 21.0429C142.322 20.3904 141.667 19.9011 141.503 19.0855C141.012 17.2912 139.702 15.6599 138.392 15.3337C137.737 15.1706 137.409 14.8443 136.918 14.5181C136.426 14.0287 135.608 13.5394 134.134 12.8869C132.005 12.0713 129.876 11.9082 129.057 11.9082C129.384 12.2344 129.876 12.8869 130.531 14.5181C131.186 15.6599 131.022 16.4755 130.858 17.2912C130.695 18.1068 130.695 18.9224 131.35 20.5536C132.168 22.3479 132.496 22.511 132.824 22.8373C133.151 23.0004 133.479 23.1635 133.806 23.816C134.297 24.6316 134.297 25.2841 134.461 25.9366C134.625 26.9153 134.789 27.894 135.608 29.8515C136.426 31.4827 137.737 32.1352 139.047 32.6245C140.193 33.1139 141.503 33.7663 142.322 35.2344C143.305 37.0288 141.667 40.7805 140.357 43.5536C140.029 44.2061 139.866 44.8586 139.702 45.1848C139.538 45.511 139.538 45.6742 139.374 46.0004C139.047 46.816 138.719 48.121 136.59 50.2416Z" fill="#180000"/>
<path d="M142.976 37.0285V36.7023C142.976 36.7023 142.976 35.3973 144.287 34.7449C144.778 34.4186 145.105 33.603 145.269 32.7874C145.597 31.6455 145.924 30.3406 147.071 30.0143C148.053 29.6881 148.053 29.6881 147.889 29.1987C147.889 28.8725 147.726 28.5463 147.889 27.8938V27.7307C148.217 26.2626 148.381 25.6101 150.674 24.4683C151.984 23.8158 152.475 23.9789 152.803 24.4683C153.13 24.6314 153.294 24.9576 153.949 24.7945C154.604 24.6314 154.768 24.4683 155.095 24.142C155.587 23.6527 156.242 23.3264 158.207 23.0002C160.991 22.6739 162.301 21.6952 162.629 21.5321H162.793L162.956 21.6952C162.956 21.6952 162.956 21.6952 162.793 21.8583C162.465 22.1846 161.155 23.4895 161.319 25.6101C161.482 28.22 160.5 28.5463 159.026 29.1987H158.862C157.879 29.525 157.879 30.0144 157.879 30.6668C157.879 30.83 157.879 31.1562 157.879 31.4824C157.879 31.6456 157.879 31.8087 157.879 32.1349C158.043 33.1136 158.043 34.4186 155.095 34.908C154.113 35.0711 153.458 35.2342 152.966 35.2342C151.492 35.3973 151.165 35.5604 150.51 36.0498C150.346 36.2129 150.182 36.3761 150.019 36.5392C149.527 37.0285 149.2 37.1917 147.726 36.8654C147.234 36.7023 146.907 36.5392 146.579 36.5392C145.269 36.0498 144.45 35.7236 142.813 37.1917L142.976 37.0285ZM145.433 35.3973C146.088 35.3973 146.579 35.5605 147.234 35.8867C147.562 36.0498 147.89 36.2129 148.381 36.2129C149.691 36.5392 150.019 36.376 150.346 36.0498C150.51 35.8867 150.674 35.7236 150.837 35.5605C151.492 35.0711 151.82 35.0711 153.458 34.7449C153.949 34.5817 154.768 34.5817 155.587 34.4186C158.207 33.9292 158.207 32.7874 158.043 31.9718C158.043 31.6455 158.043 31.4824 158.043 31.3193C158.043 31.1562 158.043 30.83 158.043 30.6668C158.043 30.0144 158.043 29.3619 159.19 28.8725H159.353C160.827 28.22 161.646 27.8938 161.482 25.6101C161.482 24.142 161.974 23.1633 162.465 22.3477C161.646 22.6739 160.5 23.1633 158.698 23.3264C156.733 23.4895 156.242 23.9789 155.75 24.3051C155.423 24.6314 155.095 24.7945 154.44 24.9576C153.621 25.1207 153.294 24.7945 153.13 24.6314C152.803 24.3051 152.475 24.142 151.329 24.7945C149.2 25.9363 149.036 26.5888 148.708 27.8938V28.0569C148.545 28.5463 148.708 28.8725 148.708 29.1987C148.872 29.6881 148.708 30.0143 147.562 30.3406C146.579 30.6668 146.252 31.8087 145.924 32.7874C145.597 33.7661 145.433 34.5817 144.778 34.908C143.959 35.2342 143.795 35.8867 143.631 36.2129C144.123 35.5605 144.942 35.3973 145.433 35.3973Z" fill="#180000"/>
<path d="M151.165 24.6312L150.838 24.4681C151.984 22.5107 151.493 20.7163 150.838 19.0851C150.838 18.922 150.674 18.7589 150.674 18.5958C150.019 16.6383 150.51 15.6596 151.002 15.1702C151.002 15.0071 151.165 15.0071 151.165 15.0071C151.493 14.6809 151.657 14.5177 152.476 12.3972C153.131 10.766 152.476 9.13475 151.821 7.82979C151.493 7.1773 151.329 6.68794 151.165 6.19858C151.002 5.5461 151.329 4.40426 151.493 3.42553C150.838 4.24114 149.692 5.38297 147.89 6.3617C143.796 8.64539 142.977 9.13475 142.158 10.2766C141.667 10.9291 141.831 11.7447 141.831 12.3972C141.831 13.0497 141.994 13.539 141.667 13.8653C141.503 14.1915 141.175 14.5177 140.848 14.6809C140.357 15.0071 140.029 15.3333 139.702 16.1489L139.374 15.9858C139.702 15.1702 140.193 14.6809 140.684 14.3546C141.012 14.1915 141.175 13.8653 141.339 13.7021C141.503 13.3759 141.503 12.8865 141.339 12.3972C141.175 11.5816 141.175 10.766 141.667 9.95036C142.486 8.6454 143.468 8.15603 147.563 5.87234C150.183 4.40426 151.165 2.93617 151.657 1.95744C151.821 1.46808 151.984 1.14184 151.984 1.14184L152.476 0L152.312 1.30496C152.312 1.30496 152.312 1.6312 151.984 2.28368C151.657 3.42553 151.165 5.21986 151.329 6.03546C151.329 6.52482 151.657 7.01419 151.821 7.66667C152.476 8.97163 153.131 10.766 152.476 12.3972C151.657 14.5177 151.493 14.6809 151.002 15.0071L150.838 15.1702C150.347 15.6596 150.019 16.4752 150.674 18.2695C150.674 18.4326 150.838 18.5958 150.838 18.7589C151.821 20.7163 152.476 22.6738 151.165 24.6312Z" fill="#180000"/>
<path d="M143.308 35.3979L142.981 35.2347C142.981 35.2347 143.472 34.4191 143.963 33.2773C144.618 32.1355 145.765 31.483 145.765 31.3199L145.928 31.6461C145.928 31.6461 144.782 32.2986 144.127 33.4404C143.799 34.4192 143.308 35.2348 143.308 35.3979Z" fill="#180000"/>
<path d="M127.748 61.8233L127.585 61.6602C127.585 61.6602 129.714 59.8659 128.567 55.4616C128.076 53.9936 127.585 52.5255 126.93 51.2205C125.783 48.7737 124.637 46.49 125.783 43.8801C127.257 39.9652 126.274 35.724 126.274 35.5609L126.602 35.3978L128.403 40.4545C128.895 41.7595 129.55 42.5751 130.205 43.2276C130.86 43.8801 131.515 44.5326 131.679 46.0006C131.843 47.4687 131.351 48.6106 130.86 49.5893C130.369 50.568 130.041 51.3836 130.369 52.1992C130.696 53.5042 130.532 54.4829 130.205 55.2985C130.041 55.7879 129.877 56.2773 130.041 56.7666C130.041 58.0716 129.386 60.6815 129.222 60.6815L128.895 60.5184C128.895 60.5184 129.714 57.9085 129.714 56.6035C129.714 56.1141 129.877 55.6248 130.041 55.1354C130.205 54.3198 130.532 53.3411 130.205 52.1992C129.877 51.2205 130.369 50.2418 130.696 49.2631C131.188 48.2843 131.679 47.1425 131.351 45.8375C131.188 44.5325 130.532 43.8801 129.877 43.2276C129.222 42.5751 128.567 41.9226 128.076 40.4545L126.766 37.029C126.93 38.6602 127.093 41.2701 126.111 43.8801C125.128 46.49 126.111 48.6106 127.257 51.0574C127.912 52.3624 128.567 53.6673 128.895 55.2985C130.041 59.8659 127.748 61.8233 127.748 61.8233Z" fill="#180000"/>
<path d="M126.591 71.2841C125.117 71.2841 124.462 70.6316 123.807 69.9791C123.152 69.3266 122.66 68.8373 121.678 69.1635C119.549 69.4898 115.782 70.3054 112.998 67.0429C110.378 63.7805 107.43 63.1281 104.318 62.4756V62.1493C107.594 62.9649 110.541 63.6174 113.162 66.8798C115.618 69.9791 119.385 69.3266 121.514 68.8373C122.824 68.6742 123.315 69.1635 123.97 69.816C124.626 70.4685 125.281 71.121 126.918 70.9579C128.392 70.7947 131.995 70.9579 133.633 70.9579C131.995 70.3054 128.884 68.6742 126.918 64.9224C125.444 61.8231 123.643 60.0288 121.35 59.5394C118.402 58.7238 115.946 60.5181 115.946 60.5181L115.782 60.355C115.946 60.355 118.402 58.5607 121.514 59.3763C123.807 60.0288 125.772 61.8231 127.246 64.9224C129.702 69.9791 134.616 71.121 134.616 71.121V71.4472C134.616 71.4472 128.72 71.2841 126.918 71.4472C126.918 71.2841 126.755 71.2841 126.591 71.2841Z" fill="#180000"/>
<path d="M9.17112 38.0085H11.7914V43.0652C11.1364 43.5546 10.3175 44.044 9.49865 44.2071C8.67981 44.3702 7.69719 44.6964 6.71457 44.6964C5.40441 44.6964 4.25802 44.3702 3.2754 43.8808C2.29278 43.3915 1.47393 42.5759 0.818849 41.5972C0.16377 40.6184 0 39.4766 0 38.3347C0 37.0298 0.32754 36.0511 0.818849 35.0723C1.47393 34.0936 2.29278 33.278 3.2754 32.7886C4.25802 32.2993 5.56818 31.973 6.87834 31.973C8.02473 31.973 9.00734 32.1361 9.82619 32.4624C10.645 32.7886 11.4639 33.4411 12.119 34.0936L10.3175 35.7248C9.49865 34.7461 8.35227 34.2567 7.04211 34.2567C6.22326 34.2567 5.56817 34.4199 4.91309 34.7461C4.25802 35.0723 3.76672 35.5617 3.43918 36.2142C3.11164 36.8667 2.94786 37.5191 2.94786 38.3347C2.94786 39.1503 3.11164 39.8028 3.43918 40.4553C3.76672 41.1078 4.25802 41.5972 4.91309 41.9234C5.56817 42.2496 6.22326 42.4128 7.04211 42.4128C7.86096 42.4128 8.67981 42.2496 9.33489 41.9234V38.0085H9.17112Z" fill="#180000"/>
<path d="M24.238 43.88C23.2554 43.3907 22.4365 42.5751 21.7815 41.5963C21.1264 40.6176 20.9626 39.4758 20.9626 38.3339C20.9626 37.029 21.2902 36.0502 21.7815 35.0715C22.4365 34.0928 23.2554 33.2772 24.238 32.7878C25.2206 32.2984 26.5308 31.9722 27.6772 31.9722C28.9873 31.9722 30.1337 32.2984 31.1163 32.7878C32.099 33.2772 32.9178 34.0928 33.5729 35.0715C34.228 36.0502 34.3917 37.1921 34.3917 38.3339C34.3917 39.6389 34.0642 40.6176 33.5729 41.5963C32.9178 42.5751 32.099 43.3907 31.1163 43.88C30.1337 44.3694 28.9873 44.6956 27.6772 44.6956C26.5308 44.6956 25.2206 44.3694 24.238 43.88ZM29.8062 41.7594C30.4613 41.4332 30.9526 40.9438 31.2801 40.2914C31.6077 39.6389 31.7714 38.9864 31.7714 38.1708C31.7714 37.3552 31.6077 36.7027 31.2801 36.0502C30.9526 35.3977 30.4613 34.9084 29.8062 34.5821C29.1511 34.2559 28.496 34.0928 27.8409 34.0928C27.0221 34.0928 26.367 34.2559 25.8757 34.5821C25.2206 34.9084 24.7293 35.3977 24.4018 36.0502C24.0742 36.7027 23.9105 37.3552 23.9105 38.1708C23.9105 38.9864 24.0742 39.6389 24.4018 40.2914C24.7293 40.9438 25.2206 41.4332 25.8757 41.7594C26.5308 42.0857 27.1859 42.2488 27.8409 42.2488C28.496 42.2488 29.1511 42.0857 29.8062 41.7594Z" fill="#180000"/>
<path d="M44.0564 31.9722H47.0043V42.0857H53.2275V44.3694H44.0564V31.9722Z" fill="#180000"/>
<path d="M61.9021 31.9722H67.634C68.9442 31.9722 70.2544 32.2984 71.237 32.7878C72.2196 33.2772 73.0384 34.0928 73.6935 34.9084C74.3486 35.8871 74.5124 36.8658 74.5124 38.1708C74.5124 39.4758 74.1848 40.4545 73.6935 41.4332C73.0384 42.4119 72.3834 43.0644 71.237 43.5538C70.2544 44.0431 68.9442 44.3694 67.634 44.3694H61.9021V31.9722ZM67.4703 42.0857C68.7804 42.0857 69.763 41.7594 70.4181 41.107C71.237 40.4545 71.5645 39.4758 71.5645 38.3339C71.5645 37.1921 71.237 36.2134 70.4181 35.5609C69.5993 34.9084 68.6167 34.5821 67.4703 34.5821H64.85V42.2488H67.4703V42.0857Z" fill="#180000"/>
<path d="M93.6782 42.2488V44.5325H84.0157V31.9722H93.5144V34.2559H86.9636V37.029H92.8593V39.3126H86.9636V42.2488H93.6782Z" fill="#180000"/>
<path d="M114.638 31.9722V44.5325H112.182L105.958 37.029V44.5325H103.174V31.9722H105.631L111.854 39.4758V31.9722H114.638Z" fill="#180000"/>
<path d="M151.813 34.4198H147.883V32.1361H158.855V34.4198H154.925V44.5333H151.977V34.4198H151.813Z" fill="#180000"/>
<path d="M175.399 44.5325L172.942 41.107H172.778H170.322V44.5325H167.374V31.9722H172.778C173.925 31.9722 174.907 32.1353 175.726 32.4616C176.545 32.7878 177.2 33.2772 177.692 34.0928C178.183 34.7453 178.347 35.5609 178.347 36.5396C178.347 37.5183 178.183 38.3339 177.692 38.9864C177.2 39.6389 176.545 40.1283 175.726 40.4545L178.51 44.5325H175.399ZM174.744 34.9084C174.252 34.5821 173.597 34.419 172.778 34.419H170.486V38.8233H172.778C173.597 38.8233 174.252 38.6602 174.744 38.3339C175.235 38.0077 175.399 37.3552 175.399 36.7027C175.399 35.8871 175.071 35.2346 174.744 34.9084Z" fill="#180000"/>
<path d="M197.501 42.2488V44.5325H187.838V31.9722H197.337V34.2559H190.786V37.029H196.682V39.3126H190.786V42.2488H197.501Z" fill="#180000"/>
<path d="M216.667 42.2488V44.5325H207.004V31.9722H216.503V34.2559H209.952V37.029H215.848V39.3126H209.952V42.2488H216.667Z" fill="#180000"/>
</svg>
