<svg width="49" height="15" viewBox="0 0 49 15" fill="none" xmlns="http://www.w3.org/2000/svg">
<path d="M6.634 0.00799918C7.61667 0.00799918 8.51133 0.132666 9.318 0.382C10.1247 0.616666 10.7847 0.968666 11.298 1.438C12.222 2.274 12.8673 3.19067 13.234 4.188C13.6153 5.17067 13.806 6.432 13.806 7.972C13.806 8.29467 13.762 8.588 13.674 8.852C13.6007 9.116 13.476 9.45333 13.3 9.864C13.08 10.3187 12.948 10.678 12.904 10.942C12.6107 11.4553 12.1267 11.9467 11.452 12.416C10.792 12.8853 10.0733 13.2667 9.296 13.56C8.51867 13.8533 7.83667 14 7.25 14C4.41933 14 2.40267 13.032 1.2 11.096C0.862667 10.5533 0.598667 9.98867 0.408 9.402C0.232 8.81533 0.144 8.24333 0.144 7.686C0.144 6.19 0.408 4.892 0.936 3.792C1.47867 2.67733 2.22667 1.812 3.18 1.196C3.752 0.858666 4.346 0.58 4.962 0.36C5.59267 0.125333 6.15 0.00799918 6.634 0.00799918ZM2.432 7.752C2.432 8.544 2.608 9.19667 2.96 9.71C3.32667 10.2233 3.884 10.7807 4.632 11.382C5.248 11.6167 5.666 11.7707 5.886 11.844C6.106 11.9027 6.35533 11.932 6.634 11.932C8.11533 11.932 9.296 11.5287 10.176 10.722C11.056 9.91533 11.496 8.808 11.496 7.4C11.496 6.28533 11.3713 5.40533 11.122 4.76C10.8727 4.11467 10.4253 3.53533 9.78 3.022C9.44267 2.74333 9.01 2.538 8.482 2.406C7.96867 2.274 7.41133 2.208 6.81 2.208C5.90067 2.208 5.116 2.47933 4.456 3.022C3.796 3.55 3.29 4.23933 2.938 5.09C2.60067 5.94067 2.432 6.828 2.432 7.752ZM30.3194 0.0959994C30.5247 0.0959994 30.7741 0.235333 31.0674 0.513999C31.3754 0.777999 31.5294 1.00533 31.5294 1.196C31.5294 2.09067 31.5001 3.31533 31.4414 4.87C31.4267 5.25133 31.4121 5.71333 31.3974 6.256C31.3827 6.784 31.3754 7.4 31.3754 8.104C31.3754 10.3333 31.5074 11.976 31.7714 13.032C31.7567 13.384 31.6174 13.6407 31.3534 13.802C31.0894 13.9487 30.8254 14.022 30.5614 14.022C29.9747 14.022 29.5861 13.8167 29.3954 13.406C29.2194 12.9953 29.1314 12.4087 29.1314 11.646C29.1314 8.81533 29.1607 6.212 29.2194 3.836C27.5327 5.71333 26.2201 7.29 25.2814 8.566C25.2814 8.566 25.1494 8.654 24.8854 8.83C24.6361 9.05 24.4307 9.16 24.2694 9.16C23.8881 9.16 23.5727 9.06467 23.3234 8.874C23.0741 8.68333 22.8321 8.40467 22.5974 8.038L21.5414 6.542C20.8081 5.51533 20.2727 4.738 19.9354 4.21C19.9354 5.55933 20.0014 7.39267 20.1334 9.71C20.2361 11.0447 20.2874 12.0493 20.2874 12.724C20.2874 13.076 20.1994 13.3767 20.0234 13.626C19.8474 13.8607 19.5687 13.978 19.1874 13.978C18.8061 13.978 18.4907 13.9047 18.2414 13.758C18.0067 13.6113 17.8821 13.3913 17.8674 13.098C17.8821 12.8487 17.8894 12.438 17.8894 11.866C17.8894 10.722 17.8527 9.32867 17.7794 7.686L17.7354 6.498L17.6914 4.958C17.6767 4.50333 17.6621 3.97533 17.6474 3.374C17.6327 2.758 17.6254 2.09067 17.6254 1.372C17.6254 0.492 18.1021 0.0519999 19.0554 0.0519999C19.3487 0.0519999 19.6421 0.125333 19.9354 0.272C20.2434 0.418666 20.4707 0.631333 20.6174 0.909999C20.7347 1.42333 21.1674 2.274 21.9154 3.462C22.6634 4.65 23.3967 5.76467 24.1154 6.806C24.7607 5.98467 25.2887 5.36867 25.6994 4.958C26.4034 4.23933 26.9827 3.572 27.4374 2.956C27.9067 2.34 28.4127 1.59933 28.9554 0.733999C29.0874 0.558 29.2781 0.411333 29.5274 0.293999C29.7767 0.161999 30.0407 0.0959994 30.3194 0.0959994ZM46.1183 3.814C45.8983 3.66733 45.6857 3.49867 45.4803 3.308C44.9523 2.89733 44.505 2.59667 44.1383 2.406C43.7717 2.20067 43.361 2.098 42.9063 2.098C42.261 2.098 41.6157 2.17867 40.9703 2.34C40.3397 2.50133 39.819 2.72867 39.4083 3.022C38.7923 3.47667 38.3743 4.078 38.1543 4.826C37.9343 5.55933 37.8243 6.46133 37.8243 7.532C37.8243 8.66133 38.1763 9.666 38.8803 10.546C39.3057 11.03 39.819 11.404 40.4203 11.668C41.0363 11.932 41.6523 12.064 42.2683 12.064C43.691 12.064 44.747 11.668 45.4363 10.876C45.935 10.2453 46.1843 9.47533 46.1843 8.566C46.1843 8.40467 46.067 8.29467 45.8323 8.236C45.5977 8.17733 45.2603 8.148 44.8203 8.148C44.6003 8.148 44.2557 8.11867 43.7863 8.06C43.6543 8.04533 43.5077 8.03067 43.3463 8.016C43.1997 8.00133 43.0457 7.994 42.8843 7.994C42.459 7.994 42.1217 7.91333 41.8723 7.752C41.623 7.59067 41.4983 7.38533 41.4983 7.136C41.4983 6.784 41.6157 6.52733 41.8503 6.366C42.085 6.19 42.4003 6.102 42.7963 6.102C43.251 6.102 43.9477 6.13133 44.8863 6.19C45.7663 6.24867 46.3897 6.278 46.7563 6.278C47.2697 6.278 47.6803 6.43933 47.9883 6.762C48.311 7.08467 48.4723 7.554 48.4723 8.17C48.4723 8.742 48.3477 9.40933 48.0983 10.172C47.849 10.9347 47.497 11.6167 47.0423 12.218C46.6023 12.8193 45.9497 13.2813 45.0843 13.604C44.2337 13.9267 43.295 14.088 42.2683 14.088C41.4323 14.088 40.6037 13.9413 39.7823 13.648C38.961 13.34 38.2717 12.9293 37.7143 12.416C37.0397 11.7853 36.5043 11.0373 36.1083 10.172C35.727 9.292 35.5363 8.41933 35.5363 7.554C35.5363 6.21933 35.771 4.97267 36.2403 3.814C36.7243 2.64067 37.4577 1.73133 38.4403 1.086C38.8803 0.792666 39.555 0.550666 40.4643 0.36C41.3737 0.169333 42.173 0.0739996 42.8623 0.0739996C43.8303 0.0739996 44.7103 0.286666 45.5023 0.711999C46.2943 1.13733 46.9103 1.66533 47.3503 2.296C47.5263 2.56 47.6143 2.79467 47.6143 3C47.6143 3.23467 47.5117 3.45467 47.3063 3.66C47.101 3.86533 46.8957 3.968 46.6903 3.968C46.6023 3.968 46.4997 3.95333 46.3823 3.924C46.265 3.89467 46.177 3.858 46.1183 3.814Z" fill="#FF5C6F"/>
</svg>
