<svg width="47" height="15" viewBox="0 0 47 15" fill="none" xmlns="http://www.w3.org/2000/svg">
<path d="M9.78 1.636C9.78 1.21067 9.87533 0.843999 10.066 0.535999C10.2713 0.213333 10.572 0.0519999 10.968 0.0519999C11.3053 0.0519999 11.606 0.118 11.87 0.25C12.134 0.381999 12.266 0.601999 12.266 0.909999C12.266 1.51133 12.2367 2.35467 12.178 3.44C12.1193 4.496 12.09 5.28067 12.09 5.794C12.09 6.60067 12.1193 7.67867 12.178 9.028C12.2367 10.3187 12.266 11.2647 12.266 11.866C12.266 12.35 12.2587 12.7093 12.244 12.944C12.244 13.1787 12.112 13.4133 11.848 13.648C11.5987 13.868 11.21 13.978 10.682 13.978C10.4033 13.978 10.1613 13.934 9.956 13.846C9.76533 13.7433 9.63333 13.6333 9.56 13.516C8.87067 12.68 7.866 11.2573 6.546 9.248C5.06467 7.004 3.85467 5.288 2.916 4.1C3.03333 5.156 3.092 6.44667 3.092 7.972C3.092 8.64667 3.07733 9.52667 3.048 10.612C3.03333 11.6827 3.004 12.3867 2.96 12.724C2.90133 13.1493 2.76933 13.4793 2.564 13.714C2.37333 13.934 2.06533 14.044 1.64 14.044C1.31733 14.044 1.07533 13.956 0.914 13.78C0.767333 13.5893 0.679333 13.2667 0.65 12.812C0.635333 12.2107 0.672 11.3087 0.76 10.106C0.774667 9.91533 0.796667 9.58533 0.826 9.116C0.855333 8.64667 0.87 8.22867 0.87 7.862C0.87 6.85 0.818667 5.69133 0.716 4.386C0.628 2.94867 0.584 1.88533 0.584 1.196C0.584 0.844 0.708667 0.572666 0.958 0.382C1.222 0.191333 1.52267 0.0959994 1.86 0.0959994C2.15333 0.0959994 2.46133 0.169333 2.784 0.315999C4.04533 1.9 5.754 4.26133 7.91 7.4L9.978 10.568C9.99267 10.3333 10 10.0033 10 9.578C10 8.83 9.98533 8.02333 9.956 7.158C9.92667 6.29267 9.90467 5.706 9.89 5.398C9.81667 3.97533 9.78 2.72133 9.78 1.636ZM25.5497 11.008C25.8284 11.008 26.0337 11.118 26.1657 11.338C26.3124 11.5433 26.3857 11.7707 26.3857 12.02C26.3857 12.328 26.3344 12.548 26.2317 12.68C26.1437 12.7973 25.9677 12.922 25.7037 13.054C25.0877 13.3473 24.325 13.582 23.4157 13.758C22.5064 13.934 21.531 14.022 20.4897 14.022C19.1844 14.022 18.2237 13.802 17.6077 13.362C17.0064 12.922 16.6324 12.394 16.4857 11.778C16.3537 11.1473 16.2877 10.326 16.2877 9.314C16.2877 8.22867 16.3317 7.16533 16.4197 6.124C16.5077 5.068 16.6617 3.726 16.8817 2.098C16.9844 1.394 17.263 0.887999 17.7177 0.58C18.1724 0.257333 18.671 0.0959994 19.2137 0.0959994C19.6684 0.0959994 20.409 0.0813329 21.4357 0.0519999L23.3497 0.0299989C24.1417 0.0299989 24.7137 0.0519991 25.0657 0.0959994C25.5057 0.183999 25.8284 0.286666 26.0337 0.403999C26.2537 0.506666 26.3637 0.69 26.3637 0.953999C26.3637 1.24733 26.261 1.53333 26.0557 1.812C25.865 2.09067 25.5717 2.23 25.1757 2.23C24.721 2.23 24.0684 2.20067 23.2177 2.142C22.367 2.08333 21.729 2.054 21.3037 2.054C20.937 2.054 20.5777 2.076 20.2257 2.12C19.815 2.14933 19.5217 2.20067 19.3457 2.274C19.1697 2.34733 19.067 2.472 19.0377 2.648C18.8324 4.15867 18.7297 5.27333 18.7297 5.992C19.067 6.036 19.397 6.058 19.7197 6.058C20.1304 6.058 20.5704 6.036 21.0397 5.992C21.509 5.948 21.8097 5.91867 21.9417 5.904C22.719 5.83067 23.3864 5.794 23.9437 5.794C24.2664 5.794 24.5084 5.85267 24.6697 5.97C24.8457 6.08733 24.9337 6.24867 24.9337 6.454C24.9337 6.77667 24.8457 7.026 24.6697 7.202C24.5084 7.378 24.215 7.51 23.7897 7.598C23.2764 7.70067 22.6384 7.78133 21.8757 7.84C21.1277 7.89867 20.3944 7.928 19.6757 7.928C19.4264 7.928 19.0817 7.91333 18.6417 7.884C18.5977 8.77867 18.5757 9.60733 18.5757 10.37C18.5757 11.4113 19.265 11.932 20.6437 11.932C21.377 11.932 21.9857 11.8807 22.4697 11.778C22.9537 11.6753 23.511 11.5287 24.1417 11.338C24.7284 11.118 25.1977 11.008 25.5497 11.008ZM44.1124 1.284C44.2004 0.975999 44.3324 0.726666 44.5084 0.535999C44.6844 0.330666 44.875 0.227999 45.0804 0.227999C45.579 0.227999 45.9384 0.323332 46.1584 0.513999C46.3784 0.704666 46.4884 1.03467 46.4884 1.504C46.4884 1.636 46.3857 2.01 46.1804 2.626C45.7257 4.01933 45.227 5.74267 44.6844 7.796C44.5524 8.26533 44.4424 8.676 44.3544 9.028C44.281 9.38 44.215 9.67333 44.1564 9.908C43.8044 11.4187 43.4964 12.5553 43.2324 13.318C43.1444 13.538 42.9904 13.714 42.7704 13.846C42.5504 13.9633 42.3157 14.022 42.0664 14.022C41.817 14.022 41.5677 13.9707 41.3184 13.868C41.0837 13.7507 40.915 13.6187 40.8124 13.472C40.3724 12.6067 39.815 11.25 39.1404 9.402C38.4657 7.53933 37.945 5.77933 37.5784 4.122C37.241 5.706 36.8744 7.12867 36.4784 8.39C36.097 9.65133 35.657 10.9787 35.1584 12.372C35.0997 12.548 35.041 12.7167 34.9824 12.878C34.9237 13.0247 34.8724 13.1713 34.8284 13.318C34.7257 13.538 34.579 13.714 34.3884 13.846C34.1977 13.9633 33.985 14.022 33.7504 14.022C33.4864 14.022 33.2297 13.9707 32.9804 13.868C32.731 13.7507 32.5624 13.6187 32.4744 13.472C32.2837 13.1493 32.0784 12.6507 31.8584 11.976C31.653 11.3013 31.3744 10.3553 31.0224 9.138L30.4724 7.268C30.091 6.05067 29.761 4.804 29.4824 3.528C29.2037 2.252 29.0644 1.48933 29.0644 1.24C29.0644 0.932 29.2184 0.69 29.5264 0.513999C29.8344 0.323332 30.1424 0.227999 30.4504 0.227999C30.6264 0.227999 30.8097 0.286666 31.0004 0.403999C31.191 0.506666 31.3157 0.69 31.3744 0.953999C31.8877 3.69667 32.643 6.87933 33.6404 10.502C33.8897 9.93 34.1244 9.25533 34.3444 8.478C34.579 7.686 34.8944 6.57867 35.2904 5.156C35.8037 3.29333 36.1924 1.966 36.4564 1.174C36.515 0.953999 36.6617 0.777999 36.8964 0.645999C37.1457 0.513999 37.395 0.447999 37.6444 0.447999C37.967 0.447999 38.231 0.535999 38.4364 0.711999C38.6417 0.873332 38.7737 1.04933 38.8324 1.24L39.0084 1.922C39.463 3.638 39.9177 5.244 40.3724 6.74C40.827 8.236 41.289 9.49 41.7584 10.502C42.0517 9.63667 42.4037 8.25067 42.8144 6.344L43.1444 4.892C43.5404 3.33733 43.863 2.13467 44.1124 1.284Z" fill="#FFB061"/>
</svg>
