<svg width="56" height="15" viewBox="0 0 56 15" fill="none" xmlns="http://www.w3.org/2000/svg">
<path d="M15.928 1.284C16.016 0.975999 16.148 0.726666 16.324 0.535999C16.5 0.330666 16.6907 0.227999 16.896 0.227999C17.3947 0.227999 17.754 0.323332 17.974 0.513999C18.194 0.704666 18.304 1.03467 18.304 1.504C18.304 1.636 18.2013 2.01 17.996 2.626C17.5413 4.01933 17.0427 5.74267 16.5 7.796C16.368 8.26533 16.258 8.676 16.17 9.028C16.0967 9.38 16.0307 9.67333 15.972 9.908C15.62 11.4187 15.312 12.5553 15.048 13.318C14.96 13.538 14.806 13.714 14.586 13.846C14.366 13.9633 14.1313 14.022 13.882 14.022C13.6327 14.022 13.3833 13.9707 13.134 13.868C12.8993 13.7507 12.7307 13.6187 12.628 13.472C12.1733 12.5773 11.6087 11.36 10.934 9.82C10.274 8.26533 9.76067 6.90867 9.394 5.75C8.48467 8.05267 7.67067 10.2747 6.952 12.416C6.908 12.548 6.85667 12.6947 6.798 12.856C6.754 13.0027 6.70267 13.1567 6.644 13.318C6.54133 13.538 6.39467 13.714 6.204 13.846C6.01333 13.9633 5.80067 14.022 5.566 14.022C5.302 14.022 5.04533 13.9707 4.796 13.868C4.54667 13.7507 4.378 13.6187 4.29 13.472C4.09933 13.1493 3.894 12.6507 3.674 11.976C3.46867 11.3013 3.19 10.3553 2.838 9.138L2.288 7.268C1.90667 6.05067 1.57667 4.804 1.298 3.528C1.01933 2.252 0.88 1.48933 0.88 1.24C0.88 0.932 1.034 0.69 1.342 0.513999C1.65 0.323332 1.958 0.227999 2.266 0.227999C2.442 0.227999 2.62533 0.286666 2.816 0.403999C3.00667 0.506666 3.13133 0.69 3.19 0.953999C3.70333 3.69667 4.45867 6.87933 5.456 10.502C5.83733 9.59267 6.25533 8.48533 6.71 7.18C7.17933 5.87467 7.62667 4.606 8.052 3.374L8.272 2.714C8.33067 2.494 8.47733 2.32533 8.712 2.208C8.96133 2.076 9.21067 2.01 9.46 2.01C9.78267 2.01 10.0467 2.09067 10.252 2.252C10.4573 2.41333 10.5893 2.58933 10.648 2.78C10.6627 2.83867 10.956 3.71133 11.528 5.398C12.1 7.08467 12.782 8.786 13.574 10.502C13.8673 9.63667 14.2193 8.25067 14.63 6.344L14.96 4.892C15.356 3.33733 15.6787 2.13467 15.928 1.284ZM27.4469 0.00799918C28.4296 0.00799918 29.3242 0.132666 30.1309 0.382C30.9376 0.616666 31.5976 0.968666 32.1109 1.438C33.0349 2.274 33.6802 3.19067 34.0469 4.188C34.4282 5.17067 34.6189 6.432 34.6189 7.972C34.6189 8.29467 34.5749 8.588 34.4869 8.852C34.4136 9.116 34.2889 9.45333 34.1129 9.864C33.8929 10.3187 33.7609 10.678 33.7169 10.942C33.4236 11.4553 32.9396 11.9467 32.2649 12.416C31.6049 12.8853 30.8862 13.2667 30.1089 13.56C29.3316 13.8533 28.6496 14 28.0629 14C25.2322 14 23.2156 13.032 22.0129 11.096C21.6756 10.5533 21.4116 9.98867 21.2209 9.402C21.0449 8.81533 20.9569 8.24333 20.9569 7.686C20.9569 6.19 21.2209 4.892 21.7489 3.792C22.2916 2.67733 23.0396 1.812 23.9929 1.196C24.5649 0.858666 25.1589 0.58 25.7749 0.36C26.4056 0.125333 26.9629 0.00799918 27.4469 0.00799918ZM23.2449 7.752C23.2449 8.544 23.4209 9.19667 23.7729 9.71C24.1396 10.2233 24.6969 10.7807 25.4449 11.382C26.0609 11.6167 26.4789 11.7707 26.6989 11.844C26.9189 11.9027 27.1682 11.932 27.4469 11.932C28.9282 11.932 30.1089 11.5287 30.9889 10.722C31.8689 9.91533 32.3089 8.808 32.3089 7.4C32.3089 6.28533 32.1842 5.40533 31.9349 4.76C31.6856 4.11467 31.2382 3.53533 30.5929 3.022C30.2556 2.74333 29.8229 2.538 29.2949 2.406C28.7816 2.274 28.2242 2.208 27.6229 2.208C26.7136 2.208 25.9289 2.47933 25.2689 3.022C24.6089 3.55 24.1029 4.23933 23.7509 5.09C23.4136 5.94067 23.2449 6.828 23.2449 7.752ZM52.7823 1.284C52.8703 0.975999 53.0023 0.726666 53.1783 0.535999C53.3543 0.330666 53.545 0.227999 53.7503 0.227999C54.249 0.227999 54.6083 0.323332 54.8283 0.513999C55.0483 0.704666 55.1583 1.03467 55.1583 1.504C55.1583 1.636 55.0556 2.01 54.8503 2.626C54.3956 4.01933 53.897 5.74267 53.3543 7.796C53.2223 8.26533 53.1123 8.676 53.0243 9.028C52.951 9.38 52.885 9.67333 52.8263 9.908C52.4743 11.4187 52.1663 12.5553 51.9023 13.318C51.8143 13.538 51.6603 13.714 51.4403 13.846C51.2203 13.9633 50.9856 14.022 50.7363 14.022C50.487 14.022 50.2376 13.9707 49.9883 13.868C49.7536 13.7507 49.585 13.6187 49.4823 13.472C49.0423 12.6067 48.485 11.25 47.8103 9.402C47.1356 7.53933 46.615 5.77933 46.2483 4.122C45.911 5.706 45.5443 7.12867 45.1483 8.39C44.767 9.65133 44.327 10.9787 43.8283 12.372C43.7696 12.548 43.711 12.7167 43.6523 12.878C43.5936 13.0247 43.5423 13.1713 43.4983 13.318C43.3956 13.538 43.249 13.714 43.0583 13.846C42.8676 13.9633 42.655 14.022 42.4203 14.022C42.1563 14.022 41.8996 13.9707 41.6503 13.868C41.401 13.7507 41.2323 13.6187 41.1443 13.472C40.9536 13.1493 40.7483 12.6507 40.5283 11.976C40.323 11.3013 40.0443 10.3553 39.6923 9.138L39.1423 7.268C38.761 6.05067 38.431 4.804 38.1523 3.528C37.8736 2.252 37.7343 1.48933 37.7343 1.24C37.7343 0.932 37.8883 0.69 38.1963 0.513999C38.5043 0.323332 38.8123 0.227999 39.1203 0.227999C39.2963 0.227999 39.4796 0.286666 39.6703 0.403999C39.861 0.506666 39.9856 0.69 40.0443 0.953999C40.5576 3.69667 41.313 6.87933 42.3103 10.502C42.5596 9.93 42.7943 9.25533 43.0143 8.478C43.249 7.686 43.5643 6.57867 43.9603 5.156C44.4736 3.29333 44.8623 1.966 45.1263 1.174C45.185 0.953999 45.3316 0.777999 45.5663 0.645999C45.8156 0.513999 46.065 0.447999 46.3143 0.447999C46.637 0.447999 46.901 0.535999 47.1063 0.711999C47.3116 0.873332 47.4436 1.04933 47.5023 1.24L47.6783 1.922C48.133 3.638 48.5876 5.244 49.0423 6.74C49.497 8.236 49.959 9.49 50.4283 10.502C50.7216 9.63667 51.0736 8.25067 51.4843 6.344L51.8143 4.892C52.2103 3.33733 52.533 2.13467 52.7823 1.284Z" fill="#08C7B8"/>
</svg>
