<svg width="18" height="17" viewBox="0 0 18 17" fill="none" xmlns="http://www.w3.org/2000/svg">
<path d="M4.98916 6.7283L5.54596 5.99031C5.63473 5.8756 5.71542 5.77236 5.78401 5.68441C5.92523 5.50087 6.00189 5.41292 6.00593 5.35174C6.01399 5.28674 5.95751 5.17967 5.8526 4.96172C5.80822 4.87377 5.75577 4.7667 5.70332 4.65199L4.55341 2.21242L4.46464 2.02506C4.23466 1.52797 4.19432 1.43237 3.41561 1.39796C3.24211 1.39031 3.06862 1.39796 2.9153 1.42473C2.77811 1.44767 2.65304 1.48591 2.55217 1.53944L2.54813 1.54326C2.16886 1.74975 1.80574 2.10536 1.50313 2.52597C1.18438 2.97335 0.938261 3.48192 0.829322 3.94842C0.760731 4.34991 0.740558 4.75523 0.760731 5.16055C0.881774 7.50835 2.42305 9.9441 4.64621 11.9057C6.87743 13.8749 9.79457 15.3624 12.6593 15.8059C13.3895 15.9168 14.1158 15.9627 14.8259 15.9321C15.2576 15.8939 15.6773 15.7065 16.0444 15.4274C16.4318 15.133 16.7505 14.7353 16.9442 14.2994C17.0047 14.1464 17.0531 13.9858 17.0894 13.8252C17.1298 13.657 17.162 13.4887 17.1863 13.3167L17.1903 13.3014C17.2589 12.8387 17.2871 12.6399 17.2347 12.5596C17.1943 12.5022 17.0733 12.4487 16.8554 12.3569C16.7303 12.3034 16.577 12.2384 16.3874 12.1504L13.8455 10.9421C13.68 10.8656 13.5751 10.8044 13.4864 10.7586C13.3532 10.6859 13.2806 10.6477 13.2604 10.6515C13.2403 10.6553 13.1676 10.728 13.0143 10.8924L11.7555 12.2116C11.7232 12.246 11.6546 12.3187 11.5981 12.3837C11.4327 12.5634 11.348 12.659 11.1946 12.6934C11.0413 12.7278 10.9122 12.6819 10.6459 12.5901L10.4522 12.5213C9.23777 12.1045 8.01524 11.4621 6.98234 10.6094C6.07048 9.85615 5.30791 8.93462 4.82777 7.85631L4.79953 7.79131C4.68252 7.52747 4.63007 7.40893 4.65024 7.26363C4.67042 7.13744 4.73497 7.05714 4.85602 6.90419C4.89233 6.85831 4.93268 6.80478 4.98916 6.7283ZM5.88488 6.21591L5.32808 6.9539C5.27967 7.01891 5.22722 7.08391 5.18687 7.13744C5.10617 7.23686 5.06582 7.29039 5.06179 7.31716C5.05776 7.3554 5.0981 7.44335 5.18283 7.63836L5.21108 7.69954C5.66701 8.72049 6.38923 9.59231 7.2567 10.3112C8.24522 11.1333 9.42337 11.7489 10.5935 12.1504L10.7952 12.2192C10.9808 12.2842 11.0736 12.3187 11.1018 12.311C11.126 12.3072 11.1825 12.2422 11.2915 12.1236C11.3237 12.0854 11.3601 12.0472 11.4569 11.9478L12.5947 10.7547L12.7117 10.6286C12.9376 10.3877 13.0426 10.2768 13.2241 10.2576C13.3734 10.2423 13.4864 10.3035 13.6962 10.4144C13.793 10.4641 13.91 10.5291 14.0391 10.5903L16.573 11.7948C16.7465 11.8789 16.8998 11.9439 17.0208 11.9936C17.3113 12.116 17.4768 12.1887 17.5817 12.3454C17.7148 12.5481 17.6825 12.789 17.5978 13.3511L17.5938 13.3625C17.5655 13.5461 17.5332 13.7258 17.4889 13.9017C17.4485 14.0776 17.392 14.2535 17.3275 14.4217L17.3194 14.4409C17.1015 14.9379 16.7384 15.3891 16.2986 15.7218C15.875 16.0468 15.3746 16.261 14.8582 16.3107L14.838 16.3145C14.0997 16.3489 13.3411 16.303 12.5826 16.1845C9.63721 15.7295 6.64342 14.2038 4.35571 12.1848C2.05993 10.1582 0.466194 7.62689 0.337081 5.1682C0.312873 4.73229 0.337081 4.29638 0.409707 3.87194L0.417776 3.86812C0.538819 3.34808 0.805114 2.78599 1.15614 2.30037C1.48699 1.83769 1.89854 1.4362 2.33832 1.20295L2.35043 1.1953C2.49165 1.11882 2.66111 1.06911 2.84267 1.03852C3.02827 1.00793 3.23404 0.996463 3.43578 1.00793C4.47271 1.05382 4.5292 1.18383 4.84391 1.87211L4.92864 2.05565L6.07855 4.49522C6.13504 4.61758 6.18345 4.717 6.22784 4.80112C6.36905 5.0879 6.43764 5.22938 6.41747 5.39763C6.3973 5.56587 6.3045 5.68441 6.11486 5.92531C6.05031 5.99414 5.97768 6.08973 5.88488 6.21591Z" fill="#54362A" stroke="#54362A" stroke-width="0.5"/>
</svg>
