<svg width="241" height="270" viewBox="0 0 241 270" fill="none" xmlns="http://www.w3.org/2000/svg">
<path d="M148.082 181.302C145.483 182.803 142.8 184.09 140.112 185.126C140.05 185.162 140.001 185.17 139.935 185.197C139.835 185.239 139.73 185.277 139.63 185.311C139.627 185.312 139.459 185.374 139.456 185.375L138.73 185.621C112.604 195.059 83.5401 184.456 69.6503 160.398C53.8472 133.027 63.3175 97.867 90.7626 82.0216C118.208 66.1761 153.392 75.5544 169.195 102.926C183.086 126.985 177.731 157.461 156.461 175.39C156.349 175.488 156.279 175.55 156.221 175.598C156.147 175.667 156.063 175.74 155.962 175.813L155.392 176.298C153.124 178.13 150.673 179.807 148.082 181.302ZM92.4386 84.9245C66.5995 99.8427 57.6818 132.946 72.561 158.718C85.6381 181.368 113.001 191.352 137.623 182.456L138.542 182.141C138.646 182.087 138.828 182.023 138.982 181.971C143.88 180.08 149.038 177.121 153.257 173.714L153.855 173.204C153.892 173.172 153.93 173.142 153.968 173.114C154.005 173.082 154.046 173.045 154.075 173.022C154.196 172.914 154.27 172.849 154.349 172.788C174.321 155.95 179.362 127.258 166.284 104.607C151.405 78.8352 118.278 70.0063 92.4386 84.9245Z" fill="#C6B8B8"/>
<path opacity="0.5" d="M208 250C208 251.657 194.345 253 177.5 253C160.655 253 147 251.657 147 250C147 248.343 160.655 247 177.5 247C194.345 247 208 248.343 208 250Z" fill="#54362A"/>
<g opacity="0.1">
<path d="M143.461 173.297C141.28 174.556 139.03 175.635 136.776 176.504C136.723 176.535 136.682 176.541 136.627 176.564C136.543 176.599 136.455 176.631 136.371 176.659C136.368 176.66 136.228 176.712 136.225 176.713L135.617 176.919C113.704 184.836 89.3267 175.942 77.6769 155.764C64.4223 132.806 72.3653 103.317 95.3845 90.0268C118.404 76.7366 147.914 84.6026 161.169 107.56C172.819 127.74 168.328 153.3 150.488 168.338C150.394 168.42 150.335 168.472 150.287 168.513C150.225 168.571 150.154 168.632 150.07 168.693L149.591 169.1C147.689 170.636 145.634 172.042 143.461 173.297ZM96.7902 92.4616C75.1181 104.974 67.6385 132.739 80.1182 154.355C91.0864 173.352 114.037 181.726 134.688 174.265L135.459 174C135.546 173.955 135.699 173.901 135.828 173.858C139.936 172.272 144.262 169.79 147.801 166.932L148.303 166.504C148.333 166.478 148.365 166.453 148.397 166.429C148.428 166.402 148.463 166.372 148.487 166.352C148.589 166.262 148.651 166.207 148.716 166.156C165.468 152.033 169.696 127.968 158.727 108.97C146.248 87.3543 118.462 79.9491 96.7902 92.4616Z" fill="#E59796"/>
<path d="M96.7902 92.4616C75.1181 104.974 67.6385 132.739 80.1182 154.355C91.0864 173.352 114.037 181.726 134.688 174.265L135.459 174C135.546 173.955 135.699 173.901 135.828 173.858C139.936 172.272 144.262 169.79 147.801 166.932L148.303 166.504C148.333 166.478 148.365 166.453 148.397 166.429C148.428 166.402 148.463 166.372 148.487 166.352C148.589 166.262 148.651 166.207 148.716 166.156C165.468 152.033 169.696 127.968 158.727 108.97C146.248 87.3543 118.462 79.9491 96.7902 92.4616Z" fill="#E59796"/>
</g>
<path d="M87.2757 77.0903C86.558 77.5046 85.6096 77.2031 85.1561 76.4177L75.8328 60.2693C75.3794 59.4839 75.5925 58.5118 76.3101 58.0974C77.0278 57.6831 77.9762 57.9846 78.4296 58.77L87.753 74.9185C88.2064 75.7039 87.9933 76.6759 87.2757 77.0903Z" fill="#C6B8B8"/>
<path d="M67.4689 94.7207C66.9159 95.0399 66.2056 95.0217 65.656 94.6206L56.2942 87.7586C55.5533 87.2143 55.39 86.1731 55.9297 85.4323C56.476 84.6867 57.5095 84.5324 58.2506 85.0738L67.6123 91.9357C68.3532 92.4801 68.5165 93.5213 67.9768 94.2621C67.8358 94.4553 67.6625 94.6088 67.4689 94.7207Z" fill="#C6B8B8"/>
<path d="M182.242 178.381C181.689 178.7 180.978 178.683 180.429 178.281L171.067 171.418C170.326 170.874 170.163 169.833 170.703 169.092C171.249 168.349 172.284 168.191 173.024 168.733L182.386 175.596C183.127 176.14 183.29 177.182 182.75 177.923C182.609 178.116 182.436 178.269 182.242 178.381Z" fill="#C6B8B8"/>
<path d="M128.211 209.707C128.017 209.819 127.798 209.892 127.56 209.917C126.648 210.014 125.828 209.352 125.727 208.439L124.465 196.899C124.365 195.988 125.023 195.168 125.936 195.068C126.847 194.972 127.668 195.634 127.768 196.547L129.031 208.087C129.105 208.763 128.764 209.388 128.211 209.707Z" fill="#C6B8B8"/>
<path d="M113.391 69.0724C113.197 69.1842 112.977 69.2575 112.739 69.2831C111.828 69.38 111.008 68.718 110.907 67.8042L109.645 56.2657C109.548 55.3524 110.2 54.5337 111.116 54.435C112.028 54.3381 112.848 55.0001 112.949 55.9139L114.21 67.4524C114.284 68.1282 113.944 68.7532 113.391 69.0724Z" fill="#C6B8B8"/>
<path d="M158.338 80.7885C157.781 81.1098 157.069 81.0957 156.52 80.699C155.78 80.1614 155.622 79.1239 156.167 78.3825L163.06 69.0162C163.612 68.273 164.65 68.1103 165.39 68.6457C166.13 69.1833 166.288 70.2208 165.742 70.9622L158.85 80.3285C158.708 80.5219 158.533 80.676 158.338 80.7885Z" fill="#C6B8B8"/>
<path d="M74.3029 195.601C73.7463 195.922 73.0339 195.908 72.4847 195.511C71.745 194.974 71.5867 193.936 72.1324 193.195L79.0248 183.829C79.5747 183.085 80.6145 182.923 81.3552 183.459C82.095 183.996 82.2532 185.033 81.7076 185.775L74.8151 195.141C74.6725 195.334 74.4978 195.488 74.3029 195.601Z" fill="#C6B8B8"/>
<path d="M55.6148 140.432C55.4199 140.544 55.1991 140.619 54.9603 140.645L43.403 141.932C42.4881 142.033 41.6688 141.378 41.5732 140.468C41.4808 139.558 42.143 138.738 43.0593 138.635L54.6166 137.349C55.5315 137.247 56.3508 137.903 56.4465 138.813C56.5154 139.486 56.1699 140.111 55.6148 140.432Z" fill="#C6B8B8"/>
<path d="M196.47 125.307C196.275 125.42 196.055 125.494 195.816 125.521L184.258 126.807C183.343 126.908 182.524 126.253 182.428 125.343C182.336 124.433 182.999 123.614 183.914 123.51L195.472 122.224C196.387 122.123 197.206 122.778 197.302 123.688C197.371 124.362 197.025 124.987 196.47 125.307Z" fill="#C6B8B8"/>
<path d="M192.964 91.0532L176.773 100.401C175.985 100.856 175.012 100.645 174.599 99.9296C174.186 99.2145 174.489 98.2664 175.278 97.8114L191.469 88.4633C192.257 88.0082 193.23 88.2198 193.643 88.935C194.055 89.6501 193.752 90.5982 192.964 91.0532Z" fill="#C6B8B8"/>
<path d="M63.0267 166.017L46.8353 175.365C46.0472 175.82 45.0746 175.609 44.6617 174.893C44.2488 174.178 44.5519 173.23 45.34 172.775L61.5314 163.427C62.3196 162.972 63.2922 163.184 63.705 163.899C64.1179 164.614 63.8149 165.562 63.0267 166.017Z" fill="#C6B8B8"/>
<path d="M136.894 70.6214C136.518 70.8382 136.06 70.912 135.609 70.7916C134.706 70.5509 134.171 69.6249 134.414 68.7223L139.411 50.1713C139.654 49.2687 140.583 48.7326 141.486 48.9733C142.389 49.214 142.924 50.1401 142.681 51.0427L137.684 69.5937C137.562 70.045 137.269 70.4046 136.894 70.6214Z" fill="#C6B8B8"/>
<path d="M98.7728 215.307C98.3973 215.524 97.9394 215.597 97.4878 215.477C96.5845 215.236 96.0499 214.31 96.293 213.408L101.29 194.857C101.533 193.954 102.462 193.418 103.365 193.659C104.268 193.899 104.803 194.825 104.56 195.728L99.5627 214.279C99.4411 214.73 99.1482 215.09 98.7728 215.307Z" fill="#C6B8B8"/>
<path d="M201.508 155.532C201.133 155.749 200.675 155.822 200.223 155.702L181.659 150.754C180.756 150.513 180.221 149.587 180.465 148.685C180.708 147.782 181.636 147.246 182.539 147.487L201.104 152.435C202.007 152.675 202.542 153.601 202.298 154.504C202.177 154.955 201.884 155.315 201.508 155.532Z" fill="#C6B8B8"/>
<path d="M57.7193 116.793C57.3439 117.01 56.8859 117.084 56.4343 116.964L37.8702 112.016C36.967 111.775 36.4323 110.849 36.6755 109.946C36.9186 109.044 37.8472 108.508 38.7504 108.748L57.3145 113.696C58.2178 113.937 58.7524 114.863 58.5093 115.766C58.3877 116.217 58.0948 116.577 57.7193 116.793Z" fill="#C6B8B8"/>
<path d="M178.338 204.642L153.236 219.135L137.654 185.082C137.471 184.662 137.466 184.179 137.631 183.752C137.797 183.326 138.149 182.986 138.58 182.815L138.818 182.717C138.929 182.672 139.122 182.599 139.272 182.552C144.22 180.629 149.434 177.638 153.689 174.208L154.299 173.701C154.334 173.661 154.378 173.635 154.414 173.596C154.784 173.285 155.261 173.126 155.719 173.173C156.215 173.217 156.669 173.461 156.958 173.859L178.338 204.642Z" fill="#C6B8B8"/>
<path d="M183.19 213.402L157.221 228.394L154.179 222.093L179.254 207.616L183.19 213.402Z" fill="#C6B8B8"/>
<path d="M190.996 224.382L185.786 216.692L159.344 231.958L163.39 240.301C165.319 244.409 168.88 247.575 173.171 248.971C177.468 250.343 182.159 249.864 186.029 247.63C189.9 245.396 192.669 241.587 193.606 237.173C194.551 232.774 193.589 228.107 190.996 224.382ZM180.868 235.354C181.333 236.161 181.065 237.196 180.27 237.655C179.462 238.122 178.445 237.829 177.979 237.022L176.04 233.662C175.574 232.856 175.828 231.829 176.637 231.362C177.431 230.903 178.462 231.188 178.928 231.995L180.868 235.354Z" fill="#C6B8B8"/>
<path d="M153.989 35.3822C153.674 35.4424 153.373 35.5101 153.079 35.6531C152.831 35.7735 152.605 35.9466 152.41 36.1422C151.981 36.5787 151.702 37.1355 151.514 37.7075C151.304 38.332 151.161 38.9867 151.033 39.6339C150.958 40.0177 150.898 40.4015 150.852 40.7852C150.837 40.8755 150.83 40.9658 150.822 41.0637C150.792 40.5294 150.77 39.9951 150.732 39.4608C150.687 38.7685 150.612 38.0687 150.416 37.4064C150.243 36.812 149.972 36.1723 149.498 35.7509C148.987 35.2994 148.31 35.2242 147.663 35.1188C147.286 35.0586 146.918 34.9984 146.542 34.9382C146.361 34.9081 146.181 34.8855 146 34.8479C146.008 34.8404 146.015 34.8404 146.023 34.8328C146.15 34.7802 146.308 34.7501 146.444 34.7124C146.587 34.6748 146.73 34.6297 146.873 34.592C147.159 34.5093 147.444 34.419 147.73 34.3211C148.287 34.1255 148.829 33.8696 149.303 33.5009C149.799 33.1096 150.153 32.5828 150.393 32.0034C150.679 31.3111 150.792 30.5661 150.867 29.8211C150.913 29.4072 150.943 28.9933 150.988 28.5794C151.01 28.3838 151.033 28.1957 151.071 28C151.123 28.5268 151.176 29.0535 151.251 29.5803C151.356 30.2952 151.522 30.995 151.702 31.6873C151.853 32.3044 152.003 32.9516 152.365 33.4858C152.696 33.975 153.177 34.3437 153.711 34.5996C154.253 34.8554 154.84 34.9984 155.426 35.1113C155.291 35.1339 155.163 35.164 155.028 35.1865C154.667 35.2543 154.328 35.3145 153.989 35.3822Z" fill="#FED57B"/>
<path d="M61.9943 50.793C61.3109 51.1177 60.6104 51.374 59.8927 51.6304C59.2093 51.8697 58.4746 52.1089 57.8595 52.5191C57.2786 52.8951 56.7318 53.4933 56.4243 54.1256C56.2193 54.5358 56.168 54.9631 56.0826 55.4074C55.8946 56.45 55.7409 57.4925 55.6042 58.5521C55.5188 59.2529 55.4333 59.9536 55.3479 60.6543C55.3137 60.9619 55.2625 61.2866 55.2283 61.5943C55.177 61.3037 55.1429 61.0132 55.1087 60.7227C55.0233 60.0048 54.9549 59.3041 54.8695 58.5863C54.7157 57.1678 54.579 55.7664 54.4253 54.3478C54.4253 54.2624 54.3911 54.194 54.3569 54.1256C54.0494 52.878 52.7679 52.4508 51.5548 52.3482C51.0422 52.2969 50.5297 52.314 50 52.3311C50.0171 52.3311 50.0513 52.314 50.0683 52.314C51.0252 51.9893 51.9649 51.545 52.8021 50.9468C52.8704 50.8955 52.9217 50.8442 52.9559 50.793C54.2544 49.7504 54.3911 47.785 54.5961 46.2468C54.7157 45.2556 54.8011 44.2643 54.9208 43.2902C54.9891 42.7945 55.0574 42.2989 55.1429 41.8033C55.177 41.5811 55.2283 41.2564 55.3308 41C55.3479 41.1025 55.3479 41.188 55.365 41.2905C55.3821 41.564 55.3991 41.8374 55.3991 42.1109C55.4162 42.6749 55.4162 43.2389 55.4333 43.8029C55.4504 44.8967 55.4846 46.0076 55.6725 47.1014C55.9801 48.8617 57.3469 50.3486 59.141 50.605C59.7219 50.6904 60.2686 50.605 60.8325 50.5879C61.4134 50.5537 61.9943 50.5366 62.5752 50.4682C62.4044 50.5879 62.1993 50.6904 61.9943 50.793Z" fill="#FED57B"/>
<path d="M18.1452 114.766C17.4276 114.903 16.7442 115.056 16.0778 115.381C15.514 115.655 15.0014 116.048 14.5572 116.492C13.5833 117.483 12.9511 118.748 12.524 120.047C12.0456 121.465 11.7209 122.952 11.4305 124.422C11.2596 125.294 11.1229 126.165 11.0204 127.037C10.9862 127.242 10.9692 127.447 10.9521 127.669C10.8837 126.456 10.8325 125.243 10.747 124.029C10.6445 122.457 10.4737 120.867 10.0294 119.363C9.63645 118.013 9.02136 116.56 7.94495 115.603C6.7831 114.578 5.24537 114.407 3.77599 114.168C2.92169 114.031 2.08448 113.894 1.23019 113.758C0.820126 113.689 0.410062 113.638 0 113.553C0.0170859 113.535 0.0341749 113.535 0.0512608 113.518C0.341721 113.399 0.700521 113.33 1.00807 113.245C1.3327 113.159 1.65733 113.057 1.98197 112.971C2.63123 112.783 3.28049 112.578 3.92976 112.356C5.19412 111.912 6.4243 111.331 7.50071 110.493C8.62838 109.605 9.43142 108.408 9.97817 107.092C10.6274 105.52 10.8837 103.828 11.0546 102.136C11.1571 101.196 11.2254 100.256 11.328 99.316C11.3792 98.8716 11.4305 98.4444 11.5159 98C11.6355 99.1963 11.7551 100.393 11.926 101.589C12.1652 103.213 12.5411 104.802 12.9511 106.374C13.2928 107.776 13.6346 109.246 14.4547 110.459C15.2065 111.57 16.3 112.407 17.5131 112.989C18.7432 113.57 20.0759 113.894 21.4086 114.151C21.1011 114.202 20.8106 114.27 20.5031 114.322C19.683 114.475 18.9141 114.612 18.1452 114.766Z" fill="#FED57B"/>
<path d="M124.66 16.9369C123.395 17.7572 122.575 18.9365 122.097 20.3379C121.567 21.8761 121.26 23.5168 120.867 25.1062C120.576 26.2684 120.303 27.4306 120.012 28.5927C119.636 26.1146 119.448 23.6022 118.816 21.1754C118.458 19.8252 117.911 18.4579 116.937 17.4325C115.997 16.4412 114.699 15.9285 113.383 15.638C112.272 15.3816 111.128 15.2791 110 15.0398C111.982 13.8264 114.494 13.6213 116.441 12.3395C117.672 11.5362 118.509 10.3911 119.004 9.00679C119.517 7.58827 119.636 6.06719 119.807 4.5803C119.927 3.60613 120.064 2.61488 120.252 1.6578C120.354 1.17926 120.439 0.700719 120.559 0.23927C120.576 0.153816 120.593 0.0854535 120.627 0C120.781 1.31598 120.935 2.63197 121.089 3.96504C121.191 4.80248 121.277 5.63993 121.379 6.47737C121.482 7.28063 121.601 8.0839 121.892 8.83589C122.985 11.5875 125.907 12.7838 128.607 13.2966C129.529 13.4675 130.452 13.6042 131.374 13.758C131.784 13.8264 132.195 13.8947 132.588 13.9973C132.605 13.9973 132.622 14.0144 132.656 14.0144C131.323 14.4416 129.99 14.8689 128.658 15.2791C127.325 15.7234 125.89 16.1336 124.66 16.9369Z" fill="#FED57B"/>
</svg>
