<svg width="17" height="17" viewBox="0 0 17 17" fill="none" xmlns="http://www.w3.org/2000/svg">
<g clip-path="url(#clip0)">
<path d="M8.50009 16.8564C13.1156 16.8564 16.8572 13.1148 16.8572 8.49923C16.8572 3.88371 13.1156 0.14209 8.50009 0.14209C3.88456 0.14209 0.142944 3.88371 0.142944 8.49923C0.142944 13.1148 3.88456 16.8564 8.50009 16.8564Z" fill="#54362A"/>
<path fill-rule="evenodd" clip-rule="evenodd" d="M8.18436 12.1647H8.84029C8.84029 12.1647 9.03843 12.143 9.13958 12.0339C9.23269 11.9338 9.22971 11.7458 9.22971 11.7458C9.22971 11.7458 9.2169 10.8657 9.62538 10.7361C10.0281 10.6084 10.5451 11.5867 11.0932 11.9629C11.5077 12.2475 11.8226 12.1851 11.8226 12.1851L13.2881 12.1647C13.2881 12.1647 14.0547 12.1175 13.6912 11.5147C13.6614 11.4654 13.4795 11.0689 12.6016 10.254C11.6827 9.40109 11.8058 9.53904 12.9126 8.06376C13.5868 7.16529 13.8562 6.61677 13.7721 6.38184C13.6918 6.15808 13.196 6.21722 13.196 6.21722L11.546 6.2275C11.546 6.2275 11.4236 6.21082 11.3329 6.26504C11.2443 6.31823 11.1872 6.44217 11.1872 6.44217C11.1872 6.44217 10.9261 7.13743 10.5778 7.72871C9.84303 8.97637 9.54926 9.04222 9.42918 8.96475C9.14986 8.78419 9.21958 8.2394 9.21958 7.85236C9.21958 6.64329 9.40297 6.13916 8.86249 6.00866C8.68312 5.96531 8.55113 5.93671 8.09244 5.93209C7.5037 5.92598 7.00538 5.93387 6.72322 6.07212C6.53551 6.16404 6.39071 6.36888 6.4789 6.38065C6.58795 6.39525 6.83495 6.44724 6.9659 6.62556C7.13498 6.85558 7.12903 7.37222 7.12903 7.37222C7.12903 7.37222 7.22616 8.79552 6.90214 8.97235C6.67972 9.09361 6.37462 8.84602 5.71958 7.71411C5.38394 7.13431 5.13054 6.49342 5.13054 6.49342C5.13054 6.49342 5.08168 6.37365 4.99453 6.30959C4.88876 6.23197 4.74097 6.20724 4.74097 6.20724L3.17302 6.21752C3.17302 6.21752 2.93764 6.22408 2.85124 6.32642C2.77437 6.41744 2.84513 6.60575 2.84513 6.60575C2.84513 6.60575 4.07268 9.47767 5.4626 10.9249C6.73708 12.2519 8.18436 12.1647 8.18436 12.1647Z" fill="white"/>
</g>
<defs>
<clipPath id="clip0">
<rect width="16.7143" height="16.7143" fill="white" transform="translate(0.142944 0.14209)"/>
</clipPath>
</defs>
</svg>
