<svg width="17" height="17" viewBox="0 0 17 17" fill="none" xmlns="http://www.w3.org/2000/svg">
<g clip-path="url(#clip0)">
<path d="M8.49995 16.8564C13.1155 16.8564 16.8571 13.1148 16.8571 8.49923C16.8571 3.88371 13.1155 0.14209 8.49995 0.14209C3.88443 0.14209 0.142807 3.88371 0.142807 8.49923C0.142807 13.1148 3.88443 16.8564 8.49995 16.8564Z" fill="#54362A"/>
<path d="M10.6011 8.82645H9.10983V14.2896H6.85049V8.82645H5.77594V6.90647H6.85049V5.66403C6.85049 4.77555 7.27253 3.38428 9.12994 3.38428L10.8035 3.39128V5.25494H9.58923C9.39005 5.25494 9.10998 5.35446 9.10998 5.77829V6.90826H10.7984L10.6011 8.82645Z" fill="white"/>
</g>
<defs>
<clipPath id="clip0">
<rect width="16.7143" height="16.7143" fill="white" transform="translate(0.142807 0.14209)"/>
</clipPath>
</defs>
</svg>
