<svg width="21" height="20" viewBox="0 0 21 20" fill="none" xmlns="http://www.w3.org/2000/svg">
<path d="M17.7314 6.69688L17.7314 13.5143C17.7314 15.733 15.9264 17.5381 13.7076 17.5381L6.8901 17.5381C4.67143 17.5381 2.86638 15.733 2.86638 13.5143L2.86638 6.69676C2.86638 4.4781 4.67143 2.67304 6.8901 2.67304L13.7076 2.67304C15.9264 2.67304 17.7314 4.4781 17.7314 6.69688V6.69688ZM6.23435 10.1056C6.23435 12.3468 8.05767 14.1701 10.2989 14.1701C12.5401 14.1701 14.3634 12.3468 14.3634 10.1056C14.3634 7.86433 12.5401 6.04102 10.2989 6.04102C8.05767 6.04102 6.23435 7.86433 6.23435 10.1056ZM13.4049 5.94382C13.4049 6.60615 13.9436 7.14485 14.6059 7.14485C15.2682 7.14485 15.8071 6.60615 15.8071 5.94382C15.8071 5.2815 15.2682 4.74269 14.6059 4.74269C13.9436 4.74269 13.4049 5.2815 13.4049 5.94382Z" fill="#54362A"/>
<path d="M12.8654 10.1054C12.8654 11.5205 11.7141 12.6719 10.2989 12.6719C8.88388 12.6719 7.73252 11.5205 7.73252 10.1054C7.73252 8.69029 8.88388 7.53902 10.2989 7.53902C11.7141 7.53902 12.8654 8.69029 12.8654 10.1054Z" fill="#54362A"/>
</svg>
