<svg width="17" height="17" viewBox="0 0 17 17" fill="none" xmlns="http://www.w3.org/2000/svg">
<g clip-path="url(#clip0)">
<path d="M16.0037 4.58344C15.8232 3.91214 15.2939 3.38296 14.6227 3.2022C13.3965 2.8667 8.49161 2.8667 8.49161 2.8667C8.49161 2.8667 3.58691 2.8667 2.36071 3.18948C1.70242 3.37005 1.16024 3.91223 0.979671 4.58344C0.656982 5.80954 0.656982 8.35232 0.656982 8.35232C0.656982 8.35232 0.656982 10.9079 0.979671 12.1212C1.16043 12.7924 1.68951 13.3216 2.36081 13.5023C3.59982 13.8379 8.4918 13.8379 8.4918 13.8379C8.4918 13.8379 13.3965 13.8379 14.6227 13.5152C15.294 13.3345 15.8232 12.8053 16.0039 12.1341C16.3265 10.9079 16.3265 8.36523 16.3265 8.36523C16.3265 8.36523 16.3394 5.80954 16.0037 4.58344ZM6.93 10.7014V6.00321L11.0087 8.35232L6.93 10.7014Z" fill="#54362A"/>
</g>
<defs>
<clipPath id="clip0">
<rect width="16.7143" height="16.7143" fill="white" transform="translate(0.142792 0.143066)"/>
</clipPath>
</defs>
</svg>
