<svg width="17" height="17" viewBox="0 0 17 17" fill="none" xmlns="http://www.w3.org/2000/svg">
<g clip-path="url(#clip0)">
<path d="M1.18747 8.26922C2.76705 7.39375 4.53028 6.66308 6.17776 5.92867C9.01206 4.72576 11.8576 3.5437 14.7319 2.44322C15.2911 2.25571 16.2959 2.07239 16.3945 2.90628C16.3405 4.08664 16.1186 5.26008 15.9663 6.43353C15.58 9.01405 15.1333 11.5857 14.6979 14.1578C14.5478 15.0144 13.4812 15.458 12.7987 14.9097C11.1586 13.795 9.50582 12.6911 7.8866 11.5505C7.35614 11.0081 7.84809 10.2294 8.3217 9.84216C9.67258 8.5025 11.1052 7.36452 12.3855 5.95575C12.7308 5.11653 11.7104 5.82375 11.3739 6.04049C9.52451 7.32282 7.7204 8.68344 5.77059 9.81044C4.77463 10.3621 3.61382 9.89065 2.61831 9.58282C1.72571 9.21097 0.417729 8.83628 1.18736 8.26933L1.18747 8.26922Z" fill="#54362A"/>
</g>
<defs>
<clipPath id="clip0">
<rect width="15.4402" height="15.4402" fill="white" transform="translate(0.95425 0.568848)"/>
</clipPath>
</defs>
</svg>
