<?xml version="1.0" encoding="utf-8"?><svg width="233" height="222" viewBox="0 0 233 222" xmlns="http://www.w3.org/2000/svg" xmlns:xlink="http://www.w3.org/1999/xlink"><svg width="16" height="17" fill="none" viewBox="0 0 16 17" id="arrow" x="217" xmlns="http://www.w3.org/2000/svg"><path d="M8.003 10.213L4.71 6.581a.24.24 0 00-.359 0l-.277.304a.29.29 0 00-.075.2c0 .075.026.145.074.198l3.747 4.136a.244.244 0 00.362 0l3.744-4.13A.292.292 0 0012 7.09a.292.292 0 00-.073-.199l-.276-.303a.234.234 0 00-.359 0l-3.29 3.624z" fill="#180000"/></svg><svg width="23" height="8" fill="none" viewBox="0 0 23 8" id="arrow2" x="172" y="181" xmlns="http://www.w3.org/2000/svg"><path d="M22.354 4.354a.5.5 0 000-.708L19.172.464a.5.5 0 10-.707.708L21.293 4l-2.828 2.828a.5.5 0 10.707.708l3.182-3.182zM0 4.5h22v-1H0v1z" fill="#54362A"/></svg><svg width="24" height="24" fill="none" viewBox="0 0 24 24" id="cart" x="172" y="133" xmlns="http://www.w3.org/2000/svg"><path d="M4.5 6.684a.5.5 0 01.5-.5h14.533a.5.5 0 01.5.5v12.404a3.5 3.5 0 01-3.5 3.5H8a3.5 3.5 0 01-3.5-3.5V6.684z" stroke="#180000"/><path d="M8.108 8.938V4.861c0-.936.433-1.833 1.205-2.494.772-.662 1.819-1.034 2.91-1.034 1.092 0 2.139.372 2.91 1.034.772.661 1.206 1.558 1.206 2.494v4.077" stroke="#180000" stroke-linecap="round" stroke-linejoin="round"/></svg><svg width="217" height="93" fill="none" viewBox="0 0 217 93" id="logo" xmlns="http://www.w3.org/2000/svg"><path d="M60.93 26.589c.983 1.631 2.13 3.425 2.949 4.24.164.164.491.327.819.653.163.163.49.327.818.49l.328.163c.655.49 1.474 1.142 2.129 1.957h.491c-.819-.978-1.801-1.63-2.456-2.283h-.164c-.164-1.468-.328-3.426-1.31-4.405-1.147-1.142-4.258-2.61-4.422-2.61l-.491-.163.327.49c.492.489.82.815.983 1.468zm3.604 1.142c.819.815 1.146 2.446 1.146 3.914a2.258 2.258 0 01-.655-.489c-.327-.163-.655-.49-.819-.652-.819-.653-1.965-2.61-2.948-4.242-.163-.326-.327-.652-.655-.978.983.652 3.112 1.631 3.93 2.447z" fill="#180000"/><path d="M95.319 10.603c-.164 0-2.785 1.305-5.896.979-.983-.163-1.638-.163-2.293-.327-1.638-.326-2.62-.489-5.077.49-1.638.652-2.948.49-4.422.163-1.637-.326-3.275-.652-5.404.326-2.129.979-2.948 3.263-3.767 5.383-.655 1.631-1.146 3.263-2.456 3.589-.328.163-.655.163-.983.326-2.129.653-3.603 1.142-8.68-.163-5.568-1.468-15.558-.163-17.523.163-.164 0-.328.163-.491.326-.328.327-.164.98-.164.98V23h.164c.163 0 11.627-1.631 16.05-.163 3.602 1.305 5.567 2.936 5.895 5.057.164.979-.491 1.631-1.147 2.447-.49.652-1.146 1.305-1.31 2.283-.163.979 0 1.795.328 2.61.327.816.655 1.958.327 3.426-.163 1.142-.491 1.631-.819 2.283-.49.816-.818 1.468-.49 3.915.49 2.773 1.964 3.915 3.11 4.894.492.326.82.652.983.816.82 1.141 2.785 3.099 5.405 3.915 2.784.978 4.75 2.283 5.404 3.425a23.573 23.573 0 001.31 2.284l.655.978-.49-1.141c-.983-2.447-2.294-6.688-1.802-7.178.327-.326.491-.652.491-1.142 1.146.327 2.62.327 3.93.49h1.31c2.13.163 3.931.979 3.931.979l.491.163-.327-.49s-.819-1.468-1.474-4.078c-.655-2.61-.655-2.61-2.293-5.056l-.164-.164c-.982-1.468-.818-1.794-.49-2.283.163-.327.49-.816.163-1.632-.328-.652-.164-1.141 0-1.63.164-.816.327-1.632-.819-3.916-1.801-3.915-5.077-5.383-7.37-5.709-1.965-.163-2.62-.652-3.93-1.794-.164-.163-.491-.326-.655-.49-1.474-1.141-3.603-2.446-4.586-3.099.655 0 1.802.163 2.948.163s2.13.326 3.603 1.142c.819.326 1.801.816 3.112 1.305 3.93 1.631 6.878-.326 9.335-2.284 1.474-1.141 2.292-1.468 3.603-1.957.655-.163 1.31-.49 2.292-.979 2.13-.979 2.457-1.794 2.784-2.936.164-.652.328-1.142.82-1.957 1.31-2.121 6.55-4.568 6.714-4.73l.164-.164zm-6.715 4.894c-.491.815-.655 1.468-.819 1.957-.327 1.142-.491 1.957-2.62 2.773-.983.49-1.638.653-2.293.979-1.31.49-2.129.815-3.603 1.957-2.456 1.795-5.24 3.752-9.171 2.284-1.31-.49-2.293-.979-3.112-1.305C65.35 23.49 64.53 23 63.22 23c-1.802 0-3.603-.163-3.603-.163l-.655-.163.655.326s3.275 1.794 5.24 3.426c.328.163.492.326.655.49 1.474 1.14 1.966 1.63 4.095 1.793 2.129.163 5.24 1.795 7.042 5.546.982 2.121.819 2.937.655 3.752-.164.49-.164.979.164 1.795.327.815 0 .978-.164 1.305-.328.489-.655.978.491 2.61l.164.163c1.638 2.446 1.638 2.446 2.293 4.893.491 1.958.982 3.1 1.31 3.752-.655-.326-1.965-.652-3.603-.816h-1.31c-1.31 0-2.784-.163-3.93-.326.163-.979 0-2.284-.656-3.589-.491-.815-.327-1.957-.163-3.262.163-.979.163-2.12 0-3.425 0 .163-.164.163-.328.326.164 1.142 0 2.284-.164 3.1-.164 1.304-.164 2.446.328 3.425.982 1.957.819 3.915.163 4.567-.49.653.492 3.915 1.31 6.035l-.49-.978c-.656-1.305-2.785-2.61-5.569-3.589-2.62-.816-4.422-2.773-5.24-3.915-.328-.326-.656-.652-1.147-.979-1.146-.815-2.62-1.957-2.948-4.567-.327-2.284 0-2.936.492-3.752.327-.489.655-1.142.818-2.283.164-1.468-.163-2.61-.327-3.426-.328-.816-.491-1.468-.328-2.447.164-.815.82-1.468 1.31-2.12.656-.816 1.31-1.632 1.147-2.773-.491-2.284-2.457-4.078-6.223-5.383-1.474-.49-3.603-.653-5.896-.653-4.422 0-9.171.653-10.154.816 0-.163 0-.49.164-.653 0-.163.164-.163.328-.163 1.965-.326 11.79-1.631 17.36-.163 5.076 1.305 6.714.816 8.843.163.327-.163.655-.163.982-.326 1.31-.326 1.965-1.957 2.62-3.752.82-1.957 1.638-4.241 3.604-5.22 1.965-.978 3.602-.652 5.24-.326 1.474.326 2.948.653 4.586-.163 2.456-1.142 3.439-.816 4.913-.49.655.164 1.31.327 2.293.327 1.474.163 2.947-.163 4.094-.326-1.802 1.141-4.258 2.61-5.077 4.078z" fill="#180000"/><path d="M103.673 74.057c-.164 0-.327-.163-.491-.326-.819-.653-2.948-2.12-4.586-1.794-.327 0-.655.163-1.146.163-2.457.326-5.896.815-7.042-1.142-.328-.49-.492-.979-.655-1.468-.655-1.468-1.147-2.773-2.784-3.426-.164 0-.328-.163-.492-.163-2.292-.979-4.913-2.284-3.766-7.83.327-1.142.491-1.957.655-2.61.655-2.61.655-2.61.327-3.588 0-.163-.163-.327-.163-.49-.164-.326-.164-.652-.328-.978-.655-1.795-1.638-4.73-2.948-5.873-1.638-1.305-2.784-3.262-2.784-3.262l.328-.163s1.146 1.794 2.784 3.099c1.474 1.142 2.292 3.915 3.111 5.872.164.327.164.653.328.98 0 .162.164.325.164.488.327.98.327 1.142-.164 3.752-.164.653-.328 1.468-.655 2.61-1.147 5.383 1.474 6.525 3.603 7.504.163 0 .327.163.491.163 1.802.815 2.293 2.12 2.948 3.588.164.49.491.98.655 1.469.983 1.794 4.422 1.304 6.715.978.49 0 .818-.163 1.146-.163 1.31-.163 3.111.816 4.258 1.468-.819-1.468-1.965-4.404-2.293-7.993-.327-3.262-1.638-4.24-3.111-5.546-.82-.652-1.802-1.468-2.62-2.773-1.966-2.773-3.931-3.1-5.897-3.262-.49 0-.982-.163-1.31-.163-2.129-.327-2.947-2.773-3.766-4.894-.492-1.142-.82-2.284-1.31-2.936-1.802-2.447-4.75-5.546-4.75-5.546l.164-.163s2.948 3.099 4.913 5.546c.491.815.983 1.794 1.474 3.099.819 2.12 1.638 4.404 3.44 4.73.49 0 .818.164 1.31.164 1.965.163 4.093.489 6.222 3.425.82 1.305 1.802 1.958 2.62 2.61 1.475 1.305 2.785 2.284 3.276 5.71.491 4.404 1.965 7.503 2.621 8.482l.327.326v.163l-.819.163z" fill="#180000"/><path d="M101.218 63.127c-.655 0-1.147-.163-1.474-.652l.327-.163c.655.978 2.457.326 3.931-.163.327-.163.655-.327.982-.327.819-.163 1.147-.163 1.638 0 .655.163 1.638.49 4.913.327 4.586-.327 4.913-2.447 5.405-4.894.163-.49.163-1.142.327-1.794.491-1.795 2.457-3.263 3.931-4.078-1.147.163-2.457.326-3.603-.327-.655-.326-1.311-.815-1.638-1.142-1.146-.815-1.965-1.468-4.422-.815-1.146.326-1.801.652-2.129.816-.982.489-1.146.489-3.439 0-3.275-.653-5.404 1.468-6.715 3.099l-.163.163c-1.474 1.631-3.44 4.241-3.44 4.241l-.163-.163s1.965-2.61 3.439-4.241l.164-.163c1.474-1.632 3.603-3.915 7.042-3.263 2.293.49 2.456.326 3.275 0 .491-.163 1.147-.49 2.129-.815 2.62-.816 3.439-.163 4.586.815.491.326.982.816 1.637 1.142 1.638.816 3.767.326 4.914-.163.491-.163.655-.326.818-.326l.164.326s-.327.163-.819.326c-1.474.653-4.585 2.284-5.24 4.568-.164.652-.328 1.142-.328 1.794-.491 2.447-.983 4.73-5.732 5.22-3.275.326-4.422-.163-5.077-.326-.491-.163-.655-.163-1.474 0-.327.163-.655.163-.982.326-.819.326-1.965.652-2.784.652zm10.155 4.895c-.983 0-1.966 0-2.948-.164-4.75-.815-7.861-2.61-7.861-2.61l.164-.326s3.111 1.958 7.861 2.61c1.801.326 3.602.326 5.404 0v.326c-.983 0-1.802.163-2.62.163zm27.832-2.61h-.819c-1.637-.327-2.948-1.142-4.258-1.958-1.474-.979-2.62-1.794-4.258-1.305-1.146.326-2.293.979-3.603 1.631l-.163-.326c1.31-.652 2.456-1.305 3.602-1.631 1.638-.49 2.948.326 4.422 1.468 1.147.816 2.457 1.631 4.095 1.958 1.637.326 2.292-.327 3.111-1.142.819-.816 1.965-1.958 4.586-2.121 3.766-.326 3.93-.816 4.749-2.284.164-.489.491-.978.983-1.794 1.31-1.957 5.076-3.752 6.878-4.73-1.31.163-3.275 0-5.568-1.305-2.784-1.632-2.948-1.468-4.422-1.468-.491 0-1.146.163-2.129.163-1.146 0-2.293-.327-3.275-.816-2.457-.816-4.586-1.631-8.189 2.12-2.948 3.263-3.439 5.057-3.767 6.362-.327.979-.491 1.631-1.474 2.284-.327.326-1.637 1.142-3.766 2.447l-.164-.327c2.129-1.141 3.439-2.12 3.767-2.446.982-.653 1.146-1.305 1.31-2.12.327-1.306.819-3.1 3.767-6.363 3.602-4.078 6.059-3.099 8.516-2.283.982.326 2.129.815 3.275.815.983 0 1.638 0 2.129-.163 1.638-.163 1.801-.163 4.586 1.468 3.602 2.12 6.55.979 6.55.979l.164.326s-6.059 2.61-7.861 5.22c-.491.653-.655 1.142-.982 1.631-.656 1.468-.983 2.12-4.914 2.447-2.62.163-3.602 1.142-4.421 2.12-.492.49-1.147 1.143-2.457 1.143z" fill="#180000"/><path d="M112.508 67.043c-6.387 0-11.955-2.936-12.119-3.1l.164-.326s6.059 3.263 12.61 2.937v.326c-.164.163-.491.163-.655.163zm10.983 25.937s-3.439-3.1-5.241-3.1h-.819c-1.474 0-3.111.163-4.585-.978-.492-.327-.655-.653-.819-.816-.164-.163-.164-.163-.655-.326-.328-.163-.655-.163-1.31-.49-2.129-.815-5.732-2.936-5.732-7.503 0-4.241.327-4.73 1.474-6.362.982-1.305 1.965-3.915.327-5.383-.819-.653-1.474-1.142-2.129-1.468l.164-.326c.983.326 2.129 1.305 3.275 2.447 1.474 1.305 2.948 2.61 4.095 2.773 2.129.326 2.62.489 4.421 2.61.983 1.141.983 1.794.983 2.12 0 .49 0 .653.655 1.305 1.31 1.142 2.948 2.61 3.439 7.34.328 5.057 2.621 7.504 2.784 7.667l-.327.49zm-5.241-3.263c1.31 0 3.112 1.305 4.422 2.284-.819-1.142-1.802-3.426-1.965-6.851-.328-4.73-1.966-6.036-3.276-7.178-.655-.652-.819-.978-.819-1.468s0-.978-.982-1.957c-1.638-2.12-1.965-2.12-4.258-2.447-1.31-.163-2.784-1.631-4.258-2.936.655 1.631-.164 3.588-.983 4.73-1.146 1.468-1.474 2.12-1.474 6.199 0 4.404 3.439 6.362 5.568 7.177.656.327 1.147.327 1.311.49.491.163.491.163.655.326.163.163.327.326.819.652 1.31 1.142 2.784.98 4.421.98h.819zm18.34-39.475l-.164-.164c1.966-2.12 2.457-3.262 2.785-4.404.163-.326.163-.49.327-.815.164-.49.491-.98.655-1.632 1.147-2.446 2.784-6.361 1.965-7.993-.818-1.468-1.965-1.957-3.111-2.446-1.31-.653-2.621-1.142-3.439-2.936-.983-1.958-1.147-3.1-1.311-3.915-.163-.653-.163-1.305-.655-1.958-.327-.652-.655-.816-.982-.979-.492-.163-.819-.489-1.638-2.446-.655-1.632-.655-2.61-.491-3.426.164-.816.164-1.468-.328-2.61-1.146-2.284-1.637-2.773-1.637-2.773l-.328-.163h.491s2.784-.163 5.568.979c1.638.652 2.293 1.142 2.785 1.63.491.327.818.653 1.31.816 1.31.327 2.784 2.121 3.275 4.079.164.652.819 1.141 1.638 1.794 1.474 1.142 3.439 2.773 2.62 5.872-.655 2.12-1.146 3.426-1.638 4.404-.491 1.142-.818 1.958-.818 2.937.163 3.262-.164 5.709-.819 7.34-.983 1.958-3.276 7.83-3.276 7.83l-.327-.163 3.275-7.83c.655-1.468.983-3.915.819-7.177 0-1.142.328-1.958.819-3.1.491-.978.983-2.283 1.638-4.404.818-2.936-.983-4.404-2.457-5.546-.819-.653-1.474-1.142-1.638-1.957-.491-1.795-1.801-3.426-3.111-3.752-.655-.163-.983-.49-1.474-.816-.492-.49-1.31-.979-2.784-1.631-2.129-.816-4.258-.979-5.077-.979.327.326.819.979 1.474 2.61.655 1.142.491 1.957.327 2.773-.163.816-.163 1.631.492 3.263.818 1.794 1.146 1.957 1.474 2.283.327.163.655.326.982.979.491.816.491 1.468.655 2.12.164.98.328 1.958 1.147 3.916.818 1.63 2.129 2.283 3.439 2.772 1.146.49 2.456 1.142 3.275 2.61.983 1.795-.655 5.547-1.965 8.32-.328.652-.491 1.305-.655 1.63-.164.327-.164.49-.328.816-.327.816-.655 2.121-2.784 4.242z" fill="#180000"/><path d="M142.976 37.029v-.327s0-1.305 1.311-1.957c.491-.326.818-1.142.982-1.958.328-1.142.655-2.446 1.802-2.773.982-.326.982-.326.818-.815 0-.327-.163-.653 0-1.305v-.163c.328-1.468.492-2.12 2.785-3.263 1.31-.652 1.801-.49 2.129 0 .327.163.491.49 1.146.326.655-.163.819-.326 1.146-.652.492-.49 1.147-.816 3.112-1.142 2.784-.326 4.094-1.305 4.422-1.468h.164l.163.163-.163.163c-.328.327-1.638 1.631-1.474 3.752.163 2.61-.819 2.936-2.293 3.589h-.164c-.983.326-.983.815-.983 1.468v1.468c.164.979.164 2.284-2.784 2.773-.982.163-1.637.326-2.129.326-1.474.163-1.801.326-2.456.816l-.491.49c-.492.489-.819.652-2.293.325-.492-.163-.819-.326-1.147-.326-1.31-.49-2.129-.815-3.766.653l.163-.163zm2.457-1.632c.655 0 1.146.163 1.801.49.328.163.656.326 1.147.326 1.31.326 1.638.163 1.965-.163l.491-.49c.655-.489.983-.489 2.621-.815.491-.163 1.31-.163 2.129-.326 2.62-.49 2.62-1.632 2.456-2.447V30.667c0-.653 0-1.305 1.147-1.795h.163c1.474-.652 2.293-.978 2.129-3.262 0-1.468.492-2.447.983-3.262-.819.326-1.965.815-3.767.978-1.965.163-2.456.653-2.948.98-.327.325-.655.488-1.31.652-.819.163-1.146-.163-1.31-.327-.327-.326-.655-.489-1.801.163-2.129 1.142-2.293 1.795-2.621 3.1v.163c-.163.49 0 .816 0 1.142.164.49 0 .815-1.146 1.142-.983.326-1.31 1.468-1.638 2.446-.327.98-.491 1.795-1.146 2.121-.819.326-.983.979-1.147 1.305.492-.653 1.311-.816 1.802-.816z" fill="#180000"/><path d="M151.165 24.631l-.327-.163c1.146-1.957.655-3.752 0-5.383 0-.163-.164-.326-.164-.49-.655-1.957-.164-2.935.328-3.425 0-.163.163-.163.163-.163.328-.326.492-.49 1.311-2.61.655-1.631 0-3.262-.655-4.567a11.25 11.25 0 01-.656-1.631c-.163-.653.164-1.795.328-2.773-.655.815-1.801 1.957-3.603 2.936-4.094 2.283-4.913 2.773-5.732 3.915-.491.652-.327 1.468-.327 2.12 0 .653.163 1.142-.164 1.468a1.975 1.975 0 01-.819.816c-.491.326-.819.652-1.146 1.468l-.328-.163c.328-.816.819-1.305 1.31-1.631.328-.164.491-.49.655-.653.164-.326.164-.816 0-1.305-.164-.815-.164-1.631.328-2.447.819-1.305 1.801-1.794 5.896-4.078 2.62-1.468 3.602-2.936 4.094-3.915.164-.489.327-.815.327-.815L152.476 0l-.164 1.305s0 .326-.328.979c-.327 1.142-.819 2.936-.655 3.751 0 .49.328.98.492 1.632.655 1.305 1.31 3.099.655 4.73-.819 2.12-.983 2.284-1.474 2.61l-.164.163c-.491.49-.819 1.305-.164 3.1 0 .163.164.326.164.489.983 1.957 1.638 3.915.327 5.872zm-7.857 10.767l-.327-.163s.491-.816.982-1.958c.655-1.142 1.802-1.794 1.802-1.957l.163.326s-1.146.653-1.801 1.794c-.328.98-.819 1.795-.819 1.958zm-15.56 26.425l-.163-.163s2.129-1.794.982-6.198c-.491-1.468-.982-2.937-1.637-4.242-1.147-2.446-2.293-4.73-1.147-7.34 1.474-3.915.491-8.156.491-8.32l.328-.162 1.801 5.056a7.421 7.421 0 001.802 2.774c.655.652 1.31 1.305 1.474 2.773.164 1.468-.328 2.61-.819 3.588-.491.979-.819 1.795-.491 2.61.327 1.305.163 2.284-.164 3.1-.164.489-.328.978-.164 1.468 0 1.305-.655 3.914-.819 3.914l-.327-.163s.819-2.61.819-3.915c0-.489.163-.978.327-1.468.164-.815.491-1.794.164-2.936-.328-.978.164-1.957.491-2.936.492-.979.983-2.12.655-3.425-.163-1.306-.819-1.958-1.474-2.61-.655-.653-1.31-1.305-1.801-2.773l-1.31-3.426c.164 1.631.327 4.241-.655 6.851-.983 2.61 0 4.73 1.146 7.177.655 1.305 1.31 2.61 1.638 4.241 1.146 4.568-1.147 6.525-1.147 6.525zm-1.157 9.461c-1.474 0-2.129-.652-2.784-1.305-.655-.652-1.147-1.142-2.129-.816-2.129.327-5.896 1.142-8.68-2.12-2.62-3.263-5.568-3.915-8.68-4.567v-.327c3.276.816 6.223 1.468 8.844 4.73 2.456 3.1 6.223 2.448 8.352 1.958 1.31-.163 1.801.326 2.456.979.656.653 1.311 1.305 2.948 1.142 1.474-.163 5.077 0 6.715 0-1.638-.653-4.749-2.284-6.715-6.036-1.474-3.099-3.275-4.893-5.568-5.383-2.948-.815-5.404.98-5.404.98l-.164-.164c.164 0 2.62-1.794 5.732-.979 2.293.653 4.258 2.447 5.732 5.546 2.456 5.057 7.37 6.199 7.37 6.199v.326s-5.896-.163-7.698 0c0-.163-.163-.163-.327-.163zM9.171 38.008h2.62v5.057c-.655.49-1.473.979-2.292 1.142-.82.163-1.802.49-2.784.49a7.637 7.637 0 01-3.44-.816c-.982-.49-1.801-1.305-2.456-2.284C.164 40.618 0 39.477 0 38.335c0-1.305.328-2.284.819-3.263.655-.978 1.474-1.794 2.456-2.283.983-.49 2.293-.816 3.603-.816 1.147 0 2.13.163 2.948.49.819.326 1.638.978 2.293 1.63l-1.801 1.632c-.82-.979-1.966-1.468-3.276-1.468-.819 0-1.474.163-2.129.49a3.207 3.207 0 00-1.474 1.467 4.5 4.5 0 00-.491 2.12 4.5 4.5 0 00.491 2.121 3.207 3.207 0 001.474 1.468c.655.327 1.31.49 2.13.49.818 0 1.637-.163 2.292-.49v-3.915H9.17zm15.067 5.872c-.983-.49-1.802-1.305-2.456-2.284-.656-.978-.82-2.12-.82-3.262 0-1.305.328-2.284.82-3.263.654-.978 1.473-1.794 2.456-2.283.983-.49 2.293-.816 3.44-.816 1.31 0 2.456.326 3.438.816.983.49 1.802 1.305 2.457 2.284.655.978.819 2.12.819 3.262 0 1.305-.328 2.284-.82 3.262-.654.98-1.473 1.795-2.456 2.284a7.637 7.637 0 01-3.439.816c-1.146 0-2.456-.327-3.439-.816zm5.568-2.12a3.207 3.207 0 001.474-1.469 4.5 4.5 0 00.491-2.12 4.5 4.5 0 00-.49-2.12 3.207 3.207 0 00-1.475-1.469c-.655-.326-1.31-.49-1.965-.49-.819 0-1.474.164-1.965.49a3.207 3.207 0 00-1.474 1.468 4.5 4.5 0 00-.492 2.12 4.5 4.5 0 00.492 2.121 3.207 3.207 0 001.474 1.468c.655.327 1.31.49 1.965.49s1.31-.163 1.965-.49zm14.25-9.788h2.948v10.114h6.224v2.283h-9.172V31.972zm17.846 0h5.732c1.31 0 2.62.326 3.603.816.983.49 1.801 1.305 2.457 2.12.655.98.818 1.958.818 3.263s-.327 2.284-.819 3.262c-.655.979-1.31 1.631-2.456 2.12-.983.49-2.293.816-3.603.816h-5.732V31.972zm5.568 10.114c1.31 0 2.293-.327 2.948-.979.819-.652 1.146-1.631 1.146-2.773 0-1.142-.327-2.12-1.146-2.773s-1.801-.979-2.948-.979h-2.62v7.667h2.62v-.163zm26.208.163v2.283h-9.662v-12.56h9.498v2.284h-6.55v2.773h5.895v2.284h-5.895v2.936h6.714zm20.96-10.277v12.56h-2.456l-6.224-7.503v7.503h-2.784v-12.56h2.457l6.223 7.504v-7.504h2.784zm37.175 2.448h-3.93v-2.284h10.972v2.284h-3.93v10.113h-2.948V34.42h-.164zm23.586 10.112l-2.457-3.425h-2.62v3.425h-2.948v-12.56h5.404c1.147 0 2.129.163 2.948.49.819.326 1.474.815 1.966 1.63.491.653.655 1.469.655 2.448 0 .978-.164 1.794-.655 2.446-.492.653-1.147 1.142-1.966 1.469l2.784 4.078h-3.111zm-.655-9.624c-.492-.326-1.147-.489-1.966-.489h-2.292v4.404h2.292c.819 0 1.474-.163 1.966-.49.491-.325.655-.978.655-1.63 0-.816-.328-1.468-.655-1.795zm22.757 7.341v2.283h-9.663v-12.56h9.499v2.284h-6.551v2.773h5.896v2.284h-5.896v2.936h6.715zm19.166 0v2.283h-9.663v-12.56h9.499v2.284h-6.551v2.773h5.896v2.284h-5.896v2.936h6.715z" fill="#180000"/></svg><svg width="56" height="15" fill="none" viewBox="0 0 56 15" id="menu-icon1" y="190" xmlns="http://www.w3.org/2000/svg"><path d="M15.928 1.284a1.82 1.82 0 01.396-.748c.176-.205.367-.308.572-.308.499 0 .858.095 1.078.286.22.19.33.52.33.99 0 .132-.103.506-.308 1.122-.455 1.393-.953 3.117-1.496 5.17-.132.47-.242.88-.33 1.232-.073.352-.14.645-.198.88-.352 1.51-.66 2.647-.924 3.41-.088.22-.242.396-.462.528-.22.117-.455.176-.704.176a1.95 1.95 0 01-.748-.154c-.235-.117-.403-.25-.506-.396-.455-.895-1.02-2.112-1.694-3.652-.66-1.555-1.173-2.911-1.54-4.07a135.962 135.962 0 00-2.442 6.666c-.044.132-.095.279-.154.44-.044.147-.095.3-.154.462-.103.22-.25.396-.44.528-.19.117-.403.176-.638.176a2 2 0 01-.77-.154c-.25-.117-.418-.25-.506-.396-.19-.323-.396-.821-.616-1.496-.205-.675-.484-1.62-.836-2.838l-.55-1.87a43.687 43.687 0 01-.99-3.74C1.019 2.252.88 1.489.88 1.24c0-.308.154-.55.462-.726.308-.19.616-.286.924-.286.176 0 .36.059.55.176.19.103.315.286.374.55.513 2.743 1.269 5.925 2.266 9.548.381-.91.8-2.017 1.254-3.322.47-1.305.917-2.574 1.342-3.806l.22-.66c.059-.22.205-.389.44-.506a1.59 1.59 0 01.748-.198c.323 0 .587.08.792.242.205.161.337.337.396.528.015.059.308.931.88 2.618a52.169 52.169 0 002.046 5.104c.293-.865.645-2.251 1.056-4.158l.33-1.452c.396-1.555.719-2.757.968-3.608zM27.447.008c.983 0 1.877.125 2.684.374.807.235 1.467.587 1.98 1.056.924.836 1.57 1.753 1.936 2.75.381.983.572 2.244.572 3.784 0 .323-.044.616-.132.88a8.415 8.415 0 01-.374 1.012c-.22.455-.352.814-.396 1.078-.293.513-.777 1.005-1.452 1.474a9.48 9.48 0 01-2.156 1.144c-.777.293-1.46.44-2.046.44-2.83 0-4.847-.968-6.05-2.904a7.726 7.726 0 01-.792-1.694 5.957 5.957 0 01-.264-1.716c0-1.496.264-2.794.792-3.894.543-1.115 1.29-1.98 2.244-2.596A10.362 10.362 0 0125.775.36c.63-.235 1.188-.352 1.672-.352zm-4.202 7.744c0 .792.176 1.445.528 1.958.367.513.924 1.07 1.672 1.672.616.235 1.034.389 1.254.462.22.059.47.088.748.088 1.481 0 2.662-.403 3.542-1.21.88-.807 1.32-1.914 1.32-3.322 0-1.115-.125-1.995-.374-2.64-.25-.645-.697-1.225-1.342-1.738-.337-.279-.77-.484-1.298-.616a6.7 6.7 0 00-1.672-.198c-.91 0-1.694.271-2.354.814-.66.528-1.166 1.217-1.518 2.068a7.157 7.157 0 00-.506 2.662zm29.537-6.468a1.82 1.82 0 01.396-.748c.176-.205.367-.308.572-.308.499 0 .858.095 1.078.286.22.19.33.52.33.99 0 .132-.102.506-.308 1.122-.454 1.393-.953 3.117-1.496 5.17-.132.47-.242.88-.33 1.232-.073.352-.139.645-.198.88-.352 1.51-.66 2.647-.924 3.41-.088.22-.242.396-.462.528-.22.117-.454.176-.704.176a1.95 1.95 0 01-.748-.154c-.234-.117-.403-.25-.506-.396-.44-.865-.997-2.222-1.672-4.07-.674-1.863-1.195-3.623-1.562-5.28a47.041 47.041 0 01-1.1 4.268 83.852 83.852 0 01-1.32 3.982c-.058.176-.117.345-.176.506-.058.147-.11.293-.154.44-.102.22-.249.396-.44.528-.19.117-.403.176-.638.176a2 2 0 01-.77-.154c-.249-.117-.418-.25-.506-.396-.19-.323-.396-.821-.616-1.496-.205-.675-.484-1.62-.836-2.838l-.55-1.87a43.71 43.71 0 01-.99-3.74c-.278-1.276-.418-2.039-.418-2.288 0-.308.154-.55.462-.726.308-.19.616-.286.924-.286.176 0 .36.059.55.176.191.103.316.286.374.55.514 2.743 1.269 5.925 2.266 9.548.25-.572.484-1.247.704-2.024.235-.792.55-1.9.946-3.322.514-1.863.902-3.19 1.166-3.982.059-.22.206-.396.44-.528a1.59 1.59 0 01.748-.198c.323 0 .587.088.792.264.206.161.338.337.396.528l.176.682c.455 1.716.91 3.322 1.364 4.818.455 1.496.917 2.75 1.386 3.762.294-.865.646-2.251 1.056-4.158l.33-1.452c.396-1.555.719-2.757.968-3.608z" fill="#08C7B8"/></svg><svg width="49" height="15" fill="none" viewBox="0 0 49 15" id="menu-icon2" x="56" y="190" xmlns="http://www.w3.org/2000/svg"><path d="M6.634.008c.983 0 1.877.125 2.684.374.807.235 1.467.587 1.98 1.056.924.836 1.57 1.753 1.936 2.75.381.983.572 2.244.572 3.784 0 .323-.044.616-.132.88a8.415 8.415 0 01-.374 1.012c-.22.455-.352.814-.396 1.078-.293.513-.777 1.005-1.452 1.474a9.48 9.48 0 01-2.156 1.144c-.777.293-1.46.44-2.046.44-2.83 0-4.847-.968-6.05-2.904a7.723 7.723 0 01-.792-1.694 5.957 5.957 0 01-.264-1.716c0-1.496.264-2.794.792-3.894.543-1.115 1.29-1.98 2.244-2.596A10.362 10.362 0 014.962.36C5.592.125 6.15.008 6.634.008zM2.432 7.752c0 .792.176 1.445.528 1.958.367.513.924 1.07 1.672 1.672.616.235 1.034.389 1.254.462.22.059.47.088.748.088 1.481 0 2.662-.403 3.542-1.21.88-.807 1.32-1.914 1.32-3.322 0-1.115-.125-1.995-.374-2.64-.25-.645-.697-1.225-1.342-1.738-.337-.279-.77-.484-1.298-.616a6.7 6.7 0 00-1.672-.198c-.91 0-1.694.271-2.354.814-.66.528-1.166 1.217-1.518 2.068a7.157 7.157 0 00-.506 2.662zM30.319.096c.206 0 .455.14.748.418.308.264.462.491.462.682 0 .895-.029 2.12-.088 3.674-.014.381-.029.843-.044 1.386a67.452 67.452 0 00-.022 1.848c0 2.23.132 3.872.396 4.928-.014.352-.154.609-.418.77-.264.147-.528.22-.792.22-.586 0-.975-.205-1.166-.616-.176-.41-.264-.997-.264-1.76 0-2.83.03-5.434.088-7.81-1.686 1.877-2.999 3.454-3.938 4.73l-.396.264c-.249.22-.454.33-.616.33-.38 0-.696-.095-.946-.286-.249-.19-.49-.47-.726-.836l-1.056-1.496a59.98 59.98 0 01-1.606-2.332c0 1.35.066 3.183.198 5.5.103 1.335.154 2.34.154 3.014 0 .352-.088.653-.264.902-.176.235-.454.352-.836.352-.38 0-.696-.073-.946-.22a.78.78 0 01-.374-.66c.015-.25.022-.66.022-1.232 0-1.144-.036-2.537-.11-4.18l-.044-1.188-.044-1.54c-.014-.455-.029-.983-.044-1.584a84.3 84.3 0 01-.022-2.002c0-.88.477-1.32 1.43-1.32.294 0 .587.073.88.22.308.147.536.36.682.638.118.513.55 1.364 1.298 2.552a95.089 95.089 0 002.2 3.344c.646-.821 1.174-1.437 1.584-1.848a19.304 19.304 0 001.738-2.002A30.03 30.03 0 0028.955.734c.132-.176.323-.323.572-.44.25-.132.514-.198.792-.198zm15.8 3.718a5.083 5.083 0 01-.639-.506c-.528-.41-.975-.711-1.342-.902a2.477 2.477 0 00-1.232-.308c-.645 0-1.29.08-1.936.242-.63.161-1.151.389-1.562.682a3.359 3.359 0 00-1.254 1.804c-.22.733-.33 1.635-.33 2.706a4.69 4.69 0 001.056 3.014c.426.484.939.858 1.54 1.122a4.659 4.659 0 001.848.396c1.423 0 2.479-.396 3.168-1.188.499-.63.748-1.4.748-2.31 0-.161-.117-.271-.352-.33-.234-.059-.572-.088-1.012-.088-.22 0-.564-.03-1.034-.088-.132-.015-.278-.03-.44-.044a4.644 4.644 0 00-.462-.022c-.425 0-.762-.08-1.012-.242-.249-.161-.374-.367-.374-.616 0-.352.118-.609.352-.77.235-.176.55-.264.946-.264.455 0 1.152.03 2.09.088.88.059 1.504.088 1.87.088.514 0 .924.161 1.232.484.323.323.484.792.484 1.408 0 .572-.124 1.24-.374 2.002a6.934 6.934 0 01-1.056 2.046c-.44.601-1.092 1.063-1.958 1.386-.85.323-1.789.484-2.816.484a7.346 7.346 0 01-2.486-.44c-.821-.308-1.51-.719-2.068-1.232a7.058 7.058 0 01-1.606-2.244c-.381-.88-.572-1.753-.572-2.618 0-1.335.235-2.581.704-3.74.484-1.173 1.218-2.083 2.2-2.728.44-.293 1.115-.535 2.024-.726.91-.19 1.709-.286 2.398-.286.968 0 1.848.213 2.64.638.792.425 1.408.953 1.848 1.584.176.264.264.499.264.704 0 .235-.102.455-.308.66-.205.205-.41.308-.616.308-.088 0-.19-.015-.308-.044a.75.75 0 01-.264-.11z" fill="#FF5C6F"/></svg><svg width="47" height="15" fill="none" viewBox="0 0 47 15" id="menu-icon3" x="105" y="190" xmlns="http://www.w3.org/2000/svg"><path d="M9.78 1.636c0-.425.095-.792.286-1.1.205-.323.506-.484.902-.484.337 0 .638.066.902.198s.396.352.396.66c0 .601-.03 1.445-.088 2.53a46.745 46.745 0 00-.088 2.354c0 .807.03 1.885.088 3.234a69.07 69.07 0 01.088 2.838c0 .484-.007.843-.022 1.078 0 .235-.132.47-.396.704-.25.22-.638.33-1.166.33-.279 0-.52-.044-.726-.132-.19-.103-.323-.213-.396-.33-.69-.836-1.694-2.259-3.014-4.268-1.481-2.244-2.691-3.96-3.63-5.148.117 1.056.176 2.347.176 3.872 0 .675-.015 1.555-.044 2.64-.015 1.07-.044 1.775-.088 2.112-.059.425-.19.755-.396.99-.19.22-.499.33-.924.33-.323 0-.565-.088-.726-.264-.147-.19-.235-.513-.264-.968-.015-.601.022-1.503.11-2.706.015-.19.037-.52.066-.99.03-.47.044-.887.044-1.254 0-1.012-.051-2.17-.154-3.476-.088-1.437-.132-2.5-.132-3.19 0-.352.125-.623.374-.814.264-.19.565-.286.902-.286.293 0 .601.073.924.22C4.045 1.9 5.754 4.261 7.91 7.4l2.068 3.168c.015-.235.022-.565.022-.99 0-.748-.015-1.555-.044-2.42-.03-.865-.051-1.452-.066-1.76a74.099 74.099 0 01-.11-3.762zm15.77 9.372c.278 0 .484.11.616.33.146.205.22.433.22.682 0 .308-.052.528-.154.66-.088.117-.264.242-.528.374-.616.293-1.379.528-2.288.704-.91.176-1.885.264-2.926.264-1.306 0-2.266-.22-2.882-.66-.602-.44-.976-.968-1.122-1.584-.132-.63-.198-1.452-.198-2.464 0-1.085.044-2.149.132-3.19.088-1.056.242-2.398.462-4.026.102-.704.381-1.21.836-1.518a2.53 2.53 0 011.496-.484c.454 0 1.195-.015 2.222-.044L23.35.03c.792 0 1.364.022 1.716.066.44.088.762.19.968.308.22.103.33.286.33.55 0 .293-.103.58-.308.858-.191.279-.484.418-.88.418-.455 0-1.108-.03-1.958-.088a30.451 30.451 0 00-1.914-.088 8.68 8.68 0 00-1.078.066c-.411.03-.704.08-.88.154a.472.472 0 00-.308.374c-.206 1.51-.308 2.625-.308 3.344.337.044.667.066.99.066.41 0 .85-.022 1.32-.066.469-.044.77-.073.902-.088.777-.073 1.444-.11 2.002-.11.322 0 .564.059.726.176a.552.552 0 01.264.484c0 .323-.088.572-.264.748-.162.176-.455.308-.88.396-.514.103-1.152.183-1.914.242-.748.059-1.482.088-2.2.088-.25 0-.594-.015-1.034-.044a50.85 50.85 0 00-.066 2.486c0 1.041.689 1.562 2.068 1.562.733 0 1.342-.051 1.826-.154.484-.103 1.041-.25 1.672-.44.586-.22 1.056-.33 1.408-.33zm18.562-9.724a1.82 1.82 0 01.396-.748c.176-.205.367-.308.572-.308.499 0 .858.095 1.078.286.22.19.33.52.33.99 0 .132-.102.506-.308 1.122-.454 1.393-.953 3.117-1.496 5.17-.132.47-.242.88-.33 1.232-.073.352-.139.645-.198.88-.352 1.51-.66 2.647-.924 3.41-.088.22-.242.396-.462.528-.22.117-.454.176-.704.176a1.95 1.95 0 01-.748-.154c-.234-.117-.403-.25-.506-.396-.44-.865-.997-2.222-1.672-4.07-.674-1.863-1.195-3.623-1.562-5.28a47.074 47.074 0 01-1.1 4.268 84.08 84.08 0 01-1.32 3.982 20.2 20.2 0 01-.176.506c-.058.147-.11.293-.154.44-.102.22-.249.396-.44.528-.19.117-.403.176-.638.176a2 2 0 01-.77-.154c-.249-.117-.418-.25-.506-.396-.19-.323-.396-.821-.616-1.496-.205-.675-.484-1.62-.836-2.838l-.55-1.87a43.636 43.636 0 01-.99-3.74c-.278-1.276-.418-2.039-.418-2.288 0-.308.154-.55.462-.726.308-.19.616-.286.924-.286.176 0 .36.059.55.176.191.103.316.286.374.55.514 2.743 1.269 5.925 2.266 9.548.25-.572.484-1.247.704-2.024.235-.792.55-1.9.946-3.322.514-1.863.902-3.19 1.166-3.982.059-.22.206-.396.44-.528a1.59 1.59 0 01.748-.198c.323 0 .587.088.792.264.206.161.338.337.396.528l.176.682c.455 1.716.91 3.322 1.364 4.818.455 1.496.917 2.75 1.386 3.762.294-.865.646-2.251 1.056-4.158l.33-1.452c.396-1.555.719-2.757.968-3.608z" fill="#FFB061"/></svg><svg width="18" height="17" fill="none" viewBox="0 0 18 17" id="phone" x="196" y="157" xmlns="http://www.w3.org/2000/svg"><path d="M4.99 6.728l.556-.738.238-.306c.141-.183.218-.271.222-.332.008-.065-.048-.172-.153-.39a9.03 9.03 0 01-.15-.31l-1.15-2.44-.088-.187c-.23-.497-.27-.593-1.05-.627-.173-.008-.346 0-.5.027a1.21 1.21 0 00-.363.114l-.004.004c-.38.207-.742.562-1.045.983-.319.447-.565.956-.674 1.422-.068.402-.088.807-.068 1.213.12 2.347 1.662 4.783 3.885 6.745 2.231 1.969 5.149 3.456 8.013 3.9.73.11 1.457.157 2.167.126.432-.038.851-.226 1.218-.505a2.94 2.94 0 00.9-1.128c.06-.153.11-.313.145-.474.04-.168.073-.336.097-.508l.004-.016c.069-.462.097-.661.045-.741-.04-.058-.162-.111-.38-.203-.125-.054-.278-.119-.468-.207l-2.542-1.208c-.165-.076-.27-.138-.359-.183-.133-.073-.205-.111-.226-.107-.02.003-.092.076-.246.24l-1.258 1.32a5.429 5.429 0 00-.158.172c-.165.18-.25.275-.403.31-.154.034-.283-.012-.55-.104l-.193-.069c-1.214-.417-2.437-1.059-3.47-1.912-.912-.753-1.674-1.674-2.154-2.753L4.8 7.791c-.117-.264-.17-.382-.15-.527.02-.127.085-.207.206-.36a7.5 7.5 0 00.133-.176zm.895-.512l-.557.738c-.048.065-.1.13-.141.183-.08.1-.121.153-.125.18-.004.038.036.126.12.321l.03.062c.455 1.02 1.177 1.892 2.045 2.611.988.822 2.166 1.438 3.337 1.84l.201.068c.186.065.279.1.307.092.024-.004.08-.069.19-.187a3.51 3.51 0 01.165-.176l1.138-1.193.117-.126c.226-.241.33-.352.512-.371.15-.016.262.046.472.156.097.05.214.115.343.176l2.534 1.205c.174.084.327.149.448.199.29.122.456.195.56.351.134.203.102.444.017 1.006l-.004.011c-.029.184-.06.364-.105.54a3.91 3.91 0 01-.162.52l-.008.019a3.293 3.293 0 01-1.02 1.28c-.424.326-.924.54-1.44.59l-.021.003a11.258 11.258 0 01-2.255-.13c-2.946-.455-5.94-1.98-8.227-4C2.06 10.159.466 7.628.337 5.169c-.024-.436 0-.872.073-1.296l.008-.004c.12-.52.387-1.082.738-1.568.331-.462.743-.864 1.182-1.097l.012-.008c.142-.076.311-.126.493-.156.185-.031.391-.043.593-.031 1.037.046 1.093.176 1.408.864l.085.184 1.15 2.44a6.5 6.5 0 00.149.305c.141.287.21.428.19.597-.02.168-.114.286-.303.527a3.355 3.355 0 00-.23.29z" fill="#54362A" stroke="#54362A" stroke-width=".5"/></svg><svg width="40" height="40" fill="none" viewBox="0 0 40 40" id="play" x="172" y="93" xmlns="http://www.w3.org/2000/svg"><circle cx="20.112" cy="20.112" fill="#fff" r="19.553"/><circle cx="20" cy="20" r="20" fill="#54362A"/><path d="M25 20l-7.5 4.33v-8.66L25 20z" fill="#fff"/></svg><svg width="24" height="24" fill="none" viewBox="0 0 24 24" id="search" x="172" y="157" xmlns="http://www.w3.org/2000/svg"><path d="M11 19a8 8 0 100-16 8 8 0 000 16zm10 2l-4.35-4.35" stroke="#180000" stroke-linecap="round" stroke-linejoin="round"/></svg><svg width="17" height="17" fill="none" viewBox="0 0 17 17" id="soc1" y="205" xmlns="http://www.w3.org/2000/svg"><g clip-path="url(#kclip0)"><path d="M8.5 16.856A8.357 8.357 0 108.5.142a8.357 8.357 0 000 16.714z" fill="#54362A"/><path fill-rule="evenodd" clip-rule="evenodd" d="M8.184 12.165h.656s.198-.022.3-.131c.093-.1.09-.288.09-.288s-.013-.88.395-1.01c.403-.128.92.85 1.468 1.227.415.285.73.222.73.222l1.465-.02s.767-.047.403-.65c-.03-.05-.212-.446-1.09-1.261-.918-.853-.795-.715.312-2.19.674-.899.943-1.447.86-1.682-.081-.224-.577-.165-.577-.165l-1.65.01s-.122-.016-.213.038c-.089.053-.146.177-.146.177s-.26.695-.61 1.287C9.844 8.976 9.55 9.042 9.43 8.965c-.28-.18-.21-.726-.21-1.113 0-1.209.184-1.713-.357-1.843-.179-.044-.31-.072-.77-.077-.588-.006-1.087.002-1.369.14-.187.092-.332.297-.244.309.109.014.356.066.487.245.169.23.163.746.163.746s.097 1.424-.227 1.6c-.222.122-.527-.126-1.182-1.258-.336-.58-.59-1.22-.59-1.22s-.048-.12-.135-.184a.684.684 0 00-.254-.103l-1.568.01s-.235.007-.322.11c-.077.09-.006.279-.006.279s1.228 2.872 2.618 4.319c1.274 1.327 2.721 1.24 2.721 1.24z" fill="#fff"/></g><defs><clipPath id="kclip0"><path fill="#fff" transform="translate(.143 .142)" d="M0 0h16.714v16.714H0z"/></clipPath></defs></svg><svg width="17" height="17" fill="none" viewBox="0 0 17 17" id="soc2" x="17" y="205" xmlns="http://www.w3.org/2000/svg"><g clip-path="url(#lclip0)"><path d="M8.5 16.856A8.357 8.357 0 108.5.142a8.357 8.357 0 000 16.714z" fill="#54362A"/><path d="M10.601 8.826H9.11v5.464H6.85V8.826H5.776v-1.92H6.85V5.664c0-.888.423-2.28 2.28-2.28l1.673.007v1.864H9.59c-.199 0-.479.1-.479.523v1.13h1.688l-.197 1.918z" fill="#fff"/></g><defs><clipPath id="lclip0"><path fill="#fff" transform="translate(.143 .142)" d="M0 0h16.714v16.714H0z"/></clipPath></defs></svg><svg width="21" height="20" fill="none" viewBox="0 0 21 20" id="soc3" x="196" y="133" xmlns="http://www.w3.org/2000/svg"><path d="M17.731 6.697v6.817a4.028 4.028 0 01-4.023 4.024H6.89a4.028 4.028 0 01-4.024-4.024V6.697A4.028 4.028 0 016.89 2.673h6.818a4.028 4.028 0 014.023 4.024zM6.234 10.106A4.07 4.07 0 0010.3 14.17a4.07 4.07 0 004.064-4.064A4.07 4.07 0 0010.3 6.04a4.07 4.07 0 00-4.065 4.065zm7.17-4.162a1.202 1.202 0 002.403 0 1.202 1.202 0 00-2.402-.001z" fill="#54362A"/><path d="M12.865 10.105a2.57 2.57 0 01-2.566 2.567 2.57 2.57 0 01-2.566-2.567 2.57 2.57 0 012.566-2.566 2.57 2.57 0 012.566 2.566z" fill="#54362A"/></svg><svg width="17" height="17" fill="none" viewBox="0 0 17 17" id="soc4" x="34" y="205" xmlns="http://www.w3.org/2000/svg"><g clip-path="url(#nclip0)"><path d="M16.004 4.583c-.18-.67-.71-1.2-1.381-1.38-1.226-.336-6.131-.336-6.131-.336s-4.905 0-6.131.322c-.659.181-1.2.723-1.381 1.394C.657 5.81.657 8.353.657 8.353s0 2.555.323 3.768c.18.671.71 1.2 1.38 1.381 1.24.336 6.132.336 6.132.336s4.904 0 6.13-.323a1.963 1.963 0 001.382-1.38c.322-1.227.322-3.77.322-3.77s.013-2.555-.322-3.782zM6.93 10.701V6.003l4.079 2.35L6.93 10.7z" fill="#54362A"/></g><defs><clipPath id="nclip0"><path fill="#fff" transform="translate(.143 .143)" d="M0 0h16.714v16.714H0z"/></clipPath></defs></svg><svg width="17" height="17" fill="none" viewBox="0 0 17 17" id="soc5" x="51" y="205" xmlns="http://www.w3.org/2000/svg"><g clip-path="url(#oclip0)"><path d="M1.187 8.27c1.58-.876 3.343-1.607 4.99-2.341 2.835-1.203 5.68-2.385 8.555-3.486.56-.187 1.564-.37 1.663.463-.055 1.18-.276 2.354-.429 3.528-.386 2.58-.833 5.152-1.268 7.724-.15.856-1.217 1.3-1.9.752-1.64-1.115-3.292-2.219-4.911-3.36-.53-.542-.039-1.32.435-1.708 1.35-1.34 2.783-2.477 4.064-3.886.345-.84-.676-.132-1.012.084C9.524 7.323 7.72 8.683 5.77 9.81c-.996.552-2.157.08-3.153-.227-.892-.372-2.2-.747-1.43-1.314z" fill="#54362A"/></g><defs><clipPath id="oclip0"><path fill="#fff" transform="translate(.954 .569)" d="M0 0h15.44v15.44H0z"/></clipPath></defs></svg><svg width="172" height="97" fill="none" viewBox="0 0 172 97" id="tooltip" y="93" xmlns="http://www.w3.org/2000/svg"><g filter="url(#pfilter0_d)"><path d="M152 63V25c0-5.523-4.477-10-10-10H37.575c-5.523 0-10 4.477-10 10v11.562L20 44.91l7.575 8.349V63c0 5.523 4.478 10 10 10H142c5.523 0 10-4.477 10-10z" fill="#fff"/></g><defs><filter id="pfilter0_d" x=".93" y=".698" width="170.14" height="96.14" filterUnits="userSpaceOnUse" color-interpolation-filters="sRGB"><feFlood flood-opacity="0" result="BackgroundImageFix"/><feColorMatrix in="SourceAlpha" values="0 0 0 0 0 0 0 0 0 0 0 0 0 0 0 0 0 0 127 0"/><feOffset dy="4.767"/><feGaussianBlur stdDeviation="9.535"/><feColorMatrix values="0 0 0 0 0 0 0 0 0 0 0 0 0 0 0 0 0 0 0.1 0"/><feBlend in2="BackgroundImageFix" result="effect1_dropShadow"/><feBlend in="SourceGraphic" in2="effect1_dropShadow" result="shape"/></filter></defs></svg></svg>